<?xml version="1.0" encoding="utf-8"?>
<svg xmlns="http://www.w3.org/2000/svg" xmlns:xlink="http://www.w3.org/1999/xlink" width="600" height="400" viewBox="0 0 2400 1600">
<defs>
  <clipPath id="clip670">
    <rect x="0" y="0" width="2400" height="1600"/>
  </clipPath>
</defs>
<path clip-path="url(#clip670)" d="M0 1600 L2400 1600 L2400 0 L0 0  Z" fill="#ffffff" fill-rule="evenodd" fill-opacity="1"/>
<defs>
  <clipPath id="clip671">
    <rect x="193" y="47" width="1920" height="1440"/>
  </clipPath>
</defs>
<path clip-path="url(#clip670)" d="M193.936 1486.45 L2112.76 1486.45 L2112.76 47.2441 L193.936 47.2441  Z" fill="#ffffff" fill-rule="evenodd" fill-opacity="1"/>
<polyline clip-path="url(#clip671)" style="stroke:#000000; stroke-linecap:round; stroke-linejoin:round; stroke-width:2; stroke-opacity:0.1; fill:none" points="193.936,1486.45 193.936,47.2441 "/>
<polyline clip-path="url(#clip671)" style="stroke:#000000; stroke-linecap:round; stroke-linejoin:round; stroke-width:2; stroke-opacity:0.1; fill:none" points="673.641,1486.45 673.641,47.2441 "/>
<polyline clip-path="url(#clip671)" style="stroke:#000000; stroke-linecap:round; stroke-linejoin:round; stroke-width:2; stroke-opacity:0.1; fill:none" points="1153.35,1486.45 1153.35,47.2441 "/>
<polyline clip-path="url(#clip671)" style="stroke:#000000; stroke-linecap:round; stroke-linejoin:round; stroke-width:2; stroke-opacity:0.1; fill:none" points="1633.05,1486.45 1633.05,47.2441 "/>
<polyline clip-path="url(#clip671)" style="stroke:#000000; stroke-linecap:round; stroke-linejoin:round; stroke-width:2; stroke-opacity:0.1; fill:none" points="2112.76,1486.45 2112.76,47.2441 "/>
<polyline clip-path="url(#clip671)" style="stroke:#000000; stroke-linecap:round; stroke-linejoin:round; stroke-width:2; stroke-opacity:0.1; fill:none" points="193.936,1486.45 2112.76,1486.45 "/>
<polyline clip-path="url(#clip671)" style="stroke:#000000; stroke-linecap:round; stroke-linejoin:round; stroke-width:2; stroke-opacity:0.1; fill:none" points="193.936,1126.65 2112.76,1126.65 "/>
<polyline clip-path="url(#clip671)" style="stroke:#000000; stroke-linecap:round; stroke-linejoin:round; stroke-width:2; stroke-opacity:0.1; fill:none" points="193.936,766.846 2112.76,766.846 "/>
<polyline clip-path="url(#clip671)" style="stroke:#000000; stroke-linecap:round; stroke-linejoin:round; stroke-width:2; stroke-opacity:0.1; fill:none" points="193.936,407.045 2112.76,407.045 "/>
<polyline clip-path="url(#clip671)" style="stroke:#000000; stroke-linecap:round; stroke-linejoin:round; stroke-width:2; stroke-opacity:0.1; fill:none" points="193.936,47.2441 2112.76,47.2441 "/>
<polyline clip-path="url(#clip670)" style="stroke:#000000; stroke-linecap:round; stroke-linejoin:round; stroke-width:4; stroke-opacity:1; fill:none" points="193.936,1486.45 2112.76,1486.45 "/>
<polyline clip-path="url(#clip670)" style="stroke:#000000; stroke-linecap:round; stroke-linejoin:round; stroke-width:4; stroke-opacity:1; fill:none" points="193.936,1486.45 193.936,1467.55 "/>
<polyline clip-path="url(#clip670)" style="stroke:#000000; stroke-linecap:round; stroke-linejoin:round; stroke-width:4; stroke-opacity:1; fill:none" points="673.641,1486.45 673.641,1467.55 "/>
<polyline clip-path="url(#clip670)" style="stroke:#000000; stroke-linecap:round; stroke-linejoin:round; stroke-width:4; stroke-opacity:1; fill:none" points="1153.35,1486.45 1153.35,1467.55 "/>
<polyline clip-path="url(#clip670)" style="stroke:#000000; stroke-linecap:round; stroke-linejoin:round; stroke-width:4; stroke-opacity:1; fill:none" points="1633.05,1486.45 1633.05,1467.55 "/>
<polyline clip-path="url(#clip670)" style="stroke:#000000; stroke-linecap:round; stroke-linejoin:round; stroke-width:4; stroke-opacity:1; fill:none" points="2112.76,1486.45 2112.76,1467.55 "/>
<path clip-path="url(#clip670)" d="M140.464 1532.02 L170.14 1532.02 L170.14 1535.95 L140.464 1535.95 L140.464 1532.02 Z" fill="#000000" fill-rule="nonzero" fill-opacity="1" /><path clip-path="url(#clip670)" d="M181.043 1544.91 L188.681 1544.91 L188.681 1518.55 L180.371 1520.21 L180.371 1515.95 L188.635 1514.29 L193.311 1514.29 L193.311 1544.91 L200.95 1544.91 L200.95 1548.85 L181.043 1548.85 L181.043 1544.91 Z" fill="#000000" fill-rule="nonzero" fill-opacity="1" /><path clip-path="url(#clip670)" d="M210.394 1542.97 L215.278 1542.97 L215.278 1548.85 L210.394 1548.85 L210.394 1542.97 Z" fill="#000000" fill-rule="nonzero" fill-opacity="1" /><path clip-path="url(#clip670)" d="M235.464 1517.37 Q231.852 1517.37 230.024 1520.93 Q228.218 1524.47 228.218 1531.6 Q228.218 1538.71 230.024 1542.27 Q231.852 1545.82 235.464 1545.82 Q239.098 1545.82 240.903 1542.27 Q242.732 1538.71 242.732 1531.6 Q242.732 1524.47 240.903 1520.93 Q239.098 1517.37 235.464 1517.37 M235.464 1513.66 Q241.274 1513.66 244.329 1518.27 Q247.408 1522.85 247.408 1531.6 Q247.408 1540.33 244.329 1544.94 Q241.274 1549.52 235.464 1549.52 Q229.653 1549.52 226.575 1544.94 Q223.519 1540.33 223.519 1531.6 Q223.519 1522.85 226.575 1518.27 Q229.653 1513.66 235.464 1513.66 Z" fill="#000000" fill-rule="nonzero" fill-opacity="1" /><path clip-path="url(#clip670)" d="M620.667 1532.02 L650.342 1532.02 L650.342 1535.95 L620.667 1535.95 L620.667 1532.02 Z" fill="#000000" fill-rule="nonzero" fill-opacity="1" /><path clip-path="url(#clip670)" d="M670.435 1517.37 Q666.824 1517.37 664.995 1520.93 Q663.19 1524.47 663.19 1531.6 Q663.19 1538.71 664.995 1542.27 Q666.824 1545.82 670.435 1545.82 Q674.069 1545.82 675.875 1542.27 Q677.703 1538.71 677.703 1531.6 Q677.703 1524.47 675.875 1520.93 Q674.069 1517.37 670.435 1517.37 M670.435 1513.66 Q676.245 1513.66 679.301 1518.27 Q682.379 1522.85 682.379 1531.6 Q682.379 1540.33 679.301 1544.94 Q676.245 1549.52 670.435 1549.52 Q664.625 1549.52 661.546 1544.94 Q658.491 1540.33 658.491 1531.6 Q658.491 1522.85 661.546 1518.27 Q664.625 1513.66 670.435 1513.66 Z" fill="#000000" fill-rule="nonzero" fill-opacity="1" /><path clip-path="url(#clip670)" d="M690.597 1542.97 L695.481 1542.97 L695.481 1548.85 L690.597 1548.85 L690.597 1542.97 Z" fill="#000000" fill-rule="nonzero" fill-opacity="1" /><path clip-path="url(#clip670)" d="M705.713 1514.29 L724.069 1514.29 L724.069 1518.22 L709.995 1518.22 L709.995 1526.7 Q711.013 1526.35 712.032 1526.19 Q713.05 1526 714.069 1526 Q719.856 1526 723.236 1529.17 Q726.615 1532.34 726.615 1537.76 Q726.615 1543.34 723.143 1546.44 Q719.671 1549.52 713.351 1549.52 Q711.175 1549.52 708.907 1549.15 Q706.662 1548.78 704.254 1548.04 L704.254 1543.34 Q706.338 1544.47 708.56 1545.03 Q710.782 1545.58 713.259 1545.58 Q717.263 1545.58 719.601 1543.48 Q721.939 1541.37 721.939 1537.76 Q721.939 1534.15 719.601 1532.04 Q717.263 1529.94 713.259 1529.94 Q711.384 1529.94 709.509 1530.35 Q707.657 1530.77 705.713 1531.65 L705.713 1514.29 Z" fill="#000000" fill-rule="nonzero" fill-opacity="1" /><path clip-path="url(#clip670)" d="M1130.73 1517.37 Q1127.12 1517.37 1125.29 1520.93 Q1123.49 1524.47 1123.49 1531.6 Q1123.49 1538.71 1125.29 1542.27 Q1127.12 1545.82 1130.73 1545.82 Q1134.36 1545.82 1136.17 1542.27 Q1138 1538.71 1138 1531.6 Q1138 1524.47 1136.17 1520.93 Q1134.36 1517.37 1130.73 1517.37 M1130.73 1513.66 Q1136.54 1513.66 1139.6 1518.27 Q1142.67 1522.85 1142.67 1531.6 Q1142.67 1540.33 1139.6 1544.94 Q1136.54 1549.52 1130.73 1549.52 Q1124.92 1549.52 1121.84 1544.94 Q1118.79 1540.33 1118.79 1531.6 Q1118.79 1522.85 1121.84 1518.27 Q1124.92 1513.66 1130.73 1513.66 Z" fill="#000000" fill-rule="nonzero" fill-opacity="1" /><path clip-path="url(#clip670)" d="M1150.89 1542.97 L1155.78 1542.97 L1155.78 1548.85 L1150.89 1548.85 L1150.89 1542.97 Z" fill="#000000" fill-rule="nonzero" fill-opacity="1" /><path clip-path="url(#clip670)" d="M1175.96 1517.37 Q1172.35 1517.37 1170.52 1520.93 Q1168.72 1524.47 1168.72 1531.6 Q1168.72 1538.71 1170.52 1542.27 Q1172.35 1545.82 1175.96 1545.82 Q1179.6 1545.82 1181.4 1542.27 Q1183.23 1538.71 1183.23 1531.6 Q1183.23 1524.47 1181.4 1520.93 Q1179.6 1517.37 1175.96 1517.37 M1175.96 1513.66 Q1181.77 1513.66 1184.83 1518.27 Q1187.91 1522.85 1187.91 1531.6 Q1187.91 1540.33 1184.83 1544.94 Q1181.77 1549.52 1175.96 1549.52 Q1170.15 1549.52 1167.07 1544.94 Q1164.02 1540.33 1164.02 1531.6 Q1164.02 1522.85 1167.07 1518.27 Q1170.15 1513.66 1175.96 1513.66 Z" fill="#000000" fill-rule="nonzero" fill-opacity="1" /><path clip-path="url(#clip670)" d="M1610.93 1517.37 Q1607.32 1517.37 1605.49 1520.93 Q1603.69 1524.47 1603.69 1531.6 Q1603.69 1538.71 1605.49 1542.27 Q1607.32 1545.82 1610.93 1545.82 Q1614.57 1545.82 1616.37 1542.27 Q1618.2 1538.71 1618.2 1531.6 Q1618.2 1524.47 1616.37 1520.93 Q1614.57 1517.37 1610.93 1517.37 M1610.93 1513.66 Q1616.74 1513.66 1619.8 1518.27 Q1622.88 1522.85 1622.88 1531.6 Q1622.88 1540.33 1619.8 1544.94 Q1616.74 1549.52 1610.93 1549.52 Q1605.12 1549.52 1602.04 1544.94 Q1598.99 1540.33 1598.99 1531.6 Q1598.99 1522.85 1602.04 1518.27 Q1605.12 1513.66 1610.93 1513.66 Z" fill="#000000" fill-rule="nonzero" fill-opacity="1" /><path clip-path="url(#clip670)" d="M1631.09 1542.97 L1635.98 1542.97 L1635.98 1548.85 L1631.09 1548.85 L1631.09 1542.97 Z" fill="#000000" fill-rule="nonzero" fill-opacity="1" /><path clip-path="url(#clip670)" d="M1646.21 1514.29 L1664.57 1514.29 L1664.57 1518.22 L1650.49 1518.22 L1650.49 1526.7 Q1651.51 1526.35 1652.53 1526.19 Q1653.55 1526 1654.57 1526 Q1660.35 1526 1663.73 1529.17 Q1667.11 1532.34 1667.11 1537.76 Q1667.11 1543.34 1663.64 1546.44 Q1660.17 1549.52 1653.85 1549.52 Q1651.67 1549.52 1649.41 1549.15 Q1647.16 1548.78 1644.75 1548.04 L1644.75 1543.34 Q1646.84 1544.47 1649.06 1545.03 Q1651.28 1545.58 1653.76 1545.58 Q1657.76 1545.58 1660.1 1543.48 Q1662.44 1541.37 1662.44 1537.76 Q1662.44 1534.15 1660.1 1532.04 Q1657.76 1529.94 1653.76 1529.94 Q1651.88 1529.94 1650.01 1530.35 Q1648.16 1530.77 1646.21 1531.65 L1646.21 1514.29 Z" fill="#000000" fill-rule="nonzero" fill-opacity="1" /><path clip-path="url(#clip670)" d="M2079.91 1544.91 L2087.55 1544.91 L2087.55 1518.55 L2079.24 1520.21 L2079.24 1515.95 L2087.5 1514.29 L2092.18 1514.29 L2092.18 1544.91 L2099.82 1544.91 L2099.82 1548.85 L2079.91 1548.85 L2079.91 1544.91 Z" fill="#000000" fill-rule="nonzero" fill-opacity="1" /><path clip-path="url(#clip670)" d="M2109.26 1542.97 L2114.14 1542.97 L2114.14 1548.85 L2109.26 1548.85 L2109.26 1542.97 Z" fill="#000000" fill-rule="nonzero" fill-opacity="1" /><path clip-path="url(#clip670)" d="M2134.33 1517.37 Q2130.72 1517.37 2128.89 1520.93 Q2127.08 1524.47 2127.08 1531.6 Q2127.08 1538.71 2128.89 1542.27 Q2130.72 1545.82 2134.33 1545.82 Q2137.96 1545.82 2139.77 1542.27 Q2141.6 1538.71 2141.6 1531.6 Q2141.6 1524.47 2139.77 1520.93 Q2137.96 1517.37 2134.33 1517.37 M2134.33 1513.66 Q2140.14 1513.66 2143.2 1518.27 Q2146.27 1522.85 2146.27 1531.6 Q2146.27 1540.33 2143.2 1544.94 Q2140.14 1549.52 2134.33 1549.52 Q2128.52 1549.52 2125.44 1544.94 Q2122.39 1540.33 2122.39 1531.6 Q2122.39 1522.85 2125.44 1518.27 Q2128.52 1513.66 2134.33 1513.66 Z" fill="#000000" fill-rule="nonzero" fill-opacity="1" /><polyline clip-path="url(#clip670)" style="stroke:#000000; stroke-linecap:round; stroke-linejoin:round; stroke-width:4; stroke-opacity:1; fill:none" points="193.936,1486.45 193.936,47.2441 "/>
<polyline clip-path="url(#clip670)" style="stroke:#000000; stroke-linecap:round; stroke-linejoin:round; stroke-width:4; stroke-opacity:1; fill:none" points="193.936,1486.45 210.733,1486.45 "/>
<polyline clip-path="url(#clip670)" style="stroke:#000000; stroke-linecap:round; stroke-linejoin:round; stroke-width:4; stroke-opacity:1; fill:none" points="193.936,1126.65 210.733,1126.65 "/>
<polyline clip-path="url(#clip670)" style="stroke:#000000; stroke-linecap:round; stroke-linejoin:round; stroke-width:4; stroke-opacity:1; fill:none" points="193.936,766.846 210.733,766.846 "/>
<polyline clip-path="url(#clip670)" style="stroke:#000000; stroke-linecap:round; stroke-linejoin:round; stroke-width:4; stroke-opacity:1; fill:none" points="193.936,407.045 210.733,407.045 "/>
<polyline clip-path="url(#clip670)" style="stroke:#000000; stroke-linecap:round; stroke-linejoin:round; stroke-width:4; stroke-opacity:1; fill:none" points="193.936,47.2441 210.733,47.2441 "/>
<path clip-path="url(#clip670)" d="M50.9921 1486.9 L80.6679 1486.9 L80.6679 1490.83 L50.9921 1490.83 L50.9921 1486.9 Z" fill="#000000" fill-rule="nonzero" fill-opacity="1" /><path clip-path="url(#clip670)" d="M91.5706 1499.79 L99.2095 1499.79 L99.2095 1473.43 L90.8993 1475.09 L90.8993 1470.83 L99.1632 1469.17 L103.839 1469.17 L103.839 1499.79 L111.478 1499.79 L111.478 1503.73 L91.5706 1503.73 L91.5706 1499.79 Z" fill="#000000" fill-rule="nonzero" fill-opacity="1" /><path clip-path="url(#clip670)" d="M120.922 1497.85 L125.807 1497.85 L125.807 1503.73 L120.922 1503.73 L120.922 1497.85 Z" fill="#000000" fill-rule="nonzero" fill-opacity="1" /><path clip-path="url(#clip670)" d="M145.992 1472.25 Q142.381 1472.25 140.552 1475.81 Q138.746 1479.35 138.746 1486.48 Q138.746 1493.59 140.552 1497.15 Q142.381 1500.7 145.992 1500.7 Q149.626 1500.7 151.431 1497.15 Q153.26 1493.59 153.26 1486.48 Q153.26 1479.35 151.431 1475.81 Q149.626 1472.25 145.992 1472.25 M145.992 1468.54 Q151.802 1468.54 154.857 1473.15 Q157.936 1477.73 157.936 1486.48 Q157.936 1495.21 154.857 1499.82 Q151.802 1504.4 145.992 1504.4 Q140.181 1504.4 137.103 1499.82 Q134.047 1495.21 134.047 1486.48 Q134.047 1477.73 137.103 1473.15 Q140.181 1468.54 145.992 1468.54 Z" fill="#000000" fill-rule="nonzero" fill-opacity="1" /><path clip-path="url(#clip670)" d="M51.9875 1127.1 L81.6633 1127.1 L81.6633 1131.03 L51.9875 1131.03 L51.9875 1127.1 Z" fill="#000000" fill-rule="nonzero" fill-opacity="1" /><path clip-path="url(#clip670)" d="M101.756 1112.45 Q98.1447 1112.45 96.316 1116.01 Q94.5104 1119.55 94.5104 1126.68 Q94.5104 1133.79 96.316 1137.35 Q98.1447 1140.89 101.756 1140.89 Q105.39 1140.89 107.196 1137.35 Q109.024 1133.79 109.024 1126.68 Q109.024 1119.55 107.196 1116.01 Q105.39 1112.45 101.756 1112.45 M101.756 1108.74 Q107.566 1108.74 110.621 1113.35 Q113.7 1117.93 113.7 1126.68 Q113.7 1135.41 110.621 1140.01 Q107.566 1144.6 101.756 1144.6 Q95.9456 1144.6 92.8669 1140.01 Q89.8114 1135.41 89.8114 1126.68 Q89.8114 1117.93 92.8669 1113.35 Q95.9456 1108.74 101.756 1108.74 Z" fill="#000000" fill-rule="nonzero" fill-opacity="1" /><path clip-path="url(#clip670)" d="M121.918 1138.05 L126.802 1138.05 L126.802 1143.93 L121.918 1143.93 L121.918 1138.05 Z" fill="#000000" fill-rule="nonzero" fill-opacity="1" /><path clip-path="url(#clip670)" d="M137.033 1109.37 L155.39 1109.37 L155.39 1113.3 L141.316 1113.3 L141.316 1121.77 Q142.334 1121.43 143.353 1121.27 Q144.371 1121.08 145.39 1121.08 Q151.177 1121.08 154.556 1124.25 Q157.936 1127.42 157.936 1132.84 Q157.936 1138.42 154.464 1141.52 Q150.992 1144.6 144.672 1144.6 Q142.496 1144.6 140.228 1144.23 Q137.982 1143.86 135.575 1143.12 L135.575 1138.42 Q137.658 1139.55 139.881 1140.11 Q142.103 1140.66 144.58 1140.66 Q148.584 1140.66 150.922 1138.56 Q153.26 1136.45 153.26 1132.84 Q153.26 1129.23 150.922 1127.12 Q148.584 1125.01 144.58 1125.01 Q142.705 1125.01 140.83 1125.43 Q138.978 1125.85 137.033 1126.73 L137.033 1109.37 Z" fill="#000000" fill-rule="nonzero" fill-opacity="1" /><path clip-path="url(#clip670)" d="M100.76 752.645 Q97.1493 752.645 95.3206 756.209 Q93.515 759.751 93.515 766.881 Q93.515 773.987 95.3206 777.552 Q97.1493 781.094 100.76 781.094 Q104.395 781.094 106.2 777.552 Q108.029 773.987 108.029 766.881 Q108.029 759.751 106.2 756.209 Q104.395 752.645 100.76 752.645 M100.76 748.941 Q106.571 748.941 109.626 753.547 Q112.705 758.131 112.705 766.881 Q112.705 775.608 109.626 780.214 Q106.571 784.797 100.76 784.797 Q94.9502 784.797 91.8715 780.214 Q88.816 775.608 88.816 766.881 Q88.816 758.131 91.8715 753.547 Q94.9502 748.941 100.76 748.941 Z" fill="#000000" fill-rule="nonzero" fill-opacity="1" /><path clip-path="url(#clip670)" d="M120.922 778.246 L125.807 778.246 L125.807 784.126 L120.922 784.126 L120.922 778.246 Z" fill="#000000" fill-rule="nonzero" fill-opacity="1" /><path clip-path="url(#clip670)" d="M145.992 752.645 Q142.381 752.645 140.552 756.209 Q138.746 759.751 138.746 766.881 Q138.746 773.987 140.552 777.552 Q142.381 781.094 145.992 781.094 Q149.626 781.094 151.431 777.552 Q153.26 773.987 153.26 766.881 Q153.26 759.751 151.431 756.209 Q149.626 752.645 145.992 752.645 M145.992 748.941 Q151.802 748.941 154.857 753.547 Q157.936 758.131 157.936 766.881 Q157.936 775.608 154.857 780.214 Q151.802 784.797 145.992 784.797 Q140.181 784.797 137.103 780.214 Q134.047 775.608 134.047 766.881 Q134.047 758.131 137.103 753.547 Q140.181 748.941 145.992 748.941 Z" fill="#000000" fill-rule="nonzero" fill-opacity="1" /><path clip-path="url(#clip670)" d="M101.756 392.844 Q98.1447 392.844 96.316 396.409 Q94.5104 399.95 94.5104 407.08 Q94.5104 414.186 96.316 417.751 Q98.1447 421.293 101.756 421.293 Q105.39 421.293 107.196 417.751 Q109.024 414.186 109.024 407.08 Q109.024 399.95 107.196 396.409 Q105.39 392.844 101.756 392.844 M101.756 389.14 Q107.566 389.14 110.621 393.746 Q113.7 398.33 113.7 407.08 Q113.7 415.807 110.621 420.413 Q107.566 424.996 101.756 424.996 Q95.9456 424.996 92.8669 420.413 Q89.8114 415.807 89.8114 407.08 Q89.8114 398.33 92.8669 393.746 Q95.9456 389.14 101.756 389.14 Z" fill="#000000" fill-rule="nonzero" fill-opacity="1" /><path clip-path="url(#clip670)" d="M121.918 418.445 L126.802 418.445 L126.802 424.325 L121.918 424.325 L121.918 418.445 Z" fill="#000000" fill-rule="nonzero" fill-opacity="1" /><path clip-path="url(#clip670)" d="M137.033 389.765 L155.39 389.765 L155.39 393.7 L141.316 393.7 L141.316 402.172 Q142.334 401.825 143.353 401.663 Q144.371 401.478 145.39 401.478 Q151.177 401.478 154.556 404.649 Q157.936 407.82 157.936 413.237 Q157.936 418.816 154.464 421.918 Q150.992 424.996 144.672 424.996 Q142.496 424.996 140.228 424.626 Q137.982 424.256 135.575 423.515 L135.575 418.816 Q137.658 419.95 139.881 420.506 Q142.103 421.061 144.58 421.061 Q148.584 421.061 150.922 418.955 Q153.26 416.848 153.26 413.237 Q153.26 409.626 150.922 407.52 Q148.584 405.413 144.58 405.413 Q142.705 405.413 140.83 405.83 Q138.978 406.246 137.033 407.126 L137.033 389.765 Z" fill="#000000" fill-rule="nonzero" fill-opacity="1" /><path clip-path="url(#clip670)" d="M91.5706 60.5889 L99.2095 60.5889 L99.2095 34.2233 L90.8993 35.89 L90.8993 31.6308 L99.1632 29.9641 L103.839 29.9641 L103.839 60.5889 L111.478 60.5889 L111.478 64.5241 L91.5706 64.5241 L91.5706 60.5889 Z" fill="#000000" fill-rule="nonzero" fill-opacity="1" /><path clip-path="url(#clip670)" d="M120.922 58.6445 L125.807 58.6445 L125.807 64.5241 L120.922 64.5241 L120.922 58.6445 Z" fill="#000000" fill-rule="nonzero" fill-opacity="1" /><path clip-path="url(#clip670)" d="M145.992 33.0428 Q142.381 33.0428 140.552 36.6076 Q138.746 40.1492 138.746 47.2788 Q138.746 54.3853 140.552 57.9501 Q142.381 61.4917 145.992 61.4917 Q149.626 61.4917 151.431 57.9501 Q153.26 54.3853 153.26 47.2788 Q153.26 40.1492 151.431 36.6076 Q149.626 33.0428 145.992 33.0428 M145.992 29.3391 Q151.802 29.3391 154.857 33.9456 Q157.936 38.5289 157.936 47.2788 Q157.936 56.0056 154.857 60.6121 Q151.802 65.1954 145.992 65.1954 Q140.181 65.1954 137.103 60.6121 Q134.047 56.0056 134.047 47.2788 Q134.047 38.5289 137.103 33.9456 Q140.181 29.3391 145.992 29.3391 Z" fill="#000000" fill-rule="nonzero" fill-opacity="1" /><polyline clip-path="url(#clip671)" style="stroke:#000000; stroke-linecap:round; stroke-linejoin:round; stroke-width:4; stroke-opacity:1; fill:none" points="683.75,1159.36 707.56,1170.34 746.324,1178.44 785.088,1179.09 823.852,1172.73 855.301,1159.36 862.616,1156.41 899.18,1130.28 901.38,1127.79 923.89,1101.21 933.566,1072.13 934.343,1043.06 926.748,1013.98 905.309,984.907 901.38,981.286 867.444,955.832 862.616,952.885 823.852,936.805 785.088,931.109 746.324,931.691 707.56,938.948 672.114,955.832 668.795,957.482 633.957,984.907 630.031,990.394 612.2,1013.98 603.718,1043.06 604.585,1072.13 615.391,1101.21 630.031,1119.06 639.097,1130.28 668.795,1152.56 683.75,1159.36 "/>
<polyline clip-path="url(#clip671)" style="stroke:#000000; stroke-linecap:round; stroke-linejoin:round; stroke-width:4; stroke-opacity:1; fill:none" points="707.56,1140.52 689.207,1130.28 668.795,1114.97 655.151,1101.21 641.268,1072.13 640.154,1043.06 651.05,1013.98 668.795,994.569 680.199,984.907 707.56,968.894 746.324,959.026 785.088,958.233 823.852,965.979 858.923,984.907 862.616,987.677 887.851,1013.98 898.178,1043.06 897.122,1072.13 883.966,1101.21 862.616,1121.73 849.734,1130.28 823.852,1143.59 785.088,1151.76 746.324,1150.93 707.56,1140.52 "/>
<polyline clip-path="url(#clip671)" style="stroke:#000000; stroke-linecap:round; stroke-linejoin:round; stroke-width:4; stroke-opacity:1; fill:none" points="747.564,1130.28 785.088,1131.49 789.605,1130.28 823.852,1120.6 851.894,1101.21 862.616,1086.07 870.982,1072.13 872.566,1043.06 862.616,1023.19 857.391,1013.98 823.852,988.826 811.578,984.907 785.088,977.444 746.324,978.632 727.737,984.907 707.56,992.949 681.7,1013.98 668.795,1039.67 667.179,1043.06 668.795,1071.2 668.843,1072.13 687.089,1101.21 707.56,1116.56 746.324,1130.25 747.564,1130.28 "/>
<polyline clip-path="url(#clip671)" style="stroke:#000000; stroke-linecap:round; stroke-linejoin:round; stroke-width:4; stroke-opacity:1; fill:none" points="746.324,1112.12 721.105,1101.21 707.56,1091.05 693.011,1072.13 691.059,1043.06 707.56,1017.35 711.153,1013.98 746.324,997.48 785.088,995.986 823.852,1010.6 828.367,1013.98 847.845,1043.06 845.853,1072.13 823.852,1098.51 819.366,1101.21 785.088,1113.58 746.324,1112.12 "/>
<polyline clip-path="url(#clip671)" style="stroke:#000000; stroke-linecap:round; stroke-linejoin:round; stroke-width:4; stroke-opacity:1; fill:none" points="785.088,1093.75 746.324,1091.21 720.883,1072.13 717.502,1043.06 746.324,1017.15 785.088,1014.17 823.595,1043.06 819.626,1072.13 785.088,1093.75 "/>
<polyline clip-path="url(#clip671)" style="stroke:#000000; stroke-linecap:round; stroke-linejoin:round; stroke-width:4; stroke-opacity:1; fill:none" points="1444.08,580.807 1439.25,577.86 1405.31,552.406 1401.38,548.785 1379.94,519.71 1372.35,490.635 1373.13,461.56 1382.8,432.486 1405.31,405.9 1407.51,403.411 1444.08,377.28 1451.39,374.336 1482.84,360.961 1521.6,354.6 1560.37,355.25 1599.13,363.355 1622.94,374.336 1637.9,381.136 1667.59,403.411 1676.66,414.627 1691.3,432.486 1702.11,461.56 1702.97,490.635 1694.49,519.71 1676.66,543.298 1672.73,548.785 1637.9,576.21 1634.58,577.86 1599.13,594.744 1560.37,602.001 1521.6,602.583 1482.84,596.887 1444.08,580.807 "/>
<polyline clip-path="url(#clip671)" style="stroke:#000000; stroke-linecap:round; stroke-linejoin:round; stroke-width:4; stroke-opacity:1; fill:none" points="1482.84,567.713 1447.77,548.785 1444.08,546.015 1418.84,519.71 1408.51,490.635 1409.57,461.56 1422.73,432.486 1444.08,411.964 1456.96,403.411 1482.84,390.101 1521.6,381.928 1560.37,382.764 1599.13,393.176 1617.49,403.411 1637.9,418.72 1651.54,432.486 1665.42,461.56 1666.54,490.635 1655.64,519.71 1637.9,539.123 1626.49,548.785 1599.13,564.798 1560.37,574.666 1521.6,575.458 1482.84,567.713 "/>
<polyline clip-path="url(#clip671)" style="stroke:#000000; stroke-linecap:round; stroke-linejoin:round; stroke-width:4; stroke-opacity:1; fill:none" points="1521.6,556.248 1495.11,548.785 1482.84,544.866 1449.3,519.71 1444.08,510.504 1434.13,490.635 1435.71,461.56 1444.08,447.62 1454.8,432.486 1482.84,413.09 1517.09,403.411 1521.6,402.198 1559.13,403.411 1560.37,403.447 1599.13,417.132 1619.6,432.486 1637.85,461.56 1637.9,462.491 1639.51,490.635 1637.9,494.024 1624.99,519.71 1599.13,540.743 1578.95,548.785 1560.37,555.06 1521.6,556.248 "/>
<polyline clip-path="url(#clip671)" style="stroke:#000000; stroke-linecap:round; stroke-linejoin:round; stroke-width:4; stroke-opacity:1; fill:none" points="1560.37,536.212 1521.6,537.706 1482.84,523.097 1478.32,519.71 1458.85,490.635 1460.84,461.56 1482.84,435.181 1487.33,432.486 1521.6,420.109 1560.37,421.574 1585.59,432.486 1599.13,442.645 1613.68,461.56 1615.63,490.635 1599.13,516.345 1595.54,519.71 1560.37,536.212 "/>
<polyline clip-path="url(#clip671)" style="stroke:#000000; stroke-linecap:round; stroke-linejoin:round; stroke-width:4; stroke-opacity:1; fill:none" points="1560.37,516.54 1521.6,519.518 1483.1,490.635 1487.07,461.56 1521.6,439.943 1560.37,442.479 1585.81,461.56 1589.19,490.635 1560.37,516.54 "/>
<polyline clip-path="url(#clip671)" style="stroke:#ff0000; stroke-linecap:round; stroke-linejoin:round; stroke-width:8; stroke-opacity:1; fill:none" stroke-dasharray="32, 20" points="683.75,1159.36 707.56,1170.34 746.324,1178.44 785.088,1179.09 823.852,1172.73 855.301,1159.36 862.616,1156.41 899.18,1130.28 901.38,1127.79 923.89,1101.21 933.566,1072.13 934.343,1043.06 926.748,1013.98 905.309,984.907 901.38,981.286 867.444,955.832 862.616,952.885 823.852,936.805 785.088,931.109 746.324,931.691 707.56,938.948 672.114,955.832 668.795,957.482 633.957,984.907 630.031,990.394 612.2,1013.98 603.718,1043.06 604.585,1072.13 615.391,1101.21 630.031,1119.06 639.097,1130.28 668.795,1152.56 683.75,1159.36 "/>
<polyline clip-path="url(#clip671)" style="stroke:#ff0000; stroke-linecap:round; stroke-linejoin:round; stroke-width:8; stroke-opacity:1; fill:none" stroke-dasharray="32, 20" points="707.56,1140.52 689.207,1130.28 668.795,1114.97 655.151,1101.21 641.268,1072.13 640.154,1043.06 651.05,1013.98 668.795,994.569 680.199,984.907 707.56,968.894 746.324,959.026 785.088,958.233 823.852,965.979 858.923,984.907 862.616,987.677 887.851,1013.98 898.178,1043.06 897.122,1072.13 883.966,1101.21 862.616,1121.73 849.734,1130.28 823.852,1143.59 785.088,1151.76 746.324,1150.93 707.56,1140.52 "/>
<polyline clip-path="url(#clip671)" style="stroke:#ff0000; stroke-linecap:round; stroke-linejoin:round; stroke-width:8; stroke-opacity:1; fill:none" stroke-dasharray="32, 20" points="747.564,1130.28 785.088,1131.49 789.605,1130.28 823.852,1120.6 851.894,1101.21 862.616,1086.07 870.982,1072.13 872.566,1043.06 862.616,1023.19 857.391,1013.98 823.852,988.826 811.578,984.907 785.088,977.444 746.324,978.632 727.737,984.907 707.56,992.949 681.7,1013.98 668.795,1039.67 667.179,1043.06 668.795,1071.2 668.843,1072.13 687.089,1101.21 707.56,1116.56 746.324,1130.25 747.564,1130.28 "/>
<polyline clip-path="url(#clip671)" style="stroke:#ff0000; stroke-linecap:round; stroke-linejoin:round; stroke-width:8; stroke-opacity:1; fill:none" stroke-dasharray="32, 20" points="746.324,1112.12 721.105,1101.21 707.56,1091.05 693.011,1072.13 691.059,1043.06 707.56,1017.35 711.153,1013.98 746.324,997.48 785.088,995.986 823.852,1010.6 828.367,1013.98 847.845,1043.06 845.853,1072.13 823.852,1098.51 819.366,1101.21 785.088,1113.58 746.324,1112.12 "/>
<polyline clip-path="url(#clip671)" style="stroke:#ff0000; stroke-linecap:round; stroke-linejoin:round; stroke-width:8; stroke-opacity:1; fill:none" stroke-dasharray="32, 20" points="785.088,1093.75 746.324,1091.21 720.883,1072.13 717.502,1043.06 746.324,1017.15 785.088,1014.17 823.595,1043.06 819.626,1072.13 785.088,1093.75 "/>
<polyline clip-path="url(#clip671)" style="stroke:#ff0000; stroke-linecap:round; stroke-linejoin:round; stroke-width:8; stroke-opacity:1; fill:none" stroke-dasharray="32, 20" points="1444.08,580.807 1439.25,577.86 1405.31,552.406 1401.38,548.785 1379.94,519.71 1372.35,490.635 1373.13,461.56 1382.8,432.486 1405.31,405.9 1407.51,403.411 1444.08,377.28 1451.39,374.336 1482.84,360.961 1521.6,354.6 1560.37,355.25 1599.13,363.355 1622.94,374.336 1637.9,381.136 1667.59,403.411 1676.66,414.627 1691.3,432.486 1702.11,461.56 1702.97,490.635 1694.49,519.71 1676.66,543.298 1672.73,548.785 1637.9,576.21 1634.58,577.86 1599.13,594.744 1560.37,602.001 1521.6,602.583 1482.84,596.887 1444.08,580.807 "/>
<polyline clip-path="url(#clip671)" style="stroke:#ff0000; stroke-linecap:round; stroke-linejoin:round; stroke-width:8; stroke-opacity:1; fill:none" stroke-dasharray="32, 20" points="1482.84,567.713 1447.77,548.785 1444.08,546.015 1418.84,519.71 1408.51,490.635 1409.57,461.56 1422.73,432.486 1444.08,411.964 1456.96,403.411 1482.84,390.101 1521.6,381.928 1560.37,382.764 1599.13,393.176 1617.49,403.411 1637.9,418.72 1651.54,432.486 1665.42,461.56 1666.54,490.635 1655.64,519.71 1637.9,539.123 1626.49,548.785 1599.13,564.798 1560.37,574.666 1521.6,575.458 1482.84,567.713 "/>
<polyline clip-path="url(#clip671)" style="stroke:#ff0000; stroke-linecap:round; stroke-linejoin:round; stroke-width:8; stroke-opacity:1; fill:none" stroke-dasharray="32, 20" points="1521.6,556.248 1495.11,548.785 1482.84,544.866 1449.3,519.71 1444.08,510.504 1434.13,490.635 1435.71,461.56 1444.08,447.62 1454.8,432.486 1482.84,413.09 1517.09,403.411 1521.6,402.198 1559.13,403.411 1560.37,403.447 1599.13,417.132 1619.6,432.486 1637.85,461.56 1637.9,462.491 1639.51,490.635 1637.9,494.024 1624.99,519.71 1599.13,540.743 1578.95,548.785 1560.37,555.06 1521.6,556.248 "/>
<polyline clip-path="url(#clip671)" style="stroke:#ff0000; stroke-linecap:round; stroke-linejoin:round; stroke-width:8; stroke-opacity:1; fill:none" stroke-dasharray="32, 20" points="1560.37,536.212 1521.6,537.706 1482.84,523.097 1478.32,519.71 1458.85,490.635 1460.84,461.56 1482.84,435.181 1487.33,432.486 1521.6,420.109 1560.37,421.574 1585.59,432.486 1599.13,442.645 1613.68,461.56 1615.63,490.635 1599.13,516.345 1595.54,519.71 1560.37,536.212 "/>
<polyline clip-path="url(#clip671)" style="stroke:#ff0000; stroke-linecap:round; stroke-linejoin:round; stroke-width:8; stroke-opacity:1; fill:none" stroke-dasharray="32, 20" points="1560.37,516.54 1521.6,519.518 1483.1,490.635 1487.07,461.56 1521.6,439.943 1560.37,442.479 1585.81,461.56 1589.19,490.635 1560.37,516.54 "/>
<circle clip-path="url(#clip671)" cx="1537.11" cy="479.005" r="14.4" fill="#000000" fill-rule="evenodd" fill-opacity="1" stroke="none"/>
<circle clip-path="url(#clip671)" cx="769.582" cy="1054.69" r="14.4" fill="#000000" fill-rule="evenodd" fill-opacity="1" stroke="none"/>
<polyline clip-path="url(#clip671)" style="stroke:#000000; stroke-linecap:round; stroke-linejoin:round; stroke-width:4; stroke-opacity:1; fill:none" points="1153.35,766.846 1153.35,766.846 "/>
<polyline clip-path="url(#clip671)" style="stroke:#ff0000; stroke-linecap:round; stroke-linejoin:round; stroke-width:4; stroke-opacity:1; fill:none" stroke-dasharray="16, 10" points="1153.35,766.846 1153.35,766.846 "/>
<defs>
  <clipPath id="clip672">
    <rect x="2160" y="47" width="73" height="1440"/>
  </clipPath>
</defs>
<polyline clip-path="url(#clip672)" style="stroke:#ff0000; stroke-linecap:round; stroke-linejoin:round; stroke-width:8; stroke-opacity:1; fill:none" stroke-dasharray="32, 20" points="2160.76,1246.58 2232.76,1246.58 "/>
<polyline clip-path="url(#clip672)" style="stroke:#ff0000; stroke-linecap:round; stroke-linejoin:round; stroke-width:8; stroke-opacity:1; fill:none" stroke-dasharray="32, 20" points="2160.76,1006.71 2232.76,1006.71 "/>
<polyline clip-path="url(#clip672)" style="stroke:#ff0000; stroke-linecap:round; stroke-linejoin:round; stroke-width:8; stroke-opacity:1; fill:none" stroke-dasharray="32, 20" points="2160.76,766.846 2232.76,766.846 "/>
<polyline clip-path="url(#clip672)" style="stroke:#ff0000; stroke-linecap:round; stroke-linejoin:round; stroke-width:8; stroke-opacity:1; fill:none" stroke-dasharray="32, 20" points="2160.76,526.979 2232.76,526.979 "/>
<polyline clip-path="url(#clip672)" style="stroke:#ff0000; stroke-linecap:round; stroke-linejoin:round; stroke-width:8; stroke-opacity:1; fill:none" stroke-dasharray="32, 20" points="2160.76,287.111 2232.76,287.111 "/>
<path clip-path="url(#clip670)" d="M2269.43 1346.68 L2277.07 1346.68 L2277.07 1320.31 L2268.76 1321.98 L2268.76 1317.72 L2277.02 1316.05 L2281.7 1316.05 L2281.7 1346.68 L2289.33 1346.68 L2289.33 1350.61 L2269.43 1350.61 L2269.43 1346.68 Z" fill="#000000" fill-rule="nonzero" fill-opacity="1" /><polyline clip-path="url(#clip670)" style="stroke:#000000; stroke-linecap:round; stroke-linejoin:round; stroke-width:4; stroke-opacity:1; fill:none" points="2232.76,1336.96 2256.76,1336.96 "/>
<path clip-path="url(#clip670)" d="M2274.38 1197.19 L2290.7 1197.19 L2290.7 1201.13 L2268.76 1201.13 L2268.76 1197.19 Q2271.42 1194.44 2276 1189.81 Q2280.61 1185.15 2281.79 1183.81 Q2284.03 1181.29 2284.91 1179.55 Q2285.82 1177.79 2285.82 1176.1 Q2285.82 1173.35 2283.87 1171.61 Q2281.95 1169.88 2278.85 1169.88 Q2276.65 1169.88 2274.2 1170.64 Q2271.77 1171.4 2268.99 1172.96 L2268.99 1168.23 Q2271.81 1167.1 2274.27 1166.52 Q2276.72 1165.94 2278.76 1165.94 Q2284.13 1165.94 2287.32 1168.63 Q2290.52 1171.31 2290.52 1175.8 Q2290.52 1177.93 2289.7 1179.85 Q2288.92 1181.75 2286.81 1184.34 Q2286.23 1185.02 2283.13 1188.23 Q2280.03 1191.43 2274.38 1197.19 Z" fill="#000000" fill-rule="nonzero" fill-opacity="1" /><polyline clip-path="url(#clip670)" style="stroke:#000000; stroke-linecap:round; stroke-linejoin:round; stroke-width:4; stroke-opacity:1; fill:none" points="2232.76,1187.48 2256.76,1187.48 "/>
<path clip-path="url(#clip670)" d="M2284.38 1033.01 Q2287.74 1033.72 2289.61 1035.99 Q2291.51 1038.26 2291.51 1041.59 Q2291.51 1046.71 2287.99 1049.51 Q2284.47 1052.31 2277.99 1052.31 Q2275.82 1052.31 2273.5 1051.87 Q2271.21 1051.45 2268.76 1050.6 L2268.76 1046.08 Q2270.7 1047.22 2273.02 1047.8 Q2275.33 1048.38 2277.85 1048.38 Q2282.25 1048.38 2284.54 1046.64 Q2286.86 1044.9 2286.86 1041.59 Q2286.86 1038.54 2284.7 1036.83 Q2282.58 1035.09 2278.76 1035.09 L2274.73 1035.09 L2274.73 1031.25 L2278.94 1031.25 Q2282.39 1031.25 2284.22 1029.88 Q2286.05 1028.49 2286.05 1025.9 Q2286.05 1023.24 2284.15 1021.83 Q2282.27 1020.39 2278.76 1020.39 Q2276.83 1020.39 2274.64 1020.81 Q2272.44 1021.22 2269.8 1022.1 L2269.8 1017.94 Q2272.46 1017.2 2274.77 1016.83 Q2277.11 1016.45 2279.17 1016.45 Q2284.5 1016.45 2287.6 1018.89 Q2290.7 1021.29 2290.7 1025.41 Q2290.7 1028.28 2289.06 1030.27 Q2287.41 1032.24 2284.38 1033.01 Z" fill="#000000" fill-rule="nonzero" fill-opacity="1" /><polyline clip-path="url(#clip670)" style="stroke:#000000; stroke-linecap:round; stroke-linejoin:round; stroke-width:4; stroke-opacity:1; fill:none" points="2232.76,1037.99 2256.76,1037.99 "/>
<path clip-path="url(#clip670)" d="M2284.36 871.667 L2272.55 890.116 L2284.36 890.116 L2284.36 871.667 M2283.13 867.593 L2289.01 867.593 L2289.01 890.116 L2293.94 890.116 L2293.94 894.005 L2289.01 894.005 L2289.01 902.153 L2284.36 902.153 L2284.36 894.005 L2268.76 894.005 L2268.76 889.491 L2283.13 867.593 Z" fill="#000000" fill-rule="nonzero" fill-opacity="1" /><polyline clip-path="url(#clip670)" style="stroke:#000000; stroke-linecap:round; stroke-linejoin:round; stroke-width:4; stroke-opacity:1; fill:none" points="2232.76,888.502 2256.76,888.502 "/>
<path clip-path="url(#clip670)" d="M2270.21 718.107 L2288.57 718.107 L2288.57 722.042 L2274.5 722.042 L2274.5 730.514 Q2275.52 730.167 2276.53 730.005 Q2277.55 729.82 2278.57 729.82 Q2284.36 729.82 2287.74 732.991 Q2291.12 736.162 2291.12 741.579 Q2291.12 747.158 2287.64 750.26 Q2284.17 753.338 2277.85 753.338 Q2275.68 753.338 2273.41 752.968 Q2271.16 752.598 2268.76 751.857 L2268.76 747.158 Q2270.84 748.292 2273.06 748.848 Q2275.28 749.403 2277.76 749.403 Q2281.77 749.403 2284.1 747.297 Q2286.44 745.19 2286.44 741.579 Q2286.44 737.968 2284.1 735.862 Q2281.77 733.755 2277.76 733.755 Q2275.89 733.755 2274.01 734.172 Q2272.16 734.588 2270.21 735.468 L2270.21 718.107 Z" fill="#000000" fill-rule="nonzero" fill-opacity="1" /><polyline clip-path="url(#clip670)" style="stroke:#000000; stroke-linecap:round; stroke-linejoin:round; stroke-width:4; stroke-opacity:1; fill:none" points="2232.76,739.016 2256.76,739.016 "/>
<path clip-path="url(#clip670)" d="M2281.09 584.037 Q2277.95 584.037 2276.09 586.19 Q2274.27 588.343 2274.27 592.093 Q2274.27 595.819 2276.09 597.995 Q2277.95 600.148 2281.09 600.148 Q2284.24 600.148 2286.07 597.995 Q2287.92 595.819 2287.92 592.093 Q2287.92 588.343 2286.07 586.19 Q2284.24 584.037 2281.09 584.037 M2290.38 569.384 L2290.38 573.644 Q2288.62 572.81 2286.81 572.371 Q2285.03 571.931 2283.27 571.931 Q2278.64 571.931 2276.19 575.056 Q2273.76 578.181 2273.41 584.5 Q2274.77 582.486 2276.83 581.421 Q2278.89 580.333 2281.37 580.333 Q2286.58 580.333 2289.59 583.505 Q2292.62 586.653 2292.62 592.093 Q2292.62 597.417 2289.47 600.634 Q2286.33 603.852 2281.09 603.852 Q2275.1 603.852 2271.93 599.269 Q2268.76 594.662 2268.76 585.935 Q2268.76 577.741 2272.64 572.88 Q2276.53 567.996 2283.08 567.996 Q2284.84 567.996 2286.63 568.343 Q2288.43 568.69 2290.38 569.384 Z" fill="#000000" fill-rule="nonzero" fill-opacity="1" /><polyline clip-path="url(#clip670)" style="stroke:#000000; stroke-linecap:round; stroke-linejoin:round; stroke-width:4; stroke-opacity:1; fill:none" points="2232.76,589.529 2256.76,589.529 "/>
<path clip-path="url(#clip670)" d="M2268.76 419.134 L2290.98 419.134 L2290.98 421.125 L2278.43 453.694 L2273.55 453.694 L2285.35 423.069 L2268.76 423.069 L2268.76 419.134 Z" fill="#000000" fill-rule="nonzero" fill-opacity="1" /><polyline clip-path="url(#clip670)" style="stroke:#000000; stroke-linecap:round; stroke-linejoin:round; stroke-width:4; stroke-opacity:1; fill:none" points="2232.76,440.043 2256.76,440.043 "/>
<path clip-path="url(#clip670)" d="M2280.61 287.796 Q2277.27 287.796 2275.35 289.578 Q2273.45 291.361 2273.45 294.486 Q2273.45 297.611 2275.35 299.393 Q2277.27 301.175 2280.61 301.175 Q2283.94 301.175 2285.86 299.393 Q2287.78 297.587 2287.78 294.486 Q2287.78 291.361 2285.86 289.578 Q2283.96 287.796 2280.61 287.796 M2275.93 285.805 Q2272.92 285.064 2271.23 283.004 Q2269.57 280.944 2269.57 277.981 Q2269.57 273.838 2272.51 271.43 Q2275.47 269.023 2280.61 269.023 Q2285.77 269.023 2288.71 271.43 Q2291.65 273.838 2291.65 277.981 Q2291.65 280.944 2289.96 283.004 Q2288.29 285.064 2285.31 285.805 Q2288.69 286.592 2290.56 288.884 Q2292.46 291.175 2292.46 294.486 Q2292.46 299.509 2289.38 302.194 Q2286.33 304.879 2280.61 304.879 Q2274.89 304.879 2271.81 302.194 Q2268.76 299.509 2268.76 294.486 Q2268.76 291.175 2270.65 288.884 Q2272.55 286.592 2275.93 285.805 M2274.22 278.421 Q2274.22 281.106 2275.89 282.611 Q2277.58 284.115 2280.61 284.115 Q2283.62 284.115 2285.31 282.611 Q2287.02 281.106 2287.02 278.421 Q2287.02 275.736 2285.31 274.231 Q2283.62 272.726 2280.61 272.726 Q2277.58 272.726 2275.89 274.231 Q2274.22 275.736 2274.22 278.421 Z" fill="#000000" fill-rule="nonzero" fill-opacity="1" /><polyline clip-path="url(#clip670)" style="stroke:#000000; stroke-linecap:round; stroke-linejoin:round; stroke-width:4; stroke-opacity:1; fill:none" points="2232.76,290.557 2256.76,290.557 "/>
<path clip-path="url(#clip670)" d="M2270.98 154.004 L2270.98 149.744 Q2272.74 150.578 2274.54 151.018 Q2276.35 151.457 2278.08 151.457 Q2282.71 151.457 2285.14 148.356 Q2287.6 145.231 2287.95 138.888 Q2286.6 140.879 2284.54 141.944 Q2282.48 143.008 2279.98 143.008 Q2274.8 143.008 2271.77 139.883 Q2268.76 136.735 2268.76 131.295 Q2268.76 125.971 2271.9 122.754 Q2275.05 119.536 2280.28 119.536 Q2286.28 119.536 2289.43 124.143 Q2292.6 128.726 2292.6 137.476 Q2292.6 145.647 2288.71 150.532 Q2284.84 155.393 2278.29 155.393 Q2276.53 155.393 2274.73 155.045 Q2272.92 154.698 2270.98 154.004 M2280.28 139.351 Q2283.43 139.351 2285.26 137.198 Q2287.11 135.045 2287.11 131.295 Q2287.11 127.569 2285.26 125.416 Q2283.43 123.24 2280.28 123.24 Q2277.14 123.24 2275.28 125.416 Q2273.45 127.569 2273.45 131.295 Q2273.45 135.045 2275.28 137.198 Q2277.14 139.351 2280.28 139.351 Z" fill="#000000" fill-rule="nonzero" fill-opacity="1" /><polyline clip-path="url(#clip670)" style="stroke:#000000; stroke-linecap:round; stroke-linejoin:round; stroke-width:4; stroke-opacity:1; fill:none" points="2232.76,141.07 2256.76,141.07 "/>
<polyline clip-path="url(#clip670)" style="stroke:#000000; stroke-linecap:round; stroke-linejoin:round; stroke-width:4; stroke-opacity:1; fill:none" points="2232.76,1486.45 2232.76,47.2441 "/>
<path clip-path="url(#clip670)" d="M257.897 302.578 L850.077 302.578 L850.077 95.2176 L257.897 95.2176  Z" fill="#ffffff" fill-rule="evenodd" fill-opacity="1"/>
<polyline clip-path="url(#clip670)" style="stroke:#000000; stroke-linecap:round; stroke-linejoin:round; stroke-width:4; stroke-opacity:1; fill:none" points="257.897,302.578 850.077,302.578 850.077,95.2176 257.897,95.2176 257.897,302.578 "/>
<circle clip-path="url(#clip670)" cx="343.178" cy="147.058" r="20.48" fill="#000000" fill-rule="evenodd" fill-opacity="1" stroke="none"/>
<path clip-path="url(#clip670)" d="M428.458 129.778 L435.426 129.778 L444.245 153.296 L453.111 129.778 L460.079 129.778 L460.079 164.338 L455.518 164.338 L455.518 133.99 L446.606 157.694 L441.907 157.694 L432.995 133.99 L432.995 164.338 L428.458 164.338 L428.458 129.778 Z" fill="#000000" fill-rule="nonzero" fill-opacity="1" /><path clip-path="url(#clip670)" d="M480.912 134.384 L474.569 151.583 L487.278 151.583 L480.912 134.384 M478.273 129.778 L483.574 129.778 L496.745 164.338 L491.884 164.338 L488.736 155.472 L473.157 155.472 L470.009 164.338 L465.079 164.338 L478.273 129.778 Z" fill="#000000" fill-rule="nonzero" fill-opacity="1" /><path clip-path="url(#clip670)" d="M506.467 133.62 L506.467 146.606 L512.347 146.606 Q515.611 146.606 517.393 144.916 Q519.176 143.227 519.176 140.102 Q519.176 137 517.393 135.31 Q515.611 133.62 512.347 133.62 L506.467 133.62 M501.791 129.778 L512.347 129.778 Q518.157 129.778 521.12 132.416 Q524.106 135.032 524.106 140.102 Q524.106 145.217 521.12 147.833 Q518.157 150.449 512.347 150.449 L506.467 150.449 L506.467 164.338 L501.791 164.338 L501.791 129.778 Z" fill="#000000" fill-rule="nonzero" fill-opacity="1" /><path clip-path="url(#clip670)" d="M567.439 150.31 L567.439 152.393 L547.856 152.393 Q548.134 156.791 550.495 159.106 Q552.879 161.398 557.115 161.398 Q559.569 161.398 561.86 160.796 Q564.175 160.194 566.444 158.99 L566.444 163.018 Q564.152 163.99 561.745 164.5 Q559.337 165.009 556.861 165.009 Q550.657 165.009 547.023 161.398 Q543.412 157.787 543.412 151.629 Q543.412 145.264 546.837 141.537 Q550.286 137.787 556.12 137.787 Q561.351 137.787 564.384 141.166 Q567.439 144.523 567.439 150.31 M563.18 149.06 Q563.134 145.565 561.212 143.481 Q559.314 141.398 556.166 141.398 Q552.601 141.398 550.449 143.412 Q548.319 145.426 547.995 149.083 L563.18 149.06 Z" fill="#000000" fill-rule="nonzero" fill-opacity="1" /><path clip-path="url(#clip670)" d="M590.958 139.176 L590.958 143.203 Q589.152 142.277 587.208 141.815 Q585.263 141.352 583.18 141.352 Q580.009 141.352 578.411 142.324 Q576.837 143.296 576.837 145.24 Q576.837 146.722 577.972 147.578 Q579.106 148.412 582.532 149.176 L583.99 149.5 Q588.527 150.472 590.425 152.254 Q592.346 154.014 592.346 157.185 Q592.346 160.796 589.476 162.902 Q586.629 165.009 581.629 165.009 Q579.546 165.009 577.277 164.592 Q575.032 164.199 572.532 163.388 L572.532 158.99 Q574.893 160.217 577.184 160.842 Q579.476 161.444 581.721 161.444 Q584.731 161.444 586.351 160.426 Q587.971 159.384 587.971 157.509 Q587.971 155.773 586.791 154.847 Q585.634 153.921 581.675 153.064 L580.194 152.717 Q576.235 151.884 574.476 150.171 Q572.717 148.435 572.717 145.426 Q572.717 141.768 575.309 139.778 Q577.902 137.787 582.671 137.787 Q585.032 137.787 587.115 138.134 Q589.198 138.481 590.958 139.176 Z" fill="#000000" fill-rule="nonzero" fill-opacity="1" /><path clip-path="url(#clip670)" d="M603.342 131.051 L603.342 138.412 L612.115 138.412 L612.115 141.722 L603.342 141.722 L603.342 155.796 Q603.342 158.967 604.198 159.87 Q605.078 160.773 607.74 160.773 L612.115 160.773 L612.115 164.338 L607.74 164.338 Q602.809 164.338 600.934 162.509 Q599.059 160.657 599.059 155.796 L599.059 141.722 L595.934 141.722 L595.934 138.412 L599.059 138.412 L599.059 131.051 L603.342 131.051 Z" fill="#000000" fill-rule="nonzero" fill-opacity="1" /><path clip-path="url(#clip670)" d="M617.717 138.412 L621.976 138.412 L621.976 164.338 L617.717 164.338 L617.717 138.412 M617.717 128.319 L621.976 128.319 L621.976 133.713 L617.717 133.713 L617.717 128.319 Z" fill="#000000" fill-rule="nonzero" fill-opacity="1" /><path clip-path="url(#clip670)" d="M651.073 143.389 Q652.67 140.518 654.892 139.153 Q657.115 137.787 660.124 137.787 Q664.175 137.787 666.374 140.634 Q668.573 143.458 668.573 148.689 L668.573 164.338 L664.291 164.338 L664.291 148.828 Q664.291 145.102 662.971 143.296 Q661.652 141.49 658.943 141.49 Q655.633 141.49 653.712 143.69 Q651.791 145.889 651.791 149.685 L651.791 164.338 L647.508 164.338 L647.508 148.828 Q647.508 145.078 646.189 143.296 Q644.869 141.49 642.115 141.49 Q638.851 141.49 636.93 143.713 Q635.008 145.912 635.008 149.685 L635.008 164.338 L630.726 164.338 L630.726 138.412 L635.008 138.412 L635.008 142.44 Q636.467 140.055 638.504 138.921 Q640.541 137.787 643.342 137.787 Q646.166 137.787 648.133 139.222 Q650.124 140.657 651.073 143.389 Z" fill="#000000" fill-rule="nonzero" fill-opacity="1" /><path clip-path="url(#clip670)" d="M688.851 151.305 Q683.689 151.305 681.698 152.486 Q679.707 153.666 679.707 156.514 Q679.707 158.782 681.189 160.125 Q682.693 161.444 685.263 161.444 Q688.804 161.444 690.934 158.944 Q693.087 156.421 693.087 152.254 L693.087 151.305 L688.851 151.305 M697.346 149.546 L697.346 164.338 L693.087 164.338 L693.087 160.402 Q691.628 162.763 689.452 163.898 Q687.276 165.009 684.128 165.009 Q680.147 165.009 677.786 162.787 Q675.448 160.541 675.448 156.791 Q675.448 152.416 678.364 150.194 Q681.304 147.972 687.114 147.972 L693.087 147.972 L693.087 147.555 Q693.087 144.615 691.142 143.018 Q689.221 141.398 685.726 141.398 Q683.503 141.398 681.397 141.93 Q679.29 142.463 677.346 143.527 L677.346 139.592 Q679.684 138.69 681.883 138.25 Q684.082 137.787 686.165 137.787 Q691.79 137.787 694.568 140.703 Q697.346 143.62 697.346 149.546 Z" fill="#000000" fill-rule="nonzero" fill-opacity="1" /><path clip-path="url(#clip670)" d="M710.332 131.051 L710.332 138.412 L719.105 138.412 L719.105 141.722 L710.332 141.722 L710.332 155.796 Q710.332 158.967 711.188 159.87 Q712.068 160.773 714.73 160.773 L719.105 160.773 L719.105 164.338 L714.73 164.338 Q709.8 164.338 707.925 162.509 Q706.05 160.657 706.05 155.796 L706.05 141.722 L702.925 141.722 L702.925 138.412 L706.05 138.412 L706.05 131.051 L710.332 131.051 Z" fill="#000000" fill-rule="nonzero" fill-opacity="1" /><path clip-path="url(#clip670)" d="M746.883 150.31 L746.883 152.393 L727.299 152.393 Q727.577 156.791 729.938 159.106 Q732.323 161.398 736.559 161.398 Q739.012 161.398 741.304 160.796 Q743.619 160.194 745.887 158.99 L745.887 163.018 Q743.596 163.99 741.188 164.5 Q738.781 165.009 736.304 165.009 Q730.1 165.009 726.466 161.398 Q722.855 157.787 722.855 151.629 Q722.855 145.264 726.281 141.537 Q729.73 137.787 735.563 137.787 Q740.795 137.787 743.827 141.166 Q746.883 144.523 746.883 150.31 M742.623 149.06 Q742.577 145.565 740.656 143.481 Q738.758 141.398 735.61 141.398 Q732.045 141.398 729.892 143.412 Q727.762 145.426 727.438 149.083 L742.623 149.06 Z" fill="#000000" fill-rule="nonzero" fill-opacity="1" /><polyline clip-path="url(#clip670)" style="stroke:#000000; stroke-linecap:round; stroke-linejoin:round; stroke-width:4; stroke-opacity:1; fill:none" points="279.217,198.898 407.138,198.898 "/>
<path clip-path="url(#clip670)" d="M433.134 185.46 L433.134 198.446 L439.014 198.446 Q442.278 198.446 444.06 196.756 Q445.843 195.067 445.843 191.942 Q445.843 188.84 444.06 187.15 Q442.278 185.46 439.014 185.46 L433.134 185.46 M428.458 181.618 L439.014 181.618 Q444.824 181.618 447.787 184.256 Q450.773 186.872 450.773 191.942 Q450.773 197.057 447.787 199.673 Q444.824 202.289 439.014 202.289 L433.134 202.289 L433.134 216.178 L428.458 216.178 L428.458 181.618 Z" fill="#000000" fill-rule="nonzero" fill-opacity="1" /><path clip-path="url(#clip670)" d="M465.217 193.238 Q461.792 193.238 459.801 195.923 Q457.81 198.585 457.81 203.238 Q457.81 207.891 459.778 210.576 Q461.768 213.238 465.217 213.238 Q468.62 213.238 470.611 210.553 Q472.602 207.867 472.602 203.238 Q472.602 198.631 470.611 195.946 Q468.62 193.238 465.217 193.238 M465.217 189.627 Q470.773 189.627 473.944 193.238 Q477.116 196.849 477.116 203.238 Q477.116 209.604 473.944 213.238 Q470.773 216.849 465.217 216.849 Q459.639 216.849 456.468 213.238 Q453.319 209.604 453.319 203.238 Q453.319 196.849 456.468 193.238 Q459.639 189.627 465.217 189.627 Z" fill="#000000" fill-rule="nonzero" fill-opacity="1" /><path clip-path="url(#clip670)" d="M500.703 191.016 L500.703 195.043 Q498.898 194.117 496.953 193.655 Q495.009 193.192 492.926 193.192 Q489.754 193.192 488.157 194.164 Q486.583 195.136 486.583 197.08 Q486.583 198.562 487.717 199.418 Q488.852 200.252 492.278 201.016 L493.736 201.34 Q498.273 202.312 500.171 204.094 Q502.092 205.854 502.092 209.025 Q502.092 212.636 499.222 214.742 Q496.375 216.849 491.375 216.849 Q489.291 216.849 487.023 216.432 Q484.778 216.039 482.278 215.228 L482.278 210.83 Q484.639 212.057 486.93 212.682 Q489.222 213.284 491.467 213.284 Q494.477 213.284 496.097 212.266 Q497.717 211.224 497.717 209.349 Q497.717 207.613 496.537 206.687 Q495.379 205.761 491.421 204.904 L489.94 204.557 Q485.981 203.724 484.222 202.011 Q482.463 200.275 482.463 197.266 Q482.463 193.608 485.055 191.618 Q487.648 189.627 492.416 189.627 Q494.778 189.627 496.861 189.974 Q498.944 190.321 500.703 191.016 Z" fill="#000000" fill-rule="nonzero" fill-opacity="1" /><path clip-path="url(#clip670)" d="M513.088 182.891 L513.088 190.252 L521.861 190.252 L521.861 193.562 L513.088 193.562 L513.088 207.636 Q513.088 210.807 513.944 211.71 Q514.824 212.613 517.486 212.613 L521.861 212.613 L521.861 216.178 L517.486 216.178 Q512.555 216.178 510.68 214.349 Q508.805 212.497 508.805 207.636 L508.805 193.562 L505.68 193.562 L505.68 190.252 L508.805 190.252 L508.805 182.891 L513.088 182.891 Z" fill="#000000" fill-rule="nonzero" fill-opacity="1" /><path clip-path="url(#clip670)" d="M549.638 202.15 L549.638 204.233 L530.055 204.233 Q530.333 208.631 532.694 210.946 Q535.078 213.238 539.314 213.238 Q541.768 213.238 544.06 212.636 Q546.374 212.034 548.643 210.83 L548.643 214.858 Q546.351 215.83 543.944 216.34 Q541.537 216.849 539.06 216.849 Q532.856 216.849 529.222 213.238 Q525.611 209.627 525.611 203.469 Q525.611 197.104 529.037 193.377 Q532.486 189.627 538.319 189.627 Q543.55 189.627 546.583 193.006 Q549.638 196.363 549.638 202.15 M545.379 200.9 Q545.333 197.405 543.412 195.321 Q541.513 193.238 538.365 193.238 Q534.8 193.238 532.648 195.252 Q530.518 197.266 530.194 200.923 L545.379 200.9 Z" fill="#000000" fill-rule="nonzero" fill-opacity="1" /><path clip-path="url(#clip670)" d="M571.652 194.233 Q570.935 193.817 570.078 193.631 Q569.245 193.423 568.226 193.423 Q564.615 193.423 562.671 195.784 Q560.749 198.122 560.749 202.52 L560.749 216.178 L556.467 216.178 L556.467 190.252 L560.749 190.252 L560.749 194.28 Q562.092 191.918 564.245 190.784 Q566.398 189.627 569.476 189.627 Q569.916 189.627 570.448 189.696 Q570.981 189.743 571.629 189.858 L571.652 194.233 Z" fill="#000000" fill-rule="nonzero" fill-opacity="1" /><path clip-path="url(#clip670)" d="M576.12 190.252 L580.379 190.252 L580.379 216.178 L576.12 216.178 L576.12 190.252 M576.12 180.159 L580.379 180.159 L580.379 185.553 L576.12 185.553 L576.12 180.159 Z" fill="#000000" fill-rule="nonzero" fill-opacity="1" /><path clip-path="url(#clip670)" d="M599.337 193.238 Q595.911 193.238 593.921 195.923 Q591.93 198.585 591.93 203.238 Q591.93 207.891 593.897 210.576 Q595.888 213.238 599.337 213.238 Q602.74 213.238 604.731 210.553 Q606.721 207.867 606.721 203.238 Q606.721 198.631 604.731 195.946 Q602.74 193.238 599.337 193.238 M599.337 189.627 Q604.893 189.627 608.064 193.238 Q611.235 196.849 611.235 203.238 Q611.235 209.604 608.064 213.238 Q604.893 216.849 599.337 216.849 Q593.758 216.849 590.587 213.238 Q587.439 209.604 587.439 203.238 Q587.439 196.849 590.587 193.238 Q593.758 189.627 599.337 189.627 Z" fill="#000000" fill-rule="nonzero" fill-opacity="1" /><path clip-path="url(#clip670)" d="M633.318 194.233 Q632.601 193.817 631.744 193.631 Q630.911 193.423 629.893 193.423 Q626.281 193.423 624.337 195.784 Q622.416 198.122 622.416 202.52 L622.416 216.178 L618.133 216.178 L618.133 190.252 L622.416 190.252 L622.416 194.28 Q623.758 191.918 625.911 190.784 Q628.064 189.627 631.143 189.627 Q631.582 189.627 632.115 189.696 Q632.647 189.743 633.295 189.858 L633.318 194.233 Z" fill="#000000" fill-rule="nonzero" fill-opacity="1" /><polyline clip-path="url(#clip670)" style="stroke:#ff0000; stroke-linecap:round; stroke-linejoin:round; stroke-width:4; stroke-opacity:1; fill:none" stroke-dasharray="16, 10" points="279.217,250.738 407.138,250.738 "/>
<path clip-path="url(#clip670)" d="M428.458 233.458 L433.134 233.458 L433.134 264.082 L449.963 264.082 L449.963 268.018 L428.458 268.018 L428.458 233.458 Z" fill="#000000" fill-rule="nonzero" fill-opacity="1" /><path clip-path="url(#clip670)" d="M466.467 254.985 Q461.305 254.985 459.315 256.166 Q457.324 257.346 457.324 260.194 Q457.324 262.462 458.805 263.805 Q460.31 265.124 462.88 265.124 Q466.421 265.124 468.551 262.624 Q470.704 260.101 470.704 255.934 L470.704 254.985 L466.467 254.985 M474.963 253.226 L474.963 268.018 L470.704 268.018 L470.704 264.082 Q469.245 266.443 467.069 267.578 Q464.893 268.689 461.745 268.689 Q457.764 268.689 455.403 266.467 Q453.065 264.221 453.065 260.471 Q453.065 256.096 455.981 253.874 Q458.921 251.652 464.731 251.652 L470.704 251.652 L470.704 251.235 Q470.704 248.295 468.759 246.698 Q466.838 245.078 463.343 245.078 Q461.12 245.078 459.014 245.61 Q456.907 246.143 454.963 247.207 L454.963 243.272 Q457.301 242.37 459.5 241.93 Q461.699 241.467 463.782 241.467 Q469.407 241.467 472.185 244.383 Q474.963 247.3 474.963 253.226 Z" fill="#000000" fill-rule="nonzero" fill-opacity="1" /><path clip-path="url(#clip670)" d="M487.856 264.129 L487.856 277.879 L483.574 277.879 L483.574 242.092 L487.856 242.092 L487.856 246.027 Q489.199 243.712 491.236 242.601 Q493.296 241.467 496.143 241.467 Q500.865 241.467 503.805 245.217 Q506.768 248.967 506.768 255.078 Q506.768 261.189 503.805 264.939 Q500.865 268.689 496.143 268.689 Q493.296 268.689 491.236 267.578 Q489.199 266.443 487.856 264.129 M502.347 255.078 Q502.347 250.379 500.402 247.717 Q498.481 245.032 495.102 245.032 Q491.722 245.032 489.778 247.717 Q487.856 250.379 487.856 255.078 Q487.856 259.777 489.778 262.462 Q491.722 265.124 495.102 265.124 Q498.481 265.124 500.402 262.462 Q502.347 259.777 502.347 255.078 Z" fill="#000000" fill-rule="nonzero" fill-opacity="1" /><path clip-path="url(#clip670)" d="M513.828 231.999 L518.088 231.999 L518.088 268.018 L513.828 268.018 L513.828 231.999 Z" fill="#000000" fill-rule="nonzero" fill-opacity="1" /><path clip-path="url(#clip670)" d="M538.782 254.985 Q533.62 254.985 531.629 256.166 Q529.638 257.346 529.638 260.194 Q529.638 262.462 531.12 263.805 Q532.625 265.124 535.194 265.124 Q538.736 265.124 540.865 262.624 Q543.018 260.101 543.018 255.934 L543.018 254.985 L538.782 254.985 M547.277 253.226 L547.277 268.018 L543.018 268.018 L543.018 264.082 Q541.56 266.443 539.384 267.578 Q537.208 268.689 534.06 268.689 Q530.078 268.689 527.717 266.467 Q525.379 264.221 525.379 260.471 Q525.379 256.096 528.296 253.874 Q531.236 251.652 537.046 251.652 L543.018 251.652 L543.018 251.235 Q543.018 248.295 541.074 246.698 Q539.152 245.078 535.657 245.078 Q533.435 245.078 531.328 245.61 Q529.222 246.143 527.277 247.207 L527.277 243.272 Q529.615 242.37 531.814 241.93 Q534.013 241.467 536.097 241.467 Q541.722 241.467 544.499 244.383 Q547.277 247.3 547.277 253.226 Z" fill="#000000" fill-rule="nonzero" fill-opacity="1" /><path clip-path="url(#clip670)" d="M574.708 243.087 L574.708 247.069 Q572.902 246.073 571.073 245.587 Q569.268 245.078 567.416 245.078 Q563.273 245.078 560.981 247.717 Q558.689 250.332 558.689 255.078 Q558.689 259.823 560.981 262.462 Q563.273 265.078 567.416 265.078 Q569.268 265.078 571.073 264.592 Q572.902 264.082 574.708 263.087 L574.708 267.022 Q572.925 267.856 571.004 268.272 Q569.106 268.689 566.953 268.689 Q561.097 268.689 557.648 265.008 Q554.198 261.328 554.198 255.078 Q554.198 248.735 557.671 245.101 Q561.166 241.467 567.231 241.467 Q569.198 241.467 571.073 241.883 Q572.948 242.277 574.708 243.087 Z" fill="#000000" fill-rule="nonzero" fill-opacity="1" /><path clip-path="url(#clip670)" d="M604.291 253.99 L604.291 256.073 L584.708 256.073 Q584.985 260.471 587.346 262.786 Q589.731 265.078 593.967 265.078 Q596.42 265.078 598.712 264.476 Q601.027 263.874 603.295 262.67 L603.295 266.698 Q601.004 267.67 598.596 268.18 Q596.189 268.689 593.712 268.689 Q587.509 268.689 583.874 265.078 Q580.263 261.467 580.263 255.309 Q580.263 248.944 583.689 245.217 Q587.138 241.467 592.971 241.467 Q598.203 241.467 601.235 244.846 Q604.291 248.203 604.291 253.99 M600.032 252.74 Q599.985 249.245 598.064 247.161 Q596.166 245.078 593.018 245.078 Q589.453 245.078 587.3 247.092 Q585.171 249.106 584.846 252.763 L600.032 252.74 Z" fill="#000000" fill-rule="nonzero" fill-opacity="1" /><path clip-path="url(#clip670)" d="M626.536 233.458 L648.388 233.458 L648.388 237.393 L631.212 237.393 L631.212 247.624 L647.67 247.624 L647.67 251.559 L631.212 251.559 L631.212 264.082 L648.804 264.082 L648.804 268.018 L626.536 268.018 L626.536 233.458 Z" fill="#000000" fill-rule="nonzero" fill-opacity="1" /><path clip-path="url(#clip670)" d="M672.832 242.856 L672.832 246.883 Q671.027 245.957 669.082 245.495 Q667.138 245.032 665.054 245.032 Q661.883 245.032 660.286 246.004 Q658.712 246.976 658.712 248.92 Q658.712 250.402 659.846 251.258 Q660.98 252.092 664.406 252.856 L665.865 253.18 Q670.402 254.152 672.3 255.934 Q674.221 257.694 674.221 260.865 Q674.221 264.476 671.351 266.582 Q668.503 268.689 663.503 268.689 Q661.42 268.689 659.152 268.272 Q656.906 267.879 654.406 267.068 L654.406 262.67 Q656.767 263.897 659.059 264.522 Q661.351 265.124 663.596 265.124 Q666.605 265.124 668.226 264.106 Q669.846 263.064 669.846 261.189 Q669.846 259.453 668.665 258.527 Q667.508 257.601 663.55 256.744 L662.068 256.397 Q658.11 255.564 656.351 253.851 Q654.591 252.115 654.591 249.106 Q654.591 245.448 657.184 243.458 Q659.777 241.467 664.545 241.467 Q666.906 241.467 668.99 241.814 Q671.073 242.161 672.832 242.856 Z" fill="#000000" fill-rule="nonzero" fill-opacity="1" /><path clip-path="url(#clip670)" d="M685.216 234.731 L685.216 242.092 L693.989 242.092 L693.989 245.402 L685.216 245.402 L685.216 259.476 Q685.216 262.647 686.073 263.55 Q686.952 264.453 689.614 264.453 L693.989 264.453 L693.989 268.018 L689.614 268.018 Q684.684 268.018 682.809 266.189 Q680.934 264.337 680.934 259.476 L680.934 245.402 L677.809 245.402 L677.809 242.092 L680.934 242.092 L680.934 234.731 L685.216 234.731 Z" fill="#000000" fill-rule="nonzero" fill-opacity="1" /><path clip-path="url(#clip670)" d="M699.591 242.092 L703.85 242.092 L703.85 268.018 L699.591 268.018 L699.591 242.092 M699.591 231.999 L703.85 231.999 L703.85 237.393 L699.591 237.393 L699.591 231.999 Z" fill="#000000" fill-rule="nonzero" fill-opacity="1" /><path clip-path="url(#clip670)" d="M732.948 247.069 Q734.545 244.198 736.767 242.833 Q738.989 241.467 741.998 241.467 Q746.049 241.467 748.248 244.314 Q750.447 247.138 750.447 252.369 L750.447 268.018 L746.165 268.018 L746.165 252.508 Q746.165 248.782 744.846 246.976 Q743.526 245.17 740.818 245.17 Q737.508 245.17 735.586 247.37 Q733.665 249.569 733.665 253.365 L733.665 268.018 L729.383 268.018 L729.383 252.508 Q729.383 248.758 728.063 246.976 Q726.744 245.17 723.989 245.17 Q720.725 245.17 718.804 247.393 Q716.883 249.592 716.883 253.365 L716.883 268.018 L712.6 268.018 L712.6 242.092 L716.883 242.092 L716.883 246.12 Q718.341 243.735 720.378 242.601 Q722.415 241.467 725.216 241.467 Q728.04 241.467 730.008 242.902 Q731.998 244.337 732.948 247.069 Z" fill="#000000" fill-rule="nonzero" fill-opacity="1" /><path clip-path="url(#clip670)" d="M770.725 254.985 Q765.563 254.985 763.572 256.166 Q761.582 257.346 761.582 260.194 Q761.582 262.462 763.063 263.805 Q764.568 265.124 767.137 265.124 Q770.679 265.124 772.808 262.624 Q774.961 260.101 774.961 255.934 L774.961 254.985 L770.725 254.985 M779.22 253.226 L779.22 268.018 L774.961 268.018 L774.961 264.082 Q773.503 266.443 771.327 267.578 Q769.151 268.689 766.003 268.689 Q762.021 268.689 759.66 266.467 Q757.322 264.221 757.322 260.471 Q757.322 256.096 760.239 253.874 Q763.179 251.652 768.989 251.652 L774.961 251.652 L774.961 251.235 Q774.961 248.295 773.017 246.698 Q771.095 245.078 767.6 245.078 Q765.378 245.078 763.271 245.61 Q761.165 246.143 759.221 247.207 L759.221 243.272 Q761.558 242.37 763.758 241.93 Q765.957 241.467 768.04 241.467 Q773.665 241.467 776.443 244.383 Q779.22 247.3 779.22 253.226 Z" fill="#000000" fill-rule="nonzero" fill-opacity="1" /><path clip-path="url(#clip670)" d="M792.206 234.731 L792.206 242.092 L800.98 242.092 L800.98 245.402 L792.206 245.402 L792.206 259.476 Q792.206 262.647 793.063 263.55 Q793.943 264.453 796.605 264.453 L800.98 264.453 L800.98 268.018 L796.605 268.018 Q791.674 268.018 789.799 266.189 Q787.924 264.337 787.924 259.476 L787.924 245.402 L784.799 245.402 L784.799 242.092 L787.924 242.092 L787.924 234.731 L792.206 234.731 Z" fill="#000000" fill-rule="nonzero" fill-opacity="1" /><path clip-path="url(#clip670)" d="M828.757 253.99 L828.757 256.073 L809.174 256.073 Q809.452 260.471 811.813 262.786 Q814.197 265.078 818.433 265.078 Q820.887 265.078 823.179 264.476 Q825.493 263.874 827.762 262.67 L827.762 266.698 Q825.47 267.67 823.063 268.18 Q820.655 268.689 818.179 268.689 Q811.975 268.689 808.341 265.078 Q804.73 261.467 804.73 255.309 Q804.73 248.944 808.155 245.217 Q811.605 241.467 817.438 241.467 Q822.669 241.467 825.702 244.846 Q828.757 248.203 828.757 253.99 M824.498 252.74 Q824.452 249.245 822.53 247.161 Q820.632 245.078 817.484 245.078 Q813.919 245.078 811.767 247.092 Q809.637 249.106 809.313 252.763 L824.498 252.74 Z" fill="#000000" fill-rule="nonzero" fill-opacity="1" /></svg>
