<?xml version="1.0" encoding="utf-8"?>
<svg xmlns="http://www.w3.org/2000/svg" xmlns:xlink="http://www.w3.org/1999/xlink" width="600" height="400" viewBox="0 0 2400 1600">
<defs>
  <clipPath id="clip640">
    <rect x="0" y="0" width="2400" height="1600"/>
  </clipPath>
</defs>
<path clip-path="url(#clip640)" d="M0 1600 L2400 1600 L2400 0 L0 0  Z" fill="#ffffff" fill-rule="evenodd" fill-opacity="1"/>
<defs>
  <clipPath id="clip641">
    <rect x="147" y="47" width="2206" height="1440"/>
  </clipPath>
</defs>
<path clip-path="url(#clip640)" d="M193.936 1486.45 L2112.76 1486.45 L2112.76 47.2441 L193.936 47.2441  Z" fill="#ffffff" fill-rule="evenodd" fill-opacity="1"/>
<defs>
  <clipPath id="clip642">
    <rect x="193" y="47" width="1920" height="1440"/>
  </clipPath>
</defs>
<polyline clip-path="url(#clip642)" style="stroke:#000000; stroke-linecap:round; stroke-linejoin:round; stroke-width:2; stroke-opacity:0.1; fill:none" points="193.936,1486.45 193.936,47.2441 "/>
<polyline clip-path="url(#clip642)" style="stroke:#000000; stroke-linecap:round; stroke-linejoin:round; stroke-width:2; stroke-opacity:0.1; fill:none" points="673.641,1486.45 673.641,47.2441 "/>
<polyline clip-path="url(#clip642)" style="stroke:#000000; stroke-linecap:round; stroke-linejoin:round; stroke-width:2; stroke-opacity:0.1; fill:none" points="1153.35,1486.45 1153.35,47.2441 "/>
<polyline clip-path="url(#clip642)" style="stroke:#000000; stroke-linecap:round; stroke-linejoin:round; stroke-width:2; stroke-opacity:0.1; fill:none" points="1633.05,1486.45 1633.05,47.2441 "/>
<polyline clip-path="url(#clip642)" style="stroke:#000000; stroke-linecap:round; stroke-linejoin:round; stroke-width:2; stroke-opacity:0.1; fill:none" points="2112.76,1486.45 2112.76,47.2441 "/>
<polyline clip-path="url(#clip642)" style="stroke:#000000; stroke-linecap:round; stroke-linejoin:round; stroke-width:2; stroke-opacity:0.1; fill:none" points="193.936,1486.45 2112.76,1486.45 "/>
<polyline clip-path="url(#clip642)" style="stroke:#000000; stroke-linecap:round; stroke-linejoin:round; stroke-width:2; stroke-opacity:0.1; fill:none" points="193.936,1126.65 2112.76,1126.65 "/>
<polyline clip-path="url(#clip642)" style="stroke:#000000; stroke-linecap:round; stroke-linejoin:round; stroke-width:2; stroke-opacity:0.1; fill:none" points="193.936,766.846 2112.76,766.846 "/>
<polyline clip-path="url(#clip642)" style="stroke:#000000; stroke-linecap:round; stroke-linejoin:round; stroke-width:2; stroke-opacity:0.1; fill:none" points="193.936,407.045 2112.76,407.045 "/>
<polyline clip-path="url(#clip642)" style="stroke:#000000; stroke-linecap:round; stroke-linejoin:round; stroke-width:2; stroke-opacity:0.1; fill:none" points="193.936,47.2441 2112.76,47.2441 "/>
<polyline clip-path="url(#clip640)" style="stroke:#000000; stroke-linecap:round; stroke-linejoin:round; stroke-width:4; stroke-opacity:1; fill:none" points="193.936,1486.45 2112.76,1486.45 "/>
<polyline clip-path="url(#clip640)" style="stroke:#000000; stroke-linecap:round; stroke-linejoin:round; stroke-width:4; stroke-opacity:1; fill:none" points="193.936,1486.45 193.936,1467.55 "/>
<polyline clip-path="url(#clip640)" style="stroke:#000000; stroke-linecap:round; stroke-linejoin:round; stroke-width:4; stroke-opacity:1; fill:none" points="673.641,1486.45 673.641,1467.55 "/>
<polyline clip-path="url(#clip640)" style="stroke:#000000; stroke-linecap:round; stroke-linejoin:round; stroke-width:4; stroke-opacity:1; fill:none" points="1153.35,1486.45 1153.35,1467.55 "/>
<polyline clip-path="url(#clip640)" style="stroke:#000000; stroke-linecap:round; stroke-linejoin:round; stroke-width:4; stroke-opacity:1; fill:none" points="1633.05,1486.45 1633.05,1467.55 "/>
<polyline clip-path="url(#clip640)" style="stroke:#000000; stroke-linecap:round; stroke-linejoin:round; stroke-width:4; stroke-opacity:1; fill:none" points="2112.76,1486.45 2112.76,1467.55 "/>
<path clip-path="url(#clip640)" d="M140.464 1532.02 L170.14 1532.02 L170.14 1535.95 L140.464 1535.95 L140.464 1532.02 Z" fill="#000000" fill-rule="nonzero" fill-opacity="1" /><path clip-path="url(#clip640)" d="M181.043 1544.91 L188.681 1544.91 L188.681 1518.55 L180.371 1520.21 L180.371 1515.95 L188.635 1514.29 L193.311 1514.29 L193.311 1544.91 L200.95 1544.91 L200.95 1548.85 L181.043 1548.85 L181.043 1544.91 Z" fill="#000000" fill-rule="nonzero" fill-opacity="1" /><path clip-path="url(#clip640)" d="M210.394 1542.97 L215.278 1542.97 L215.278 1548.85 L210.394 1548.85 L210.394 1542.97 Z" fill="#000000" fill-rule="nonzero" fill-opacity="1" /><path clip-path="url(#clip640)" d="M235.464 1517.37 Q231.852 1517.37 230.024 1520.93 Q228.218 1524.47 228.218 1531.6 Q228.218 1538.71 230.024 1542.27 Q231.852 1545.82 235.464 1545.82 Q239.098 1545.82 240.903 1542.27 Q242.732 1538.71 242.732 1531.6 Q242.732 1524.47 240.903 1520.93 Q239.098 1517.37 235.464 1517.37 M235.464 1513.66 Q241.274 1513.66 244.329 1518.27 Q247.408 1522.85 247.408 1531.6 Q247.408 1540.33 244.329 1544.94 Q241.274 1549.52 235.464 1549.52 Q229.653 1549.52 226.575 1544.94 Q223.519 1540.33 223.519 1531.6 Q223.519 1522.85 226.575 1518.27 Q229.653 1513.66 235.464 1513.66 Z" fill="#000000" fill-rule="nonzero" fill-opacity="1" /><path clip-path="url(#clip640)" d="M620.667 1532.02 L650.342 1532.02 L650.342 1535.95 L620.667 1535.95 L620.667 1532.02 Z" fill="#000000" fill-rule="nonzero" fill-opacity="1" /><path clip-path="url(#clip640)" d="M670.435 1517.37 Q666.824 1517.37 664.995 1520.93 Q663.19 1524.47 663.19 1531.6 Q663.19 1538.71 664.995 1542.27 Q666.824 1545.82 670.435 1545.82 Q674.069 1545.82 675.875 1542.27 Q677.703 1538.71 677.703 1531.6 Q677.703 1524.47 675.875 1520.93 Q674.069 1517.37 670.435 1517.37 M670.435 1513.66 Q676.245 1513.66 679.301 1518.27 Q682.379 1522.85 682.379 1531.6 Q682.379 1540.33 679.301 1544.94 Q676.245 1549.52 670.435 1549.52 Q664.625 1549.52 661.546 1544.94 Q658.491 1540.33 658.491 1531.6 Q658.491 1522.85 661.546 1518.27 Q664.625 1513.66 670.435 1513.66 Z" fill="#000000" fill-rule="nonzero" fill-opacity="1" /><path clip-path="url(#clip640)" d="M690.597 1542.97 L695.481 1542.97 L695.481 1548.85 L690.597 1548.85 L690.597 1542.97 Z" fill="#000000" fill-rule="nonzero" fill-opacity="1" /><path clip-path="url(#clip640)" d="M705.713 1514.29 L724.069 1514.29 L724.069 1518.22 L709.995 1518.22 L709.995 1526.7 Q711.013 1526.35 712.032 1526.19 Q713.05 1526 714.069 1526 Q719.856 1526 723.236 1529.17 Q726.615 1532.34 726.615 1537.76 Q726.615 1543.34 723.143 1546.44 Q719.671 1549.52 713.351 1549.52 Q711.175 1549.52 708.907 1549.15 Q706.662 1548.78 704.254 1548.04 L704.254 1543.34 Q706.338 1544.47 708.56 1545.03 Q710.782 1545.58 713.259 1545.58 Q717.263 1545.58 719.601 1543.48 Q721.939 1541.37 721.939 1537.76 Q721.939 1534.15 719.601 1532.04 Q717.263 1529.94 713.259 1529.94 Q711.384 1529.94 709.509 1530.35 Q707.657 1530.77 705.713 1531.65 L705.713 1514.29 Z" fill="#000000" fill-rule="nonzero" fill-opacity="1" /><path clip-path="url(#clip640)" d="M1130.73 1517.37 Q1127.12 1517.37 1125.29 1520.93 Q1123.49 1524.47 1123.49 1531.6 Q1123.49 1538.71 1125.29 1542.27 Q1127.12 1545.82 1130.73 1545.82 Q1134.36 1545.82 1136.17 1542.27 Q1138 1538.71 1138 1531.6 Q1138 1524.47 1136.17 1520.93 Q1134.36 1517.37 1130.73 1517.37 M1130.73 1513.66 Q1136.54 1513.66 1139.6 1518.27 Q1142.67 1522.85 1142.67 1531.6 Q1142.67 1540.33 1139.6 1544.94 Q1136.54 1549.52 1130.73 1549.52 Q1124.92 1549.52 1121.84 1544.94 Q1118.79 1540.33 1118.79 1531.6 Q1118.79 1522.85 1121.84 1518.27 Q1124.92 1513.66 1130.73 1513.66 Z" fill="#000000" fill-rule="nonzero" fill-opacity="1" /><path clip-path="url(#clip640)" d="M1150.89 1542.97 L1155.78 1542.97 L1155.78 1548.85 L1150.89 1548.85 L1150.89 1542.97 Z" fill="#000000" fill-rule="nonzero" fill-opacity="1" /><path clip-path="url(#clip640)" d="M1175.96 1517.37 Q1172.35 1517.37 1170.52 1520.93 Q1168.72 1524.47 1168.72 1531.6 Q1168.72 1538.71 1170.52 1542.27 Q1172.35 1545.82 1175.96 1545.82 Q1179.6 1545.82 1181.4 1542.27 Q1183.23 1538.71 1183.23 1531.6 Q1183.23 1524.47 1181.4 1520.93 Q1179.6 1517.37 1175.96 1517.37 M1175.96 1513.66 Q1181.77 1513.66 1184.83 1518.27 Q1187.91 1522.85 1187.91 1531.6 Q1187.91 1540.33 1184.83 1544.94 Q1181.77 1549.52 1175.96 1549.52 Q1170.15 1549.52 1167.07 1544.94 Q1164.02 1540.33 1164.02 1531.6 Q1164.02 1522.85 1167.07 1518.27 Q1170.15 1513.66 1175.96 1513.66 Z" fill="#000000" fill-rule="nonzero" fill-opacity="1" /><path clip-path="url(#clip640)" d="M1610.93 1517.37 Q1607.32 1517.37 1605.49 1520.93 Q1603.69 1524.47 1603.69 1531.6 Q1603.69 1538.71 1605.49 1542.27 Q1607.32 1545.82 1610.93 1545.82 Q1614.57 1545.82 1616.37 1542.27 Q1618.2 1538.71 1618.2 1531.6 Q1618.2 1524.47 1616.37 1520.93 Q1614.57 1517.37 1610.93 1517.37 M1610.93 1513.66 Q1616.74 1513.66 1619.8 1518.27 Q1622.88 1522.85 1622.88 1531.6 Q1622.88 1540.33 1619.8 1544.94 Q1616.74 1549.52 1610.93 1549.52 Q1605.12 1549.52 1602.04 1544.94 Q1598.99 1540.33 1598.99 1531.6 Q1598.99 1522.85 1602.04 1518.27 Q1605.12 1513.66 1610.93 1513.66 Z" fill="#000000" fill-rule="nonzero" fill-opacity="1" /><path clip-path="url(#clip640)" d="M1631.09 1542.97 L1635.98 1542.97 L1635.98 1548.85 L1631.09 1548.85 L1631.09 1542.97 Z" fill="#000000" fill-rule="nonzero" fill-opacity="1" /><path clip-path="url(#clip640)" d="M1646.21 1514.29 L1664.57 1514.29 L1664.57 1518.22 L1650.49 1518.22 L1650.49 1526.7 Q1651.51 1526.35 1652.53 1526.19 Q1653.55 1526 1654.57 1526 Q1660.35 1526 1663.73 1529.17 Q1667.11 1532.34 1667.11 1537.76 Q1667.11 1543.34 1663.64 1546.44 Q1660.17 1549.52 1653.85 1549.52 Q1651.67 1549.52 1649.41 1549.15 Q1647.16 1548.78 1644.75 1548.04 L1644.75 1543.34 Q1646.84 1544.47 1649.06 1545.03 Q1651.28 1545.58 1653.76 1545.58 Q1657.76 1545.58 1660.1 1543.48 Q1662.44 1541.37 1662.44 1537.76 Q1662.44 1534.15 1660.1 1532.04 Q1657.76 1529.94 1653.76 1529.94 Q1651.88 1529.94 1650.01 1530.35 Q1648.16 1530.77 1646.21 1531.65 L1646.21 1514.29 Z" fill="#000000" fill-rule="nonzero" fill-opacity="1" /><path clip-path="url(#clip640)" d="M2079.91 1544.91 L2087.55 1544.91 L2087.55 1518.55 L2079.24 1520.21 L2079.24 1515.95 L2087.5 1514.29 L2092.18 1514.29 L2092.18 1544.91 L2099.82 1544.91 L2099.82 1548.85 L2079.91 1548.85 L2079.91 1544.91 Z" fill="#000000" fill-rule="nonzero" fill-opacity="1" /><path clip-path="url(#clip640)" d="M2109.26 1542.97 L2114.14 1542.97 L2114.14 1548.85 L2109.26 1548.85 L2109.26 1542.97 Z" fill="#000000" fill-rule="nonzero" fill-opacity="1" /><path clip-path="url(#clip640)" d="M2134.33 1517.37 Q2130.72 1517.37 2128.89 1520.93 Q2127.08 1524.47 2127.08 1531.6 Q2127.08 1538.71 2128.89 1542.27 Q2130.72 1545.82 2134.33 1545.82 Q2137.96 1545.82 2139.77 1542.27 Q2141.6 1538.71 2141.6 1531.6 Q2141.6 1524.47 2139.77 1520.93 Q2137.96 1517.37 2134.33 1517.37 M2134.33 1513.66 Q2140.14 1513.66 2143.2 1518.27 Q2146.27 1522.85 2146.27 1531.6 Q2146.27 1540.33 2143.2 1544.94 Q2140.14 1549.52 2134.33 1549.52 Q2128.52 1549.52 2125.44 1544.94 Q2122.39 1540.33 2122.39 1531.6 Q2122.39 1522.85 2125.44 1518.27 Q2128.52 1513.66 2134.33 1513.66 Z" fill="#000000" fill-rule="nonzero" fill-opacity="1" /><polyline clip-path="url(#clip640)" style="stroke:#000000; stroke-linecap:round; stroke-linejoin:round; stroke-width:4; stroke-opacity:1; fill:none" points="193.936,1486.45 193.936,47.2441 "/>
<polyline clip-path="url(#clip640)" style="stroke:#000000; stroke-linecap:round; stroke-linejoin:round; stroke-width:4; stroke-opacity:1; fill:none" points="193.936,1486.45 210.733,1486.45 "/>
<polyline clip-path="url(#clip640)" style="stroke:#000000; stroke-linecap:round; stroke-linejoin:round; stroke-width:4; stroke-opacity:1; fill:none" points="193.936,1126.65 210.733,1126.65 "/>
<polyline clip-path="url(#clip640)" style="stroke:#000000; stroke-linecap:round; stroke-linejoin:round; stroke-width:4; stroke-opacity:1; fill:none" points="193.936,766.846 210.733,766.846 "/>
<polyline clip-path="url(#clip640)" style="stroke:#000000; stroke-linecap:round; stroke-linejoin:round; stroke-width:4; stroke-opacity:1; fill:none" points="193.936,407.045 210.733,407.045 "/>
<polyline clip-path="url(#clip640)" style="stroke:#000000; stroke-linecap:round; stroke-linejoin:round; stroke-width:4; stroke-opacity:1; fill:none" points="193.936,47.2441 210.733,47.2441 "/>
<path clip-path="url(#clip640)" d="M50.9921 1486.9 L80.6679 1486.9 L80.6679 1490.83 L50.9921 1490.83 L50.9921 1486.9 Z" fill="#000000" fill-rule="nonzero" fill-opacity="1" /><path clip-path="url(#clip640)" d="M91.5706 1499.79 L99.2095 1499.79 L99.2095 1473.43 L90.8993 1475.09 L90.8993 1470.83 L99.1632 1469.17 L103.839 1469.17 L103.839 1499.79 L111.478 1499.79 L111.478 1503.73 L91.5706 1503.73 L91.5706 1499.79 Z" fill="#000000" fill-rule="nonzero" fill-opacity="1" /><path clip-path="url(#clip640)" d="M120.922 1497.85 L125.807 1497.85 L125.807 1503.73 L120.922 1503.73 L120.922 1497.85 Z" fill="#000000" fill-rule="nonzero" fill-opacity="1" /><path clip-path="url(#clip640)" d="M145.992 1472.25 Q142.381 1472.25 140.552 1475.81 Q138.746 1479.35 138.746 1486.48 Q138.746 1493.59 140.552 1497.15 Q142.381 1500.7 145.992 1500.7 Q149.626 1500.7 151.431 1497.15 Q153.26 1493.59 153.26 1486.48 Q153.26 1479.35 151.431 1475.81 Q149.626 1472.25 145.992 1472.25 M145.992 1468.54 Q151.802 1468.54 154.857 1473.15 Q157.936 1477.73 157.936 1486.48 Q157.936 1495.21 154.857 1499.82 Q151.802 1504.4 145.992 1504.4 Q140.181 1504.4 137.103 1499.82 Q134.047 1495.21 134.047 1486.48 Q134.047 1477.73 137.103 1473.15 Q140.181 1468.54 145.992 1468.54 Z" fill="#000000" fill-rule="nonzero" fill-opacity="1" /><path clip-path="url(#clip640)" d="M51.9875 1127.1 L81.6633 1127.1 L81.6633 1131.03 L51.9875 1131.03 L51.9875 1127.1 Z" fill="#000000" fill-rule="nonzero" fill-opacity="1" /><path clip-path="url(#clip640)" d="M101.756 1112.45 Q98.1447 1112.45 96.316 1116.01 Q94.5104 1119.55 94.5104 1126.68 Q94.5104 1133.79 96.316 1137.35 Q98.1447 1140.89 101.756 1140.89 Q105.39 1140.89 107.196 1137.35 Q109.024 1133.79 109.024 1126.68 Q109.024 1119.55 107.196 1116.01 Q105.39 1112.45 101.756 1112.45 M101.756 1108.74 Q107.566 1108.74 110.621 1113.35 Q113.7 1117.93 113.7 1126.68 Q113.7 1135.41 110.621 1140.01 Q107.566 1144.6 101.756 1144.6 Q95.9456 1144.6 92.8669 1140.01 Q89.8114 1135.41 89.8114 1126.68 Q89.8114 1117.93 92.8669 1113.35 Q95.9456 1108.74 101.756 1108.74 Z" fill="#000000" fill-rule="nonzero" fill-opacity="1" /><path clip-path="url(#clip640)" d="M121.918 1138.05 L126.802 1138.05 L126.802 1143.93 L121.918 1143.93 L121.918 1138.05 Z" fill="#000000" fill-rule="nonzero" fill-opacity="1" /><path clip-path="url(#clip640)" d="M137.033 1109.37 L155.39 1109.37 L155.39 1113.3 L141.316 1113.3 L141.316 1121.77 Q142.334 1121.43 143.353 1121.27 Q144.371 1121.08 145.39 1121.08 Q151.177 1121.08 154.556 1124.25 Q157.936 1127.42 157.936 1132.84 Q157.936 1138.42 154.464 1141.52 Q150.992 1144.6 144.672 1144.6 Q142.496 1144.6 140.228 1144.23 Q137.982 1143.86 135.575 1143.12 L135.575 1138.42 Q137.658 1139.55 139.881 1140.11 Q142.103 1140.66 144.58 1140.66 Q148.584 1140.66 150.922 1138.56 Q153.26 1136.45 153.26 1132.84 Q153.26 1129.23 150.922 1127.12 Q148.584 1125.01 144.58 1125.01 Q142.705 1125.01 140.83 1125.43 Q138.978 1125.85 137.033 1126.73 L137.033 1109.37 Z" fill="#000000" fill-rule="nonzero" fill-opacity="1" /><path clip-path="url(#clip640)" d="M100.76 752.645 Q97.1493 752.645 95.3206 756.209 Q93.515 759.751 93.515 766.881 Q93.515 773.987 95.3206 777.552 Q97.1493 781.094 100.76 781.094 Q104.395 781.094 106.2 777.552 Q108.029 773.987 108.029 766.881 Q108.029 759.751 106.2 756.209 Q104.395 752.645 100.76 752.645 M100.76 748.941 Q106.571 748.941 109.626 753.547 Q112.705 758.131 112.705 766.881 Q112.705 775.608 109.626 780.214 Q106.571 784.797 100.76 784.797 Q94.9502 784.797 91.8715 780.214 Q88.816 775.608 88.816 766.881 Q88.816 758.131 91.8715 753.547 Q94.9502 748.941 100.76 748.941 Z" fill="#000000" fill-rule="nonzero" fill-opacity="1" /><path clip-path="url(#clip640)" d="M120.922 778.246 L125.807 778.246 L125.807 784.126 L120.922 784.126 L120.922 778.246 Z" fill="#000000" fill-rule="nonzero" fill-opacity="1" /><path clip-path="url(#clip640)" d="M145.992 752.645 Q142.381 752.645 140.552 756.209 Q138.746 759.751 138.746 766.881 Q138.746 773.987 140.552 777.552 Q142.381 781.094 145.992 781.094 Q149.626 781.094 151.431 777.552 Q153.26 773.987 153.26 766.881 Q153.26 759.751 151.431 756.209 Q149.626 752.645 145.992 752.645 M145.992 748.941 Q151.802 748.941 154.857 753.547 Q157.936 758.131 157.936 766.881 Q157.936 775.608 154.857 780.214 Q151.802 784.797 145.992 784.797 Q140.181 784.797 137.103 780.214 Q134.047 775.608 134.047 766.881 Q134.047 758.131 137.103 753.547 Q140.181 748.941 145.992 748.941 Z" fill="#000000" fill-rule="nonzero" fill-opacity="1" /><path clip-path="url(#clip640)" d="M101.756 392.844 Q98.1447 392.844 96.316 396.409 Q94.5104 399.95 94.5104 407.08 Q94.5104 414.186 96.316 417.751 Q98.1447 421.293 101.756 421.293 Q105.39 421.293 107.196 417.751 Q109.024 414.186 109.024 407.08 Q109.024 399.95 107.196 396.409 Q105.39 392.844 101.756 392.844 M101.756 389.14 Q107.566 389.14 110.621 393.746 Q113.7 398.33 113.7 407.08 Q113.7 415.807 110.621 420.413 Q107.566 424.996 101.756 424.996 Q95.9456 424.996 92.8669 420.413 Q89.8114 415.807 89.8114 407.08 Q89.8114 398.33 92.8669 393.746 Q95.9456 389.14 101.756 389.14 Z" fill="#000000" fill-rule="nonzero" fill-opacity="1" /><path clip-path="url(#clip640)" d="M121.918 418.445 L126.802 418.445 L126.802 424.325 L121.918 424.325 L121.918 418.445 Z" fill="#000000" fill-rule="nonzero" fill-opacity="1" /><path clip-path="url(#clip640)" d="M137.033 389.765 L155.39 389.765 L155.39 393.7 L141.316 393.7 L141.316 402.172 Q142.334 401.825 143.353 401.663 Q144.371 401.478 145.39 401.478 Q151.177 401.478 154.556 404.649 Q157.936 407.82 157.936 413.237 Q157.936 418.816 154.464 421.918 Q150.992 424.996 144.672 424.996 Q142.496 424.996 140.228 424.626 Q137.982 424.256 135.575 423.515 L135.575 418.816 Q137.658 419.95 139.881 420.506 Q142.103 421.061 144.58 421.061 Q148.584 421.061 150.922 418.955 Q153.26 416.848 153.26 413.237 Q153.26 409.626 150.922 407.52 Q148.584 405.413 144.58 405.413 Q142.705 405.413 140.83 405.83 Q138.978 406.246 137.033 407.126 L137.033 389.765 Z" fill="#000000" fill-rule="nonzero" fill-opacity="1" /><path clip-path="url(#clip640)" d="M91.5706 60.5889 L99.2095 60.5889 L99.2095 34.2233 L90.8993 35.89 L90.8993 31.6308 L99.1632 29.9641 L103.839 29.9641 L103.839 60.5889 L111.478 60.5889 L111.478 64.5241 L91.5706 64.5241 L91.5706 60.5889 Z" fill="#000000" fill-rule="nonzero" fill-opacity="1" /><path clip-path="url(#clip640)" d="M120.922 58.6445 L125.807 58.6445 L125.807 64.5241 L120.922 64.5241 L120.922 58.6445 Z" fill="#000000" fill-rule="nonzero" fill-opacity="1" /><path clip-path="url(#clip640)" d="M145.992 33.0428 Q142.381 33.0428 140.552 36.6076 Q138.746 40.1492 138.746 47.2788 Q138.746 54.3853 140.552 57.9501 Q142.381 61.4917 145.992 61.4917 Q149.626 61.4917 151.431 57.9501 Q153.26 54.3853 153.26 47.2788 Q153.26 40.1492 151.431 36.6076 Q149.626 33.0428 145.992 33.0428 M145.992 29.3391 Q151.802 29.3391 154.857 33.9456 Q157.936 38.5289 157.936 47.2788 Q157.936 56.0056 154.857 60.6121 Q151.802 65.1954 145.992 65.1954 Q140.181 65.1954 137.103 60.6121 Q134.047 56.0056 134.047 47.2788 Q134.047 38.5289 137.103 33.9456 Q140.181 29.3391 145.992 29.3391 Z" fill="#000000" fill-rule="nonzero" fill-opacity="1" /><polyline clip-path="url(#clip642)" style="stroke:#ff0000; stroke-linecap:round; stroke-linejoin:round; stroke-width:4; stroke-opacity:1; fill:none" points="524.119,1246.58 552.503,1264.52 583.79,1275.66 591.267,1278.91 630.031,1289.43 668.795,1292.79 707.56,1290.81 746.324,1282.45 763.25,1275.66 785.088,1268.78 822.113,1246.58 823.852,1245.39 856.388,1217.51 862.616,1208.4 878.502,1188.43 890.263,1159.36 894.018,1130.28 891.811,1101.21 882.458,1072.13 862.616,1045.08 861.39,1043.06 833.164,1013.98 823.852,1007 785.088,985.826 782.389,984.907 746.324,970.024 707.56,963.01 668.795,961.354 630.031,964.171 591.267,972.991 564.64,984.907 552.503,989.579 515.322,1013.98 513.739,1015.29 484.147,1043.06 474.975,1059.44 465.92,1072.13 454.768,1101.21 452.137,1130.28 456.614,1159.36 470.638,1188.43 474.975,1194.04 489.819,1217.51 513.739,1238.8 524.119,1246.58 "/>
<polyline clip-path="url(#clip642)" style="stroke:#ff0000; stroke-linecap:round; stroke-linejoin:round; stroke-width:4; stroke-opacity:1; fill:none" points="577.565,1246.58 591.267,1253.34 630.031,1264.55 668.795,1268.13 707.56,1266.02 746.324,1257.11 769.472,1246.58 785.088,1239.71 816.3,1217.51 823.852,1209.73 843.237,1188.43 856.416,1159.36 860.624,1130.28 858.151,1101.21 847.671,1072.13 823.852,1043.76 823.249,1043.06 785.088,1014.43 784.152,1013.98 746.324,996.117 707.56,988.256 668.795,986.401 630.031,989.557 591.267,999.442 562.877,1013.98 552.503,1019.65 522.902,1043.06 513.739,1054.77 499.702,1072.13 487.819,1101.21 485.015,1130.28 489.786,1159.36 504.729,1188.43 513.739,1198.71 530.35,1217.51 552.503,1234.12 577.565,1246.58 "/>
<polyline clip-path="url(#clip642)" style="stroke:#ff0000; stroke-linecap:round; stroke-linejoin:round; stroke-width:4; stroke-opacity:1; fill:none" points="591.267,1235.23 560.989,1217.51 552.503,1211.14 528.876,1188.43 514.16,1159.36 513.739,1156.99 507.223,1130.28 511.429,1101.21 513.739,1096.64 523.926,1072.13 551.494,1043.06 552.503,1042.26 591.267,1018.61 606.21,1013.98 630.031,1005.83 668.795,1001.09 707.56,1003.87 741.772,1013.98 746.324,1015.15 785.088,1034.44 796.574,1043.06 822.293,1072.13 823.852,1075.55 837.328,1101.21 841.038,1130.28 834.726,1159.36 823.852,1177.22 817.675,1188.43 786.151,1217.51 785.088,1218.26 746.324,1238.94 713.65,1246.58 707.56,1248.31 668.795,1251.47 633.189,1246.58 630.031,1246.27 591.267,1235.23 "/>
<polyline clip-path="url(#clip642)" style="stroke:#ff0000; stroke-linecap:round; stroke-linejoin:round; stroke-width:4; stroke-opacity:1; fill:none" points="591.267,1219.44 587.969,1217.51 552.503,1190.9 549.93,1188.43 530.307,1159.36 524.042,1130.28 527.724,1101.21 543.329,1072.13 552.503,1062.57 575.532,1043.06 591.267,1033.35 630.031,1019.62 668.795,1015.23 707.56,1017.81 746.324,1028.73 771.503,1043.06 785.088,1053.25 804.192,1072.13 818.75,1101.21 822.185,1130.28 816.34,1159.36 798.034,1188.43 785.088,1200.23 759.074,1217.51 746.324,1224.39 707.56,1236.09 668.795,1238.85 630.031,1234.15 591.267,1219.44 "/>
<polyline clip-path="url(#clip642)" style="stroke:#ff0000; stroke-linecap:round; stroke-linejoin:round; stroke-width:4; stroke-opacity:1; fill:none" points="630.031,1222.04 618.437,1217.51 591.267,1205.93 567.932,1188.43 552.503,1168.05 546.455,1159.36 538.624,1130.28 543.226,1101.21 552.503,1085.75 561.043,1072.13 591.267,1047.55 600.602,1043.06 630.031,1030.92 668.795,1025.44 707.56,1028.66 746.324,1042.3 747.645,1043.06 785.088,1071.14 786.091,1072.13 804.288,1101.21 808.582,1130.28 801.275,1159.36 785.088,1181.43 779.1,1188.43 746.324,1211.1 728.169,1217.51 707.56,1224.46 668.795,1227.92 630.031,1222.04 "/>
<polyline clip-path="url(#clip642)" style="stroke:#ff0000; stroke-linecap:round; stroke-linejoin:round; stroke-width:4; stroke-opacity:1; fill:none" points="668.795,1217.07 630.031,1211.18 591.267,1192.75 585.509,1188.43 560.935,1159.36 553.089,1130.28 557.7,1101.21 577.242,1072.13 591.267,1060.72 627.989,1043.06 630.031,1042.21 668.795,1035.64 707.56,1039.5 717.542,1043.06 746.324,1054.53 769.794,1072.13 785.088,1093.72 789.826,1101.21 794.978,1130.28 786.211,1159.36 785.088,1160.89 761.533,1188.43 746.324,1198.95 707.56,1213.61 668.795,1217.07 "/>
<polyline clip-path="url(#clip642)" style="stroke:#ff0000; stroke-linecap:round; stroke-linejoin:round; stroke-width:4; stroke-opacity:1; fill:none" points="668.795,1207.94 630.031,1201.07 604.826,1188.43 591.267,1178.26 574.417,1159.36 565.263,1130.28 570.643,1101.21 591.267,1074.39 593.762,1072.13 630.031,1052.41 668.795,1045.55 707.56,1049.58 746.324,1066.67 753.604,1072.13 776.39,1101.21 781.767,1130.28 772.619,1159.36 746.324,1186.56 743.312,1188.43 707.56,1203.9 668.795,1207.94 "/>
<polyline clip-path="url(#clip642)" style="stroke:#ff0000; stroke-linecap:round; stroke-linejoin:round; stroke-width:4; stroke-opacity:1; fill:none" points="668.795,1198.8 630.031,1190.96 624.992,1188.43 591.267,1163.14 587.898,1159.36 577.437,1130.28 583.585,1101.21 591.267,1091.22 612.347,1072.13 630.031,1062.52 668.795,1054.67 707.56,1059.28 734.945,1072.13 746.324,1080.67 763.455,1101.21 769.6,1130.28 759.145,1159.36 746.324,1172.62 720.877,1188.43 707.56,1194.19 668.795,1198.8 "/>
<polyline clip-path="url(#clip642)" style="stroke:#ff0000; stroke-linecap:round; stroke-linejoin:round; stroke-width:4; stroke-opacity:1; fill:none" points="668.795,1189.67 662.842,1188.43 630.031,1179.73 602.869,1159.36 591.267,1134.75 589.61,1130.28 591.267,1122.99 597.302,1101.21 630.031,1072.76 631.984,1072.13 668.795,1063.8 707.56,1068.98 714.268,1072.13 746.324,1096.17 750.52,1101.21 757.433,1130.28 746.324,1157.89 745.49,1159.36 707.56,1183.9 678.521,1188.43 668.795,1189.67 "/>
<polyline clip-path="url(#clip642)" style="stroke:#ff0000; stroke-linecap:round; stroke-linejoin:round; stroke-width:4; stroke-opacity:1; fill:none" points="707.56,1172.77 668.795,1179.38 630.031,1168.13 618.335,1159.36 603.333,1130.28 612.15,1101.21 630.031,1085.66 668.795,1073.14 707.56,1080.5 735.164,1101.21 744.974,1130.28 728.282,1159.36 707.56,1172.77 "/>
<polyline clip-path="url(#clip642)" style="stroke:#ff0000; stroke-linecap:round; stroke-linejoin:round; stroke-width:4; stroke-opacity:1; fill:none" points="707.56,1161.63 668.795,1168.91 638.211,1159.36 630.031,1153.22 617.299,1130.28 626.998,1101.21 630.031,1098.57 668.795,1084.8 707.56,1092.89 718.644,1101.21 729.435,1130.28 711.075,1159.36 707.56,1161.63 "/>
<polyline clip-path="url(#clip642)" style="stroke:#ff0000; stroke-linecap:round; stroke-linejoin:round; stroke-width:4; stroke-opacity:1; fill:none" points="707.56,1140.13 668.795,1157.35 632.709,1130.28 655.661,1101.21 668.795,1096.45 690.251,1101.21 707.56,1114.19 713.896,1130.28 707.56,1140.13 "/>
<polyline clip-path="url(#clip642)" style="stroke:#ff0000; stroke-linecap:round; stroke-linejoin:round; stroke-width:4; stroke-opacity:1; fill:none" points="678.254,1130.28 668.795,1134.62 663.005,1130.28 668.795,1123.19 678.254,1130.28 "/>
<polyline clip-path="url(#clip642)" style="stroke:#ff0000; stroke-linecap:round; stroke-linejoin:round; stroke-width:4; stroke-opacity:1; fill:none" points="1482.84,526.695 1473.53,519.71 1445.3,490.635 1444.08,488.611 1424.23,461.56 1414.88,432.486 1412.67,403.411 1416.43,374.336 1428.19,345.261 1444.08,325.29 1450.3,316.186 1482.84,288.299 1484.58,287.111 1521.6,264.916 1543.44,258.037 1560.37,251.245 1599.13,242.88 1637.9,240.907 1676.66,244.265 1715.42,254.783 1722.9,258.037 1754.19,269.17 1782.57,287.111 1792.95,294.897 1816.87,316.186 1831.72,339.653 1836.05,345.261 1850.08,374.336 1854.56,403.411 1851.92,432.486 1840.77,461.56 1831.72,474.256 1822.55,490.635 1792.95,518.406 1791.37,519.71 1754.19,544.113 1742.05,548.785 1715.42,560.701 1676.66,569.521 1637.9,572.338 1599.13,570.682 1560.37,563.668 1524.3,548.785 1521.6,547.865 1482.84,526.695 "/>
<polyline clip-path="url(#clip642)" style="stroke:#ff0000; stroke-linecap:round; stroke-linejoin:round; stroke-width:4; stroke-opacity:1; fill:none" points="1522.54,519.71 1560.37,537.575 1599.13,545.436 1637.9,547.291 1676.66,544.135 1715.42,534.25 1743.81,519.71 1754.19,514.046 1783.79,490.635 1792.95,478.923 1806.99,461.56 1818.87,432.486 1821.68,403.411 1816.91,374.336 1801.96,345.261 1792.95,334.984 1776.34,316.186 1754.19,299.57 1729.13,287.111 1715.42,280.353 1676.66,269.145 1637.9,265.567 1599.13,267.67 1560.37,276.583 1537.22,287.111 1521.6,293.984 1490.39,316.186 1482.84,323.967 1463.45,345.261 1450.28,374.336 1446.07,403.411 1448.54,432.486 1459.02,461.56 1482.84,489.933 1483.44,490.635 1521.6,519.258 1522.54,519.71 "/>
<polyline clip-path="url(#clip642)" style="stroke:#ff0000; stroke-linecap:round; stroke-linejoin:round; stroke-width:4; stroke-opacity:1; fill:none" points="1521.6,499.251 1510.12,490.635 1484.4,461.56 1482.84,458.147 1469.36,432.486 1465.65,403.411 1471.97,374.336 1482.84,356.469 1489.02,345.261 1520.54,316.186 1521.6,315.429 1560.37,294.752 1593.04,287.111 1599.13,285.378 1637.9,282.224 1673.5,287.111 1676.66,287.427 1715.42,298.465 1745.7,316.186 1754.19,322.551 1777.82,345.261 1792.53,374.336 1792.95,376.704 1799.47,403.411 1795.26,432.486 1792.95,437.054 1782.77,461.56 1755.2,490.635 1754.19,491.433 1715.42,515.077 1700.48,519.71 1676.66,527.866 1637.9,532.6 1599.13,529.818 1564.92,519.71 1560.37,518.541 1521.6,499.251 "/>
<polyline clip-path="url(#clip642)" style="stroke:#ff0000; stroke-linecap:round; stroke-linejoin:round; stroke-width:4; stroke-opacity:1; fill:none" points="1560.37,504.964 1535.19,490.635 1521.6,480.446 1502.5,461.56 1487.94,432.486 1484.51,403.411 1490.35,374.336 1508.66,345.261 1521.6,333.459 1547.62,316.186 1560.37,309.305 1599.13,297.601 1637.9,294.839 1676.66,299.538 1715.42,314.256 1718.72,316.186 1754.19,342.787 1756.76,345.261 1776.38,374.336 1782.65,403.411 1778.97,432.486 1763.36,461.56 1754.19,471.124 1731.16,490.635 1715.42,500.346 1676.66,514.076 1637.9,518.46 1599.13,515.883 1560.37,504.964 "/>
<polyline clip-path="url(#clip642)" style="stroke:#ff0000; stroke-linecap:round; stroke-linejoin:round; stroke-width:4; stroke-opacity:1; fill:none" points="1560.37,491.387 1559.05,490.635 1521.6,462.552 1520.6,461.56 1502.4,432.486 1498.11,403.411 1505.42,374.336 1521.6,352.262 1527.59,345.261 1560.37,322.591 1578.52,316.186 1599.13,309.228 1637.9,305.776 1676.66,311.65 1688.25,316.186 1715.42,327.758 1738.76,345.261 1754.19,365.64 1760.24,374.336 1768.07,403.411 1763.47,432.486 1754.19,447.943 1745.65,461.56 1715.42,486.144 1706.09,490.635 1676.66,502.777 1637.9,508.257 1599.13,505.036 1560.37,491.387 "/>
<polyline clip-path="url(#clip642)" style="stroke:#ff0000; stroke-linecap:round; stroke-linejoin:round; stroke-width:4; stroke-opacity:1; fill:none" points="1599.13,494.189 1589.15,490.635 1560.37,479.165 1536.9,461.56 1521.6,439.973 1516.87,432.486 1511.71,403.411 1520.48,374.336 1521.6,372.804 1545.16,345.261 1560.37,334.742 1599.13,320.084 1637.9,316.626 1676.66,322.51 1715.42,340.942 1721.18,345.261 1745.76,374.336 1753.6,403.411 1748.99,432.486 1729.45,461.56 1715.42,472.968 1678.7,490.635 1676.66,491.478 1637.9,498.054 1599.13,494.189 "/>
<polyline clip-path="url(#clip642)" style="stroke:#ff0000; stroke-linecap:round; stroke-linejoin:round; stroke-width:4; stroke-opacity:1; fill:none" points="1637.9,488.145 1599.13,484.112 1560.37,467.021 1553.09,461.56 1530.3,432.486 1524.92,403.411 1534.07,374.336 1560.37,347.132 1563.38,345.261 1599.13,329.792 1637.9,325.756 1676.66,332.622 1701.87,345.261 1715.42,355.431 1732.28,374.336 1741.43,403.411 1736.05,432.486 1715.42,459.302 1712.93,461.56 1676.66,481.283 1637.9,488.145 "/>
<polyline clip-path="url(#clip642)" style="stroke:#ff0000; stroke-linecap:round; stroke-linejoin:round; stroke-width:4; stroke-opacity:1; fill:none" points="1637.9,479.019 1599.13,474.41 1571.75,461.56 1560.37,453.026 1543.24,432.486 1537.09,403.411 1547.55,374.336 1560.37,361.072 1585.82,345.261 1599.13,339.499 1637.9,334.887 1676.66,342.734 1681.7,345.261 1715.42,370.556 1718.79,374.336 1729.26,403.411 1723.11,432.486 1715.42,442.474 1694.35,461.56 1676.66,471.177 1637.9,479.019 "/>
<polyline clip-path="url(#clip642)" style="stroke:#ff0000; stroke-linecap:round; stroke-linejoin:round; stroke-width:4; stroke-opacity:1; fill:none" points="1637.9,469.893 1599.13,464.708 1592.42,461.56 1560.37,437.517 1556.17,432.486 1549.26,403.411 1560.37,375.8 1561.2,374.336 1599.13,349.787 1628.17,345.261 1637.9,344.018 1643.85,345.261 1676.66,353.962 1703.82,374.336 1715.42,398.945 1717.08,403.411 1715.42,410.705 1709.39,432.486 1676.66,460.935 1674.71,461.56 1637.9,469.893 "/>
<polyline clip-path="url(#clip642)" style="stroke:#ff0000; stroke-linecap:round; stroke-linejoin:round; stroke-width:4; stroke-opacity:1; fill:none" points="1676.66,448.029 1637.9,460.548 1599.13,453.19 1571.53,432.486 1561.72,403.411 1578.41,374.336 1599.13,360.924 1637.9,354.311 1676.66,365.563 1688.36,374.336 1703.36,403.411 1694.54,432.486 1676.66,448.029 "/>
<polyline clip-path="url(#clip642)" style="stroke:#ff0000; stroke-linecap:round; stroke-linejoin:round; stroke-width:4; stroke-opacity:1; fill:none" points="1676.66,435.122 1637.9,448.893 1599.13,440.8 1588.05,432.486 1577.26,403.411 1595.62,374.336 1599.13,372.061 1637.9,364.786 1668.48,374.336 1676.66,380.471 1689.39,403.411 1679.69,432.486 1676.66,435.122 "/>
<polyline clip-path="url(#clip642)" style="stroke:#ff0000; stroke-linecap:round; stroke-linejoin:round; stroke-width:4; stroke-opacity:1; fill:none" points="1651.03,432.486 1637.9,437.238 1616.44,432.486 1599.13,419.503 1592.8,403.411 1599.13,393.559 1637.9,376.344 1673.98,403.411 1651.03,432.486 "/>
<polyline clip-path="url(#clip642)" style="stroke:#ff0000; stroke-linecap:round; stroke-linejoin:round; stroke-width:4; stroke-opacity:1; fill:none" points="1637.9,410.505 1628.44,403.411 1637.9,399.068 1643.69,403.411 1637.9,410.505 "/>
<polyline clip-path="url(#clip642)" style="stroke:#0000ff; stroke-linecap:round; stroke-linejoin:round; stroke-width:4; stroke-opacity:1; fill:none" points="919.358,984.907 940.144,997.063 978.617,1013.98 978.908,1014.11 1017.67,1028.34 1056.44,1037.58 1094.52,1043.06 1095.2,1043.18 1133.96,1046.64 1172.73,1046.64 1211.49,1043.18 1212.18,1043.06 1250.26,1037.58 1289.02,1028.34 1327.78,1014.11 1328.07,1013.98 1366.55,997.063 1387.33,984.907 1405.31,973.593 1428.99,955.832 1444.08,942.348 1460.28,926.758 1482.84,897.901 1483.01,897.683 1501.98,868.608 1514.31,839.533 1521.6,810.972 1521.76,810.458 1526.38,781.383 1526.38,752.309 1521.76,723.234 1521.6,722.72 1514.31,694.159 1501.98,665.084 1483.01,636.009 1482.84,635.791 1460.28,606.934 1444.08,591.344 1428.99,577.86 1405.31,560.099 1387.33,548.785 1366.55,536.629 1328.07,519.71 1327.78,519.579 1289.02,505.353 1250.26,496.108 1212.18,490.635 1211.49,490.515 1172.73,487.05 1133.96,487.05 1095.2,490.515 1094.52,490.635 1056.44,496.108 1017.67,505.353 978.908,519.579 978.617,519.71 940.144,536.629 919.358,548.785 901.38,560.099 877.701,577.86 862.616,591.344 846.409,606.934 823.852,635.791 823.677,636.009 804.71,665.084 792.384,694.159 785.088,722.72 784.927,723.234 780.308,752.309 780.308,781.383 784.927,810.458 785.088,810.972 792.384,839.533 804.71,868.608 823.677,897.683 823.852,897.901 846.409,926.758 862.616,942.348 877.701,955.832 901.38,973.593 919.358,984.907 "/>
<polyline clip-path="url(#clip642)" style="stroke:#0000ff; stroke-linecap:round; stroke-linejoin:round; stroke-width:4; stroke-opacity:1; fill:none" points="997.015,955.832 1017.67,965.223 1056.44,977.624 1094.19,984.907 1095.2,985.12 1133.96,989.286 1172.73,989.286 1211.49,985.12 1212.5,984.907 1250.26,977.624 1289.02,965.223 1309.68,955.832 1327.78,947.152 1359.78,926.758 1366.55,921.681 1393.74,897.683 1405.31,884.102 1417.83,868.608 1434.37,839.533 1444.08,811.216 1444.36,810.458 1449.91,781.383 1449.91,752.309 1444.36,723.234 1444.08,722.476 1434.37,694.159 1417.83,665.084 1405.31,649.59 1393.74,636.009 1366.55,612.011 1359.78,606.934 1327.78,586.54 1309.68,577.86 1289.02,568.469 1250.26,556.068 1212.5,548.785 1211.49,548.572 1172.73,544.406 1133.96,544.406 1095.2,548.572 1094.19,548.785 1056.44,556.068 1017.67,568.469 997.015,577.86 978.908,586.54 946.913,606.934 940.144,612.011 912.952,636.009 901.38,649.59 888.859,665.084 872.326,694.159 862.616,722.476 862.331,723.234 856.778,752.309 856.778,781.383 862.331,810.458 862.616,811.216 872.326,839.533 888.859,868.608 901.38,884.102 912.952,897.683 940.144,921.681 946.913,926.758 978.908,947.152 997.015,955.832 "/>
<polyline clip-path="url(#clip642)" style="stroke:#0000ff; stroke-linecap:round; stroke-linejoin:round; stroke-width:4; stroke-opacity:1; fill:none" points="1041.47,926.758 1056.44,932.714 1095.2,942.739 1133.96,947.453 1172.73,947.453 1211.49,942.739 1250.26,932.714 1265.22,926.758 1289.02,916.488 1319.75,897.683 1327.78,891.654 1352.86,868.608 1366.55,850.759 1374.49,839.533 1387.86,810.458 1394.14,781.383 1394.14,752.309 1387.86,723.234 1374.49,694.159 1366.55,682.933 1352.86,665.084 1327.78,642.038 1319.75,636.009 1289.02,617.204 1265.22,606.934 1250.26,600.978 1211.49,590.953 1172.73,586.238 1133.96,586.238 1095.2,590.953 1056.44,600.978 1041.47,606.934 1017.67,617.204 986.946,636.009 978.908,642.038 953.836,665.084 940.144,682.933 932.203,694.159 918.836,723.234 912.551,752.309 912.551,781.383 918.836,810.458 932.203,839.533 940.144,850.759 953.836,868.608 978.908,891.654 986.946,897.683 1017.67,916.488 1041.47,926.758 "/>
<polyline clip-path="url(#clip642)" style="stroke:#0000ff; stroke-linecap:round; stroke-linejoin:round; stroke-width:4; stroke-opacity:1; fill:none" points="1074.14,897.683 1095.2,904.39 1133.96,910.421 1172.73,910.421 1211.49,904.39 1232.55,897.683 1250.26,891.314 1289.02,869.129 1289.72,868.608 1319.29,839.533 1327.78,826.254 1336.73,810.458 1344.77,781.383 1344.77,752.309 1336.73,723.234 1327.78,707.438 1319.29,694.159 1289.72,665.084 1289.02,664.563 1250.26,642.378 1232.55,636.009 1211.49,629.302 1172.73,623.271 1133.96,623.271 1095.2,629.302 1074.14,636.009 1056.44,642.378 1017.67,664.563 1016.98,665.084 987.399,694.159 978.908,707.438 969.965,723.234 961.925,752.309 961.925,781.383 969.965,810.458 978.908,826.254 987.399,839.533 1016.98,868.608 1017.67,869.129 1056.44,891.314 1074.14,897.683 "/>
<polyline clip-path="url(#clip642)" style="stroke:#0000ff; stroke-linecap:round; stroke-linejoin:round; stroke-width:4; stroke-opacity:1; fill:none" points="1110.57,868.608 1133.96,873.267 1172.73,873.267 1196.13,868.608 1211.49,864.922 1250.26,845.623 1258.38,839.533 1284.11,810.458 1289.02,798.933 1295.23,781.383 1295.23,752.309 1289.02,734.759 1284.11,723.234 1258.38,694.159 1250.26,688.069 1211.49,668.77 1196.13,665.084 1172.73,660.425 1133.96,660.425 1110.57,665.084 1095.2,668.77 1056.44,688.069 1048.32,694.159 1022.59,723.234 1017.67,734.759 1011.46,752.309 1011.46,781.383 1017.67,798.933 1022.59,810.458 1048.32,839.533 1056.44,845.623 1095.2,864.922 1110.57,868.608 "/>
<polyline clip-path="url(#clip642)" style="stroke:#0000ff; stroke-linecap:round; stroke-linejoin:round; stroke-width:4; stroke-opacity:1; fill:none" points="1133.96,827.196 1095.2,812.441 1092.56,810.458 1072.88,781.383 1072.88,752.309 1092.56,723.234 1095.2,721.251 1133.96,706.496 1172.73,706.496 1211.49,721.251 1214.14,723.234 1233.81,752.309 1233.81,781.383 1214.14,810.458 1211.49,812.441 1172.73,827.196 1133.96,827.196 "/>
<polyline clip-path="url(#clip642)" style="stroke:#000000; stroke-linecap:round; stroke-linejoin:round; stroke-width:4; stroke-opacity:1; fill:none" points="630.031,1166.97 619.885,1159.36 592.583,1130.28 591.267,1127.87 572.113,1101.21 563.914,1072.13 563.256,1043.06 569.691,1013.98 587.857,984.907 591.267,981.203 612.132,955.832 630.031,941.966 657.978,926.758 668.795,920.74 707.56,906.805 746.324,901.569 785.088,901.148 823.852,905.259 862.616,916.862 881.286,926.758 901.38,936.76 926.809,955.832 940.144,970.904 953.337,984.907 968.807,1013.98 974.287,1043.06 973.727,1072.13 966.745,1101.21 948.167,1130.28 940.144,1138.39 919.867,1159.36 901.38,1172.78 867.554,1188.43 862.616,1190.99 823.852,1204.61 785.088,1209.44 746.324,1208.95 707.56,1202.8 672.013,1188.43 668.795,1187.44 630.031,1166.97 "/>
<polyline clip-path="url(#clip642)" style="stroke:#000000; stroke-linecap:round; stroke-linejoin:round; stroke-width:4; stroke-opacity:1; fill:none" points="668.795,1164.24 660.923,1159.36 630.031,1136.19 623.52,1130.28 601.955,1101.21 593.85,1072.13 593.2,1043.06 599.561,1013.98 617.519,984.907 630.031,972.997 650.964,955.832 668.795,944.408 707.56,929.925 727.967,926.758 746.324,922.378 785.088,921.537 811.308,926.758 823.852,928.317 862.616,940.377 887.934,955.832 901.38,965.917 921.986,984.907 938.065,1013.98 940.144,1023.39 947.104,1043.06 945.983,1072.13 940.144,1085.9 935.921,1101.21 916.612,1130.28 901.38,1143.66 878.495,1159.36 862.616,1168.74 823.852,1182.21 785.088,1186.98 746.324,1186.49 707.56,1180.41 668.795,1164.24 "/>
<polyline clip-path="url(#clip642)" style="stroke:#000000; stroke-linecap:round; stroke-linejoin:round; stroke-width:4; stroke-opacity:1; fill:none" points="707.56,1165.3 694.676,1159.36 668.795,1147.59 645.721,1130.28 630.031,1110.87 622.11,1101.21 609.953,1072.13 608.977,1043.06 618.519,1013.98 630.031,998.753 639.939,984.907 668.795,962.191 681.586,955.832 707.56,943.46 746.324,935.296 785.088,934.641 823.852,941.049 857.507,955.832 862.616,958.08 898.383,984.907 901.38,988.739 921.09,1013.98 929.634,1043.06 928.76,1072.13 917.875,1101.21 901.38,1120.69 892.902,1130.28 862.616,1151.93 844.156,1159.36 823.852,1167.99 785.088,1175.15 746.324,1174.42 707.56,1165.3 "/>
<polyline clip-path="url(#clip642)" style="stroke:#000000; stroke-linecap:round; stroke-linejoin:round; stroke-width:4; stroke-opacity:1; fill:none" points="746.324,1162.34 735.114,1159.36 707.56,1153.46 668.795,1132.68 665.593,1130.28 637.889,1101.21 630.031,1080.54 626.055,1072.13 624.754,1043.06 630.031,1029.68 634.814,1013.98 657.883,984.907 668.795,976.317 707.56,956.623 710.943,955.832 746.324,946.11 785.088,945.236 823.852,953.781 828.522,955.832 862.616,970.836 881.376,984.907 901.38,1010.48 904.115,1013.98 915.507,1043.06 914.342,1072.13 901.38,1098.67 900.325,1101.21 874.069,1130.28 862.616,1138.47 823.852,1155.77 802.916,1159.36 785.088,1163.31 746.324,1162.34 "/>
<polyline clip-path="url(#clip642)" style="stroke:#000000; stroke-linecap:round; stroke-linejoin:round; stroke-width:4; stroke-opacity:1; fill:none" points="785.088,1154.3 746.324,1153.51 707.56,1143.75 683.402,1130.28 668.795,1119.33 650.835,1101.21 637.821,1072.13 636.776,1043.06 646.991,1013.98 668.795,990.128 674.957,984.907 707.56,965.826 746.324,956.575 785.08,955.832 785.088,955.832 785.089,955.832 823.852,963.094 862.616,983.592 864.369,984.907 891.698,1013.98 901.38,1043.06 901.38,1043.06 901.38,1043.06 900.39,1072.13 888.056,1101.21 862.616,1125.66 855.655,1130.28 823.852,1146.64 785.088,1154.3 "/>
<polyline clip-path="url(#clip642)" style="stroke:#000000; stroke-linecap:round; stroke-linejoin:round; stroke-width:4; stroke-opacity:1; fill:none" points="785.088,1146.7 746.324,1145.76 707.56,1134.04 700.815,1130.28 668.795,1106.27 663.781,1101.21 648.164,1072.13 646.91,1043.06 659.169,1013.98 668.795,1003.45 690.681,984.907 707.56,975.029 746.324,963.927 785.088,963.036 823.852,971.75 848.23,984.907 862.616,995.697 880.158,1013.98 891.775,1043.06 890.587,1072.13 875.786,1101.21 862.616,1113.87 837.893,1130.28 823.852,1137.5 785.088,1146.7 "/>
<polyline clip-path="url(#clip642)" style="stroke:#000000; stroke-linecap:round; stroke-linejoin:round; stroke-width:4; stroke-opacity:1; fill:none" points="785.088,1139.1 746.324,1138 722.335,1130.28 707.56,1125.07 675.746,1101.21 668.795,1090.12 658.507,1072.13 657.044,1043.06 668.795,1018.43 671.03,1013.98 706.405,984.907 707.56,984.231 746.324,971.28 785.088,970.24 823.852,980.406 832.192,984.907 862.616,1007.73 868.617,1013.98 882.171,1043.06 880.785,1072.13 863.517,1101.21 862.616,1102.07 823.852,1128.61 817.921,1130.28 785.088,1139.1 "/>
<polyline clip-path="url(#clip642)" style="stroke:#000000; stroke-linecap:round; stroke-linejoin:round; stroke-width:4; stroke-opacity:1; fill:none" points="785.088,1131.49 747.564,1130.28 746.324,1130.25 707.56,1116.56 687.089,1101.21 668.843,1072.13 668.795,1071.2 667.179,1043.06 668.795,1039.67 681.7,1013.98 707.56,992.949 727.737,984.907 746.324,978.632 785.088,977.444 811.578,984.907 823.852,988.826 857.391,1013.98 862.616,1023.19 872.566,1043.06 870.982,1072.13 862.616,1086.07 851.894,1101.21 823.852,1120.6 789.605,1130.28 785.088,1131.49 "/>
<polyline clip-path="url(#clip642)" style="stroke:#000000; stroke-linecap:round; stroke-linejoin:round; stroke-width:4; stroke-opacity:1; fill:none" points="823.852,1112.6 785.088,1124.68 746.324,1123.45 707.56,1108.05 698.433,1101.21 677.906,1072.13 676.259,1043.06 692.371,1013.98 707.56,1001.63 746.324,985.923 777.438,984.907 785.088,984.648 786.009,984.907 823.852,996.989 846.507,1013.98 862.616,1042.37 862.962,1043.06 862.616,1048.79 861.261,1072.13 840.323,1101.21 823.852,1112.6 "/>
<polyline clip-path="url(#clip642)" style="stroke:#000000; stroke-linecap:round; stroke-linejoin:round; stroke-width:4; stroke-opacity:1; fill:none" points="823.852,1104.6 785.088,1118.02 746.324,1116.65 710.631,1101.21 707.56,1098.9 686.969,1072.13 685.139,1043.06 703.041,1013.98 707.56,1010.31 746.324,992.857 785.088,991.456 823.852,1005.15 835.623,1013.98 853.884,1043.06 852.017,1072.13 828.752,1101.21 823.852,1104.6 "/>
<polyline clip-path="url(#clip642)" style="stroke:#000000; stroke-linecap:round; stroke-linejoin:round; stroke-width:4; stroke-opacity:1; fill:none" points="823.852,1094.82 813.217,1101.21 785.088,1111.36 746.324,1109.85 726.342,1101.21 707.56,1087.12 696.032,1072.13 694.019,1043.06 707.56,1021.96 716.079,1013.98 746.324,999.791 785.088,998.25 823.852,1013.32 824.739,1013.98 844.826,1043.06 842.772,1072.13 823.852,1094.82 "/>
<polyline clip-path="url(#clip642)" style="stroke:#000000; stroke-linecap:round; stroke-linejoin:round; stroke-width:4; stroke-opacity:1; fill:none" points="823.852,1083.73 794.77,1101.21 785.088,1104.7 746.324,1103.05 742.052,1101.21 707.56,1075.34 705.096,1072.13 702.899,1043.06 707.56,1035.79 730.857,1013.98 746.324,1006.72 785.088,1005.04 807.915,1013.98 823.852,1025.94 835.768,1043.06 833.527,1072.13 823.852,1083.73 "/>
<polyline clip-path="url(#clip642)" style="stroke:#000000; stroke-linecap:round; stroke-linejoin:round; stroke-width:4; stroke-opacity:1; fill:none" points="823.852,1072.65 785.088,1096.82 746.324,1094.35 716.699,1072.13 713.403,1043.06 745.635,1013.98 746.324,1013.66 785.088,1011.84 790.563,1013.98 823.852,1038.95 826.71,1043.06 824.282,1072.13 823.852,1072.65 "/>
<polyline clip-path="url(#clip642)" style="stroke:#000000; stroke-linecap:round; stroke-linejoin:round; stroke-width:4; stroke-opacity:1; fill:none" points="809.8,1072.13 785.088,1087.6 746.324,1084.94 729.251,1072.13 725.701,1043.06 746.324,1024.52 785.088,1021.39 813.968,1043.06 809.8,1072.13 "/>
<polyline clip-path="url(#clip642)" style="stroke:#000000; stroke-linecap:round; stroke-linejoin:round; stroke-width:4; stroke-opacity:1; fill:none" points="795.062,1072.13 785.088,1078.37 746.324,1075.52 741.803,1072.13 738,1043.06 746.324,1035.58 785.088,1032.23 799.528,1043.06 795.062,1072.13 "/>
<polyline clip-path="url(#clip642)" style="stroke:#000000; stroke-linecap:round; stroke-linejoin:round; stroke-width:4; stroke-opacity:1; fill:none" points="1425.41,606.934 1444.08,616.83 1482.84,628.433 1521.6,632.544 1560.37,632.123 1599.13,626.887 1637.9,612.952 1648.71,606.934 1676.66,591.726 1694.56,577.86 1715.42,552.488 1718.83,548.785 1737,519.71 1743.44,490.635 1742.78,461.56 1734.58,432.486 1715.42,405.824 1714.11,403.411 1686.81,374.336 1676.66,366.725 1637.9,346.248 1634.68,345.261 1599.13,330.894 1560.37,324.745 1521.6,324.251 1482.84,329.078 1444.08,342.703 1439.14,345.261 1405.31,360.911 1386.82,374.336 1366.55,395.297 1358.53,403.411 1339.95,432.486 1332.96,461.56 1332.4,490.635 1337.88,519.71 1353.35,548.785 1366.55,562.788 1379.88,577.86 1405.31,596.932 1425.41,606.934 "/>
<polyline clip-path="url(#clip642)" style="stroke:#000000; stroke-linecap:round; stroke-linejoin:round; stroke-width:4; stroke-opacity:1; fill:none" points="1444.08,593.315 1418.76,577.86 1405.31,567.775 1384.71,548.785 1368.63,519.71 1366.55,510.302 1359.59,490.635 1360.71,461.56 1366.55,447.792 1370.77,432.486 1390.08,403.411 1405.31,390.036 1428.2,374.336 1444.08,364.951 1482.84,351.482 1521.6,346.71 1560.37,347.198 1599.13,353.277 1637.9,369.452 1645.77,374.336 1676.66,397.506 1683.17,403.411 1704.74,432.486 1712.84,461.56 1713.49,490.635 1707.13,519.71 1689.17,548.785 1676.66,560.695 1655.73,577.86 1637.9,589.284 1599.13,603.767 1578.72,606.934 1560.37,611.314 1521.6,612.155 1495.38,606.934 1482.84,605.375 1444.08,593.315 "/>
<polyline clip-path="url(#clip642)" style="stroke:#000000; stroke-linecap:round; stroke-linejoin:round; stroke-width:4; stroke-opacity:1; fill:none" points="1482.84,592.643 1449.18,577.86 1444.08,575.612 1408.31,548.785 1405.31,544.953 1385.6,519.71 1377.06,490.635 1377.93,461.56 1388.82,432.486 1405.31,413.004 1413.79,403.411 1444.08,381.767 1462.54,374.336 1482.84,365.701 1521.6,358.544 1560.37,359.276 1599.13,368.394 1612.02,374.336 1637.9,386.104 1660.97,403.411 1676.66,422.822 1684.58,432.486 1696.74,461.56 1697.71,490.635 1688.17,519.71 1676.66,534.939 1666.75,548.785 1637.9,571.501 1625.11,577.86 1599.13,590.232 1560.37,598.396 1521.6,599.051 1482.84,592.643 "/>
<polyline clip-path="url(#clip642)" style="stroke:#000000; stroke-linecap:round; stroke-linejoin:round; stroke-width:4; stroke-opacity:1; fill:none" points="1482.84,579.911 1478.17,577.86 1444.08,562.856 1425.32,548.785 1405.31,523.213 1402.58,519.71 1391.19,490.635 1392.35,461.56 1405.31,435.023 1406.37,432.486 1432.62,403.411 1444.08,395.226 1482.84,377.923 1503.78,374.336 1521.6,370.378 1560.37,371.354 1571.58,374.336 1599.13,380.23 1637.9,401.009 1641.1,403.411 1668.8,432.486 1676.66,453.153 1680.64,461.56 1681.94,490.635 1676.66,504.007 1671.88,519.71 1648.81,548.785 1637.9,557.375 1599.13,577.069 1595.75,577.86 1560.37,587.582 1521.6,588.456 1482.84,579.911 "/>
<polyline clip-path="url(#clip642)" style="stroke:#000000; stroke-linecap:round; stroke-linejoin:round; stroke-width:4; stroke-opacity:1; fill:none" points="1521.6,577.86 1521.6,577.86 1482.84,570.598 1444.08,550.1 1442.32,548.785 1414.99,519.71 1405.31,490.636 1405.31,490.635 1405.31,490.629 1406.3,461.56 1418.64,432.486 1444.08,408.032 1451.04,403.411 1482.84,387.057 1521.6,379.395 1560.37,380.178 1599.13,389.94 1623.29,403.411 1637.9,414.367 1655.86,432.486 1668.87,461.56 1669.92,490.635 1659.7,519.71 1637.9,543.564 1631.73,548.785 1599.13,567.866 1560.37,577.117 1521.61,577.86 1521.6,577.86 "/>
<polyline clip-path="url(#clip642)" style="stroke:#000000; stroke-linecap:round; stroke-linejoin:round; stroke-width:4; stroke-opacity:1; fill:none" points="1560.37,569.765 1521.6,570.656 1482.84,561.942 1458.46,548.785 1444.08,537.995 1426.53,519.71 1414.92,490.635 1416.1,461.56 1430.91,432.486 1444.08,419.826 1468.8,403.411 1482.84,396.19 1521.6,386.996 1560.37,387.936 1599.13,399.65 1605.88,403.411 1637.9,427.427 1642.91,432.486 1658.53,461.56 1659.78,490.635 1647.52,519.71 1637.9,530.242 1616.01,548.785 1599.13,558.663 1560.37,569.765 "/>
<polyline clip-path="url(#clip642)" style="stroke:#000000; stroke-linecap:round; stroke-linejoin:round; stroke-width:4; stroke-opacity:1; fill:none" points="1560.37,562.412 1521.6,563.452 1482.84,553.286 1474.5,548.785 1444.08,525.965 1438.08,519.71 1424.52,490.635 1425.91,461.56 1443.18,432.486 1444.08,431.62 1482.84,405.087 1488.77,403.411 1521.6,394.597 1560.37,395.694 1584.36,403.411 1599.13,408.624 1630.95,432.486 1637.9,443.568 1648.18,461.56 1649.65,490.635 1637.9,515.262 1635.66,519.71 1600.29,548.785 1599.13,549.461 1560.37,562.412 "/>
<polyline clip-path="url(#clip642)" style="stroke:#000000; stroke-linecap:round; stroke-linejoin:round; stroke-width:4; stroke-opacity:1; fill:none" points="1560.37,555.06 1521.6,556.248 1495.11,548.785 1482.84,544.866 1449.3,519.71 1444.08,510.504 1434.13,490.635 1435.71,461.56 1444.08,447.62 1454.8,432.486 1482.84,413.09 1517.09,403.411 1521.6,402.198 1559.13,403.411 1560.37,403.447 1599.13,417.132 1619.6,432.486 1637.85,461.56 1637.9,462.491 1639.51,490.635 1637.9,494.024 1624.99,519.71 1599.13,540.743 1578.95,548.785 1560.37,555.06 "/>
<polyline clip-path="url(#clip642)" style="stroke:#000000; stroke-linecap:round; stroke-linejoin:round; stroke-width:4; stroke-opacity:1; fill:none" points="1599.13,532.064 1560.37,547.769 1529.25,548.785 1521.6,549.044 1520.68,548.785 1482.84,536.703 1460.18,519.71 1444.08,491.326 1443.73,490.635 1444.08,484.898 1445.43,461.56 1466.37,432.486 1482.84,421.093 1521.6,409.008 1560.37,410.244 1599.13,425.64 1608.26,432.486 1628.79,461.56 1630.43,490.635 1614.32,519.71 1599.13,532.064 "/>
<polyline clip-path="url(#clip642)" style="stroke:#000000; stroke-linecap:round; stroke-linejoin:round; stroke-width:4; stroke-opacity:1; fill:none" points="1599.13,523.385 1560.37,540.835 1521.6,542.236 1482.84,528.539 1471.07,519.71 1452.81,490.635 1454.68,461.56 1477.94,432.486 1482.84,429.096 1521.6,415.669 1560.37,417.042 1596.06,432.486 1599.13,434.789 1619.72,461.56 1621.55,490.635 1603.65,519.71 1599.13,523.385 "/>
<polyline clip-path="url(#clip642)" style="stroke:#000000; stroke-linecap:round; stroke-linejoin:round; stroke-width:4; stroke-opacity:1; fill:none" points="1599.13,511.733 1590.61,519.71 1560.37,533.901 1521.6,535.442 1482.84,520.376 1481.95,519.71 1461.87,490.635 1463.92,461.56 1482.84,438.876 1493.48,432.486 1521.6,422.329 1560.37,423.84 1580.35,432.486 1599.13,446.573 1610.66,461.56 1612.67,490.635 1599.13,511.733 "/>
<polyline clip-path="url(#clip642)" style="stroke:#000000; stroke-linecap:round; stroke-linejoin:round; stroke-width:4; stroke-opacity:1; fill:none" points="1599.13,497.897 1575.83,519.71 1560.37,526.967 1521.6,528.648 1498.78,519.71 1482.84,507.757 1470.92,490.635 1473.16,461.56 1482.84,449.96 1511.92,432.486 1521.6,428.99 1560.37,430.637 1564.64,432.486 1599.13,458.357 1601.6,461.56 1603.79,490.635 1599.13,497.897 "/>
<polyline clip-path="url(#clip642)" style="stroke:#000000; stroke-linecap:round; stroke-linejoin:round; stroke-width:4; stroke-opacity:1; fill:none" points="1593.29,490.635 1561.06,519.71 1560.37,520.033 1521.6,521.854 1516.13,519.71 1482.84,494.742 1479.98,490.635 1482.41,461.56 1482.84,461.044 1521.6,436.868 1560.37,439.341 1589.99,461.56 1593.29,490.635 "/>
<polyline clip-path="url(#clip642)" style="stroke:#000000; stroke-linecap:round; stroke-linejoin:round; stroke-width:4; stroke-opacity:1; fill:none" points="1580.99,490.635 1560.37,509.171 1521.6,512.297 1492.72,490.635 1496.89,461.56 1521.6,446.093 1560.37,448.755 1577.44,461.56 1580.99,490.635 "/>
<polyline clip-path="url(#clip642)" style="stroke:#000000; stroke-linecap:round; stroke-linejoin:round; stroke-width:4; stroke-opacity:1; fill:none" points="1568.69,490.635 1560.37,498.117 1521.6,501.466 1507.16,490.635 1511.63,461.56 1521.6,455.317 1560.37,458.17 1564.89,461.56 1568.69,490.635 "/>
<circle clip-path="url(#clip642)" cx="1537.11" cy="479.005" r="14.4" fill="#000000" fill-rule="evenodd" fill-opacity="1" stroke="none"/>
<circle clip-path="url(#clip642)" cx="769.582" cy="1054.69" r="14.4" fill="#000000" fill-rule="evenodd" fill-opacity="1" stroke="none"/>
<circle clip-path="url(#clip642)" cx="1633.05" cy="407.045" r="14.4" fill="#ff0000" fill-rule="evenodd" fill-opacity="1" stroke="#000000" stroke-opacity="1" stroke-width="3.2"/>
<circle clip-path="url(#clip642)" cx="673.641" cy="1126.65" r="14.4" fill="#ff0000" fill-rule="evenodd" fill-opacity="1" stroke="#000000" stroke-opacity="1" stroke-width="3.2"/>
<polyline clip-path="url(#clip642)" style="stroke:#ff0000; stroke-linecap:round; stroke-linejoin:round; stroke-width:4; stroke-opacity:1; fill:none" points="1153.35,766.846 1153.35,766.846 "/>
<polyline clip-path="url(#clip642)" style="stroke:#0000ff; stroke-linecap:round; stroke-linejoin:round; stroke-width:4; stroke-opacity:1; fill:none" points="1153.35,766.846 1153.35,766.846 "/>
<polyline clip-path="url(#clip642)" style="stroke:#000000; stroke-linecap:round; stroke-linejoin:round; stroke-width:4; stroke-opacity:1; fill:none" points="1153.35,766.846 1153.35,766.846 "/>
<defs>
  <clipPath id="clip643">
    <rect x="2160" y="47" width="73" height="1440"/>
  </clipPath>
</defs>
<polyline clip-path="url(#clip643)" style="stroke:#000000; stroke-linecap:round; stroke-linejoin:round; stroke-width:4; stroke-opacity:1; fill:none" points="2160.76,1396.5 2232.76,1396.5 "/>
<polyline clip-path="url(#clip643)" style="stroke:#000000; stroke-linecap:round; stroke-linejoin:round; stroke-width:4; stroke-opacity:1; fill:none" points="2160.76,1306.55 2232.76,1306.55 "/>
<polyline clip-path="url(#clip643)" style="stroke:#000000; stroke-linecap:round; stroke-linejoin:round; stroke-width:4; stroke-opacity:1; fill:none" points="2160.76,1216.6 2232.76,1216.6 "/>
<polyline clip-path="url(#clip643)" style="stroke:#000000; stroke-linecap:round; stroke-linejoin:round; stroke-width:4; stroke-opacity:1; fill:none" points="2160.76,1126.65 2232.76,1126.65 "/>
<polyline clip-path="url(#clip643)" style="stroke:#000000; stroke-linecap:round; stroke-linejoin:round; stroke-width:4; stroke-opacity:1; fill:none" points="2160.76,1036.7 2232.76,1036.7 "/>
<polyline clip-path="url(#clip643)" style="stroke:#000000; stroke-linecap:round; stroke-linejoin:round; stroke-width:4; stroke-opacity:1; fill:none" points="2160.76,946.746 2232.76,946.746 "/>
<polyline clip-path="url(#clip643)" style="stroke:#000000; stroke-linecap:round; stroke-linejoin:round; stroke-width:4; stroke-opacity:1; fill:none" points="2160.76,856.796 2232.76,856.796 "/>
<polyline clip-path="url(#clip643)" style="stroke:#000000; stroke-linecap:round; stroke-linejoin:round; stroke-width:4; stroke-opacity:1; fill:none" points="2160.76,766.846 2232.76,766.846 "/>
<polyline clip-path="url(#clip643)" style="stroke:#000000; stroke-linecap:round; stroke-linejoin:round; stroke-width:4; stroke-opacity:1; fill:none" points="2160.76,676.896 2232.76,676.896 "/>
<polyline clip-path="url(#clip643)" style="stroke:#000000; stroke-linecap:round; stroke-linejoin:round; stroke-width:4; stroke-opacity:1; fill:none" points="2160.76,586.946 2232.76,586.946 "/>
<polyline clip-path="url(#clip643)" style="stroke:#000000; stroke-linecap:round; stroke-linejoin:round; stroke-width:4; stroke-opacity:1; fill:none" points="2160.76,496.995 2232.76,496.995 "/>
<polyline clip-path="url(#clip643)" style="stroke:#000000; stroke-linecap:round; stroke-linejoin:round; stroke-width:4; stroke-opacity:1; fill:none" points="2160.76,407.045 2232.76,407.045 "/>
<polyline clip-path="url(#clip643)" style="stroke:#000000; stroke-linecap:round; stroke-linejoin:round; stroke-width:4; stroke-opacity:1; fill:none" points="2160.76,317.095 2232.76,317.095 "/>
<polyline clip-path="url(#clip643)" style="stroke:#000000; stroke-linecap:round; stroke-linejoin:round; stroke-width:4; stroke-opacity:1; fill:none" points="2160.76,227.145 2232.76,227.145 "/>
<polyline clip-path="url(#clip643)" style="stroke:#000000; stroke-linecap:round; stroke-linejoin:round; stroke-width:4; stroke-opacity:1; fill:none" points="2160.76,137.194 2232.76,137.194 "/>
<path clip-path="url(#clip640)" d="M2269.43 1346.68 L2277.07 1346.68 L2277.07 1320.31 L2268.76 1321.98 L2268.76 1317.72 L2277.02 1316.05 L2281.7 1316.05 L2281.7 1346.68 L2289.33 1346.68 L2289.33 1350.61 L2269.43 1350.61 L2269.43 1346.68 Z" fill="#000000" fill-rule="nonzero" fill-opacity="1" /><polyline clip-path="url(#clip640)" style="stroke:#000000; stroke-linecap:round; stroke-linejoin:round; stroke-width:4; stroke-opacity:1; fill:none" points="2232.76,1336.96 2256.76,1336.96 "/>
<path clip-path="url(#clip640)" d="M2274.38 1197.19 L2290.7 1197.19 L2290.7 1201.13 L2268.76 1201.13 L2268.76 1197.19 Q2271.42 1194.44 2276 1189.81 Q2280.61 1185.15 2281.79 1183.81 Q2284.03 1181.29 2284.91 1179.55 Q2285.82 1177.79 2285.82 1176.1 Q2285.82 1173.35 2283.87 1171.61 Q2281.95 1169.88 2278.85 1169.88 Q2276.65 1169.88 2274.2 1170.64 Q2271.77 1171.4 2268.99 1172.96 L2268.99 1168.23 Q2271.81 1167.1 2274.27 1166.52 Q2276.72 1165.94 2278.76 1165.94 Q2284.13 1165.94 2287.32 1168.63 Q2290.52 1171.31 2290.52 1175.8 Q2290.52 1177.93 2289.7 1179.85 Q2288.92 1181.75 2286.81 1184.34 Q2286.23 1185.02 2283.13 1188.23 Q2280.03 1191.43 2274.38 1197.19 Z" fill="#000000" fill-rule="nonzero" fill-opacity="1" /><polyline clip-path="url(#clip640)" style="stroke:#000000; stroke-linecap:round; stroke-linejoin:round; stroke-width:4; stroke-opacity:1; fill:none" points="2232.76,1187.48 2256.76,1187.48 "/>
<path clip-path="url(#clip640)" d="M2284.38 1033.01 Q2287.74 1033.72 2289.61 1035.99 Q2291.51 1038.26 2291.51 1041.59 Q2291.51 1046.71 2287.99 1049.51 Q2284.47 1052.31 2277.99 1052.31 Q2275.82 1052.31 2273.5 1051.87 Q2271.21 1051.45 2268.76 1050.6 L2268.76 1046.08 Q2270.7 1047.22 2273.02 1047.8 Q2275.33 1048.38 2277.85 1048.38 Q2282.25 1048.38 2284.54 1046.64 Q2286.86 1044.9 2286.86 1041.59 Q2286.86 1038.54 2284.7 1036.83 Q2282.58 1035.09 2278.76 1035.09 L2274.73 1035.09 L2274.73 1031.25 L2278.94 1031.25 Q2282.39 1031.25 2284.22 1029.88 Q2286.05 1028.49 2286.05 1025.9 Q2286.05 1023.24 2284.15 1021.83 Q2282.27 1020.39 2278.76 1020.39 Q2276.83 1020.39 2274.64 1020.81 Q2272.44 1021.22 2269.8 1022.1 L2269.8 1017.94 Q2272.46 1017.2 2274.77 1016.83 Q2277.11 1016.45 2279.17 1016.45 Q2284.5 1016.45 2287.6 1018.89 Q2290.7 1021.29 2290.7 1025.41 Q2290.7 1028.28 2289.06 1030.27 Q2287.41 1032.24 2284.38 1033.01 Z" fill="#000000" fill-rule="nonzero" fill-opacity="1" /><polyline clip-path="url(#clip640)" style="stroke:#000000; stroke-linecap:round; stroke-linejoin:round; stroke-width:4; stroke-opacity:1; fill:none" points="2232.76,1037.99 2256.76,1037.99 "/>
<path clip-path="url(#clip640)" d="M2284.36 871.667 L2272.55 890.116 L2284.36 890.116 L2284.36 871.667 M2283.13 867.593 L2289.01 867.593 L2289.01 890.116 L2293.94 890.116 L2293.94 894.005 L2289.01 894.005 L2289.01 902.153 L2284.36 902.153 L2284.36 894.005 L2268.76 894.005 L2268.76 889.491 L2283.13 867.593 Z" fill="#000000" fill-rule="nonzero" fill-opacity="1" /><polyline clip-path="url(#clip640)" style="stroke:#000000; stroke-linecap:round; stroke-linejoin:round; stroke-width:4; stroke-opacity:1; fill:none" points="2232.76,888.502 2256.76,888.502 "/>
<path clip-path="url(#clip640)" d="M2270.21 718.107 L2288.57 718.107 L2288.57 722.042 L2274.5 722.042 L2274.5 730.514 Q2275.52 730.167 2276.53 730.005 Q2277.55 729.82 2278.57 729.82 Q2284.36 729.82 2287.74 732.991 Q2291.12 736.162 2291.12 741.579 Q2291.12 747.158 2287.64 750.26 Q2284.17 753.338 2277.85 753.338 Q2275.68 753.338 2273.41 752.968 Q2271.16 752.598 2268.76 751.857 L2268.76 747.158 Q2270.84 748.292 2273.06 748.848 Q2275.28 749.403 2277.76 749.403 Q2281.77 749.403 2284.1 747.297 Q2286.44 745.19 2286.44 741.579 Q2286.44 737.968 2284.1 735.862 Q2281.77 733.755 2277.76 733.755 Q2275.89 733.755 2274.01 734.172 Q2272.16 734.588 2270.21 735.468 L2270.21 718.107 Z" fill="#000000" fill-rule="nonzero" fill-opacity="1" /><polyline clip-path="url(#clip640)" style="stroke:#000000; stroke-linecap:round; stroke-linejoin:round; stroke-width:4; stroke-opacity:1; fill:none" points="2232.76,739.016 2256.76,739.016 "/>
<path clip-path="url(#clip640)" d="M2281.09 584.037 Q2277.95 584.037 2276.09 586.19 Q2274.27 588.343 2274.27 592.093 Q2274.27 595.819 2276.09 597.995 Q2277.95 600.148 2281.09 600.148 Q2284.24 600.148 2286.07 597.995 Q2287.92 595.819 2287.92 592.093 Q2287.92 588.343 2286.07 586.19 Q2284.24 584.037 2281.09 584.037 M2290.38 569.384 L2290.38 573.644 Q2288.62 572.81 2286.81 572.371 Q2285.03 571.931 2283.27 571.931 Q2278.64 571.931 2276.19 575.056 Q2273.76 578.181 2273.41 584.5 Q2274.77 582.486 2276.83 581.421 Q2278.89 580.333 2281.37 580.333 Q2286.58 580.333 2289.59 583.505 Q2292.62 586.653 2292.62 592.093 Q2292.62 597.417 2289.47 600.634 Q2286.33 603.852 2281.09 603.852 Q2275.1 603.852 2271.93 599.269 Q2268.76 594.662 2268.76 585.935 Q2268.76 577.741 2272.64 572.88 Q2276.53 567.996 2283.08 567.996 Q2284.84 567.996 2286.63 568.343 Q2288.43 568.69 2290.38 569.384 Z" fill="#000000" fill-rule="nonzero" fill-opacity="1" /><polyline clip-path="url(#clip640)" style="stroke:#000000; stroke-linecap:round; stroke-linejoin:round; stroke-width:4; stroke-opacity:1; fill:none" points="2232.76,589.529 2256.76,589.529 "/>
<path clip-path="url(#clip640)" d="M2268.76 419.134 L2290.98 419.134 L2290.98 421.125 L2278.43 453.694 L2273.55 453.694 L2285.35 423.069 L2268.76 423.069 L2268.76 419.134 Z" fill="#000000" fill-rule="nonzero" fill-opacity="1" /><polyline clip-path="url(#clip640)" style="stroke:#000000; stroke-linecap:round; stroke-linejoin:round; stroke-width:4; stroke-opacity:1; fill:none" points="2232.76,440.043 2256.76,440.043 "/>
<path clip-path="url(#clip640)" d="M2280.61 287.796 Q2277.27 287.796 2275.35 289.578 Q2273.45 291.361 2273.45 294.486 Q2273.45 297.611 2275.35 299.393 Q2277.27 301.175 2280.61 301.175 Q2283.94 301.175 2285.86 299.393 Q2287.78 297.587 2287.78 294.486 Q2287.78 291.361 2285.86 289.578 Q2283.96 287.796 2280.61 287.796 M2275.93 285.805 Q2272.92 285.064 2271.23 283.004 Q2269.57 280.944 2269.57 277.981 Q2269.57 273.838 2272.51 271.43 Q2275.47 269.023 2280.61 269.023 Q2285.77 269.023 2288.71 271.43 Q2291.65 273.838 2291.65 277.981 Q2291.65 280.944 2289.96 283.004 Q2288.29 285.064 2285.31 285.805 Q2288.69 286.592 2290.56 288.884 Q2292.46 291.175 2292.46 294.486 Q2292.46 299.509 2289.38 302.194 Q2286.33 304.879 2280.61 304.879 Q2274.89 304.879 2271.81 302.194 Q2268.76 299.509 2268.76 294.486 Q2268.76 291.175 2270.65 288.884 Q2272.55 286.592 2275.93 285.805 M2274.22 278.421 Q2274.22 281.106 2275.89 282.611 Q2277.58 284.115 2280.61 284.115 Q2283.62 284.115 2285.31 282.611 Q2287.02 281.106 2287.02 278.421 Q2287.02 275.736 2285.31 274.231 Q2283.62 272.726 2280.61 272.726 Q2277.58 272.726 2275.89 274.231 Q2274.22 275.736 2274.22 278.421 Z" fill="#000000" fill-rule="nonzero" fill-opacity="1" /><polyline clip-path="url(#clip640)" style="stroke:#000000; stroke-linecap:round; stroke-linejoin:round; stroke-width:4; stroke-opacity:1; fill:none" points="2232.76,290.557 2256.76,290.557 "/>
<path clip-path="url(#clip640)" d="M2270.98 154.004 L2270.98 149.744 Q2272.74 150.578 2274.54 151.018 Q2276.35 151.457 2278.08 151.457 Q2282.71 151.457 2285.14 148.356 Q2287.6 145.231 2287.95 138.888 Q2286.6 140.879 2284.54 141.944 Q2282.48 143.008 2279.98 143.008 Q2274.8 143.008 2271.77 139.883 Q2268.76 136.735 2268.76 131.295 Q2268.76 125.971 2271.9 122.754 Q2275.05 119.536 2280.28 119.536 Q2286.28 119.536 2289.43 124.143 Q2292.6 128.726 2292.6 137.476 Q2292.6 145.647 2288.71 150.532 Q2284.84 155.393 2278.29 155.393 Q2276.53 155.393 2274.73 155.045 Q2272.92 154.698 2270.98 154.004 M2280.28 139.351 Q2283.43 139.351 2285.26 137.198 Q2287.11 135.045 2287.11 131.295 Q2287.11 127.569 2285.26 125.416 Q2283.43 123.24 2280.28 123.24 Q2277.14 123.24 2275.28 125.416 Q2273.45 127.569 2273.45 131.295 Q2273.45 135.045 2275.28 137.198 Q2277.14 139.351 2280.28 139.351 Z" fill="#000000" fill-rule="nonzero" fill-opacity="1" /><polyline clip-path="url(#clip640)" style="stroke:#000000; stroke-linecap:round; stroke-linejoin:round; stroke-width:4; stroke-opacity:1; fill:none" points="2232.76,141.07 2256.76,141.07 "/>
<polyline clip-path="url(#clip640)" style="stroke:#000000; stroke-linecap:round; stroke-linejoin:round; stroke-width:4; stroke-opacity:1; fill:none" points="2232.76,1486.45 2232.76,47.2441 "/>
<path clip-path="url(#clip640)" d="M257.897 406.258 L768.203 406.258 L768.203 95.2176 L257.897 95.2176  Z" fill="#ffffff" fill-rule="evenodd" fill-opacity="1"/>
<polyline clip-path="url(#clip640)" style="stroke:#000000; stroke-linecap:round; stroke-linejoin:round; stroke-width:4; stroke-opacity:1; fill:none" points="257.897,406.258 768.203,406.258 768.203,95.2176 257.897,95.2176 257.897,406.258 "/>
<circle clip-path="url(#clip640)" cx="343.178" cy="147.058" r="20.48" fill="#000000" fill-rule="evenodd" fill-opacity="1" stroke="none"/>
<path clip-path="url(#clip640)" d="M428.458 129.778 L435.426 129.778 L444.245 153.296 L453.111 129.778 L460.079 129.778 L460.079 164.338 L455.518 164.338 L455.518 133.99 L446.606 157.694 L441.907 157.694 L432.995 133.99 L432.995 164.338 L428.458 164.338 L428.458 129.778 Z" fill="#000000" fill-rule="nonzero" fill-opacity="1" /><path clip-path="url(#clip640)" d="M480.912 134.384 L474.569 151.583 L487.278 151.583 L480.912 134.384 M478.273 129.778 L483.574 129.778 L496.745 164.338 L491.884 164.338 L488.736 155.472 L473.157 155.472 L470.009 164.338 L465.079 164.338 L478.273 129.778 Z" fill="#000000" fill-rule="nonzero" fill-opacity="1" /><path clip-path="url(#clip640)" d="M506.467 133.62 L506.467 146.606 L512.347 146.606 Q515.611 146.606 517.393 144.916 Q519.176 143.227 519.176 140.102 Q519.176 137 517.393 135.31 Q515.611 133.62 512.347 133.62 L506.467 133.62 M501.791 129.778 L512.347 129.778 Q518.157 129.778 521.12 132.416 Q524.106 135.032 524.106 140.102 Q524.106 145.217 521.12 147.833 Q518.157 150.449 512.347 150.449 L506.467 150.449 L506.467 164.338 L501.791 164.338 L501.791 129.778 Z" fill="#000000" fill-rule="nonzero" fill-opacity="1" /><path clip-path="url(#clip640)" d="M567.439 150.31 L567.439 152.393 L547.856 152.393 Q548.134 156.791 550.495 159.106 Q552.879 161.398 557.115 161.398 Q559.569 161.398 561.86 160.796 Q564.175 160.194 566.444 158.99 L566.444 163.018 Q564.152 163.99 561.745 164.5 Q559.337 165.009 556.861 165.009 Q550.657 165.009 547.023 161.398 Q543.412 157.787 543.412 151.629 Q543.412 145.264 546.837 141.537 Q550.286 137.787 556.12 137.787 Q561.351 137.787 564.384 141.166 Q567.439 144.523 567.439 150.31 M563.18 149.06 Q563.134 145.565 561.212 143.481 Q559.314 141.398 556.166 141.398 Q552.601 141.398 550.449 143.412 Q548.319 145.426 547.995 149.083 L563.18 149.06 Z" fill="#000000" fill-rule="nonzero" fill-opacity="1" /><path clip-path="url(#clip640)" d="M590.958 139.176 L590.958 143.203 Q589.152 142.277 587.208 141.815 Q585.263 141.352 583.18 141.352 Q580.009 141.352 578.411 142.324 Q576.837 143.296 576.837 145.24 Q576.837 146.722 577.972 147.578 Q579.106 148.412 582.532 149.176 L583.99 149.5 Q588.527 150.472 590.425 152.254 Q592.346 154.014 592.346 157.185 Q592.346 160.796 589.476 162.902 Q586.629 165.009 581.629 165.009 Q579.546 165.009 577.277 164.592 Q575.032 164.199 572.532 163.388 L572.532 158.99 Q574.893 160.217 577.184 160.842 Q579.476 161.444 581.721 161.444 Q584.731 161.444 586.351 160.426 Q587.971 159.384 587.971 157.509 Q587.971 155.773 586.791 154.847 Q585.634 153.921 581.675 153.064 L580.194 152.717 Q576.235 151.884 574.476 150.171 Q572.717 148.435 572.717 145.426 Q572.717 141.768 575.309 139.778 Q577.902 137.787 582.671 137.787 Q585.032 137.787 587.115 138.134 Q589.198 138.481 590.958 139.176 Z" fill="#000000" fill-rule="nonzero" fill-opacity="1" /><path clip-path="url(#clip640)" d="M603.342 131.051 L603.342 138.412 L612.115 138.412 L612.115 141.722 L603.342 141.722 L603.342 155.796 Q603.342 158.967 604.198 159.87 Q605.078 160.773 607.74 160.773 L612.115 160.773 L612.115 164.338 L607.74 164.338 Q602.809 164.338 600.934 162.509 Q599.059 160.657 599.059 155.796 L599.059 141.722 L595.934 141.722 L595.934 138.412 L599.059 138.412 L599.059 131.051 L603.342 131.051 Z" fill="#000000" fill-rule="nonzero" fill-opacity="1" /><path clip-path="url(#clip640)" d="M617.717 138.412 L621.976 138.412 L621.976 164.338 L617.717 164.338 L617.717 138.412 M617.717 128.319 L621.976 128.319 L621.976 133.713 L617.717 133.713 L617.717 128.319 Z" fill="#000000" fill-rule="nonzero" fill-opacity="1" /><path clip-path="url(#clip640)" d="M651.073 143.389 Q652.67 140.518 654.892 139.153 Q657.115 137.787 660.124 137.787 Q664.175 137.787 666.374 140.634 Q668.573 143.458 668.573 148.689 L668.573 164.338 L664.291 164.338 L664.291 148.828 Q664.291 145.102 662.971 143.296 Q661.652 141.49 658.943 141.49 Q655.633 141.49 653.712 143.69 Q651.791 145.889 651.791 149.685 L651.791 164.338 L647.508 164.338 L647.508 148.828 Q647.508 145.078 646.189 143.296 Q644.869 141.49 642.115 141.49 Q638.851 141.49 636.93 143.713 Q635.008 145.912 635.008 149.685 L635.008 164.338 L630.726 164.338 L630.726 138.412 L635.008 138.412 L635.008 142.44 Q636.467 140.055 638.504 138.921 Q640.541 137.787 643.342 137.787 Q646.166 137.787 648.133 139.222 Q650.124 140.657 651.073 143.389 Z" fill="#000000" fill-rule="nonzero" fill-opacity="1" /><path clip-path="url(#clip640)" d="M688.851 151.305 Q683.689 151.305 681.698 152.486 Q679.707 153.666 679.707 156.514 Q679.707 158.782 681.189 160.125 Q682.693 161.444 685.263 161.444 Q688.804 161.444 690.934 158.944 Q693.087 156.421 693.087 152.254 L693.087 151.305 L688.851 151.305 M697.346 149.546 L697.346 164.338 L693.087 164.338 L693.087 160.402 Q691.628 162.763 689.452 163.898 Q687.276 165.009 684.128 165.009 Q680.147 165.009 677.786 162.787 Q675.448 160.541 675.448 156.791 Q675.448 152.416 678.364 150.194 Q681.304 147.972 687.114 147.972 L693.087 147.972 L693.087 147.555 Q693.087 144.615 691.142 143.018 Q689.221 141.398 685.726 141.398 Q683.503 141.398 681.397 141.93 Q679.29 142.463 677.346 143.527 L677.346 139.592 Q679.684 138.69 681.883 138.25 Q684.082 137.787 686.165 137.787 Q691.79 137.787 694.568 140.703 Q697.346 143.62 697.346 149.546 Z" fill="#000000" fill-rule="nonzero" fill-opacity="1" /><path clip-path="url(#clip640)" d="M710.332 131.051 L710.332 138.412 L719.105 138.412 L719.105 141.722 L710.332 141.722 L710.332 155.796 Q710.332 158.967 711.188 159.87 Q712.068 160.773 714.73 160.773 L719.105 160.773 L719.105 164.338 L714.73 164.338 Q709.8 164.338 707.925 162.509 Q706.05 160.657 706.05 155.796 L706.05 141.722 L702.925 141.722 L702.925 138.412 L706.05 138.412 L706.05 131.051 L710.332 131.051 Z" fill="#000000" fill-rule="nonzero" fill-opacity="1" /><path clip-path="url(#clip640)" d="M746.883 150.31 L746.883 152.393 L727.299 152.393 Q727.577 156.791 729.938 159.106 Q732.323 161.398 736.559 161.398 Q739.012 161.398 741.304 160.796 Q743.619 160.194 745.887 158.99 L745.887 163.018 Q743.596 163.99 741.188 164.5 Q738.781 165.009 736.304 165.009 Q730.1 165.009 726.466 161.398 Q722.855 157.787 722.855 151.629 Q722.855 145.264 726.281 141.537 Q729.73 137.787 735.563 137.787 Q740.795 137.787 743.827 141.166 Q746.883 144.523 746.883 150.31 M742.623 149.06 Q742.577 145.565 740.656 143.481 Q738.758 141.398 735.61 141.398 Q732.045 141.398 729.892 143.412 Q727.762 145.426 727.438 149.083 L742.623 149.06 Z" fill="#000000" fill-rule="nonzero" fill-opacity="1" /><circle clip-path="url(#clip640)" cx="343.178" cy="198.898" r="20.48" fill="#ff0000" fill-rule="evenodd" fill-opacity="1" stroke="#000000" stroke-opacity="1" stroke-width="4.55111"/>
<path clip-path="url(#clip640)" d="M428.458 181.618 L435.426 181.618 L444.245 205.136 L453.111 181.618 L460.079 181.618 L460.079 216.178 L455.518 216.178 L455.518 185.83 L446.606 209.534 L441.907 209.534 L432.995 185.83 L432.995 216.178 L428.458 216.178 L428.458 181.618 Z" fill="#000000" fill-rule="nonzero" fill-opacity="1" /><path clip-path="url(#clip640)" d="M469.361 181.618 L474.037 181.618 L474.037 212.242 L490.866 212.242 L490.866 216.178 L469.361 216.178 L469.361 181.618 Z" fill="#000000" fill-rule="nonzero" fill-opacity="1" /><path clip-path="url(#clip640)" d="M532.833 202.15 L532.833 204.233 L513.25 204.233 Q513.527 208.631 515.889 210.946 Q518.273 213.238 522.509 213.238 Q524.963 213.238 527.254 212.636 Q529.569 212.034 531.838 210.83 L531.838 214.858 Q529.546 215.83 527.138 216.34 Q524.731 216.849 522.254 216.849 Q516.051 216.849 512.416 213.238 Q508.805 209.627 508.805 203.469 Q508.805 197.104 512.231 193.377 Q515.68 189.627 521.513 189.627 Q526.745 189.627 529.777 193.006 Q532.833 196.363 532.833 202.15 M528.574 200.9 Q528.527 197.405 526.606 195.321 Q524.708 193.238 521.56 193.238 Q517.995 193.238 515.842 195.252 Q513.713 197.266 513.389 200.923 L528.574 200.9 Z" fill="#000000" fill-rule="nonzero" fill-opacity="1" /><path clip-path="url(#clip640)" d="M556.351 191.016 L556.351 195.043 Q554.546 194.117 552.601 193.655 Q550.657 193.192 548.574 193.192 Q545.402 193.192 543.805 194.164 Q542.231 195.136 542.231 197.08 Q542.231 198.562 543.365 199.418 Q544.499 200.252 547.925 201.016 L549.384 201.34 Q553.921 202.312 555.819 204.094 Q557.74 205.854 557.74 209.025 Q557.74 212.636 554.87 214.742 Q552.023 216.849 547.023 216.849 Q544.939 216.849 542.671 216.432 Q540.425 216.039 537.925 215.228 L537.925 210.83 Q540.287 212.057 542.578 212.682 Q544.87 213.284 547.115 213.284 Q550.124 213.284 551.745 212.266 Q553.365 211.224 553.365 209.349 Q553.365 207.613 552.185 206.687 Q551.027 205.761 547.069 204.904 L545.587 204.557 Q541.629 203.724 539.87 202.011 Q538.111 200.275 538.111 197.266 Q538.111 193.608 540.703 191.618 Q543.296 189.627 548.064 189.627 Q550.425 189.627 552.509 189.974 Q554.592 190.321 556.351 191.016 Z" fill="#000000" fill-rule="nonzero" fill-opacity="1" /><path clip-path="url(#clip640)" d="M568.735 182.891 L568.735 190.252 L577.509 190.252 L577.509 193.562 L568.735 193.562 L568.735 207.636 Q568.735 210.807 569.592 211.71 Q570.472 212.613 573.134 212.613 L577.509 212.613 L577.509 216.178 L573.134 216.178 Q568.203 216.178 566.328 214.349 Q564.453 212.497 564.453 207.636 L564.453 193.562 L561.328 193.562 L561.328 190.252 L564.453 190.252 L564.453 182.891 L568.735 182.891 Z" fill="#000000" fill-rule="nonzero" fill-opacity="1" /><path clip-path="url(#clip640)" d="M583.11 190.252 L587.37 190.252 L587.37 216.178 L583.11 216.178 L583.11 190.252 M583.11 180.159 L587.37 180.159 L587.37 185.553 L583.11 185.553 L583.11 180.159 Z" fill="#000000" fill-rule="nonzero" fill-opacity="1" /><path clip-path="url(#clip640)" d="M616.467 195.229 Q618.064 192.358 620.286 190.993 Q622.508 189.627 625.518 189.627 Q629.568 189.627 631.768 192.474 Q633.967 195.298 633.967 200.529 L633.967 216.178 L629.684 216.178 L629.684 200.668 Q629.684 196.942 628.365 195.136 Q627.045 193.33 624.337 193.33 Q621.027 193.33 619.106 195.53 Q617.184 197.729 617.184 201.525 L617.184 216.178 L612.902 216.178 L612.902 200.668 Q612.902 196.918 611.582 195.136 Q610.263 193.33 607.508 193.33 Q604.245 193.33 602.323 195.553 Q600.402 197.752 600.402 201.525 L600.402 216.178 L596.12 216.178 L596.12 190.252 L600.402 190.252 L600.402 194.28 Q601.86 191.895 603.897 190.761 Q605.934 189.627 608.735 189.627 Q611.559 189.627 613.527 191.062 Q615.518 192.497 616.467 195.229 Z" fill="#000000" fill-rule="nonzero" fill-opacity="1" /><path clip-path="url(#clip640)" d="M654.244 203.145 Q649.082 203.145 647.092 204.326 Q645.101 205.506 645.101 208.354 Q645.101 210.622 646.582 211.965 Q648.087 213.284 650.656 213.284 Q654.198 213.284 656.328 210.784 Q658.48 208.261 658.48 204.094 L658.48 203.145 L654.244 203.145 M662.74 201.386 L662.74 216.178 L658.48 216.178 L658.48 212.242 Q657.022 214.603 654.846 215.738 Q652.67 216.849 649.522 216.849 Q645.541 216.849 643.18 214.627 Q640.842 212.381 640.842 208.631 Q640.842 204.256 643.758 202.034 Q646.698 199.812 652.508 199.812 L658.48 199.812 L658.48 199.395 Q658.48 196.455 656.536 194.858 Q654.615 193.238 651.119 193.238 Q648.897 193.238 646.791 193.77 Q644.684 194.303 642.74 195.367 L642.74 191.432 Q645.078 190.53 647.277 190.09 Q649.476 189.627 651.559 189.627 Q657.184 189.627 659.962 192.543 Q662.74 195.46 662.74 201.386 Z" fill="#000000" fill-rule="nonzero" fill-opacity="1" /><path clip-path="url(#clip640)" d="M675.726 182.891 L675.726 190.252 L684.499 190.252 L684.499 193.562 L675.726 193.562 L675.726 207.636 Q675.726 210.807 676.582 211.71 Q677.462 212.613 680.124 212.613 L684.499 212.613 L684.499 216.178 L680.124 216.178 Q675.193 216.178 673.318 214.349 Q671.443 212.497 671.443 207.636 L671.443 193.562 L668.318 193.562 L668.318 190.252 L671.443 190.252 L671.443 182.891 L675.726 182.891 Z" fill="#000000" fill-rule="nonzero" fill-opacity="1" /><path clip-path="url(#clip640)" d="M712.276 202.15 L712.276 204.233 L692.693 204.233 Q692.971 208.631 695.332 210.946 Q697.716 213.238 701.952 213.238 Q704.406 213.238 706.698 212.636 Q709.012 212.034 711.281 210.83 L711.281 214.858 Q708.989 215.83 706.582 216.34 Q704.175 216.849 701.698 216.849 Q695.494 216.849 691.86 213.238 Q688.249 209.627 688.249 203.469 Q688.249 197.104 691.675 193.377 Q695.124 189.627 700.957 189.627 Q706.188 189.627 709.221 193.006 Q712.276 196.363 712.276 202.15 M708.017 200.9 Q707.971 197.405 706.05 195.321 Q704.151 193.238 701.003 193.238 Q697.438 193.238 695.286 195.252 Q693.156 197.266 692.832 200.923 L708.017 200.9 Z" fill="#000000" fill-rule="nonzero" fill-opacity="1" /><polyline clip-path="url(#clip640)" style="stroke:#ff0000; stroke-linecap:round; stroke-linejoin:round; stroke-width:4; stroke-opacity:1; fill:none" points="279.217,250.738 407.138,250.738 "/>
<path clip-path="url(#clip640)" d="M428.458 233.458 L433.134 233.458 L433.134 264.082 L449.963 264.082 L449.963 268.018 L428.458 268.018 L428.458 233.458 Z" fill="#000000" fill-rule="nonzero" fill-opacity="1" /><path clip-path="url(#clip640)" d="M454.685 242.092 L458.944 242.092 L458.944 268.018 L454.685 268.018 L454.685 242.092 M454.685 231.999 L458.944 231.999 L458.944 237.393 L454.685 237.393 L454.685 231.999 Z" fill="#000000" fill-rule="nonzero" fill-opacity="1" /><path clip-path="url(#clip640)" d="M467.694 231.999 L471.977 231.999 L471.977 253.272 L484.685 242.092 L490.125 242.092 L476.375 254.221 L490.703 268.018 L485.148 268.018 L471.977 255.356 L471.977 268.018 L467.694 268.018 L467.694 231.999 Z" fill="#000000" fill-rule="nonzero" fill-opacity="1" /><path clip-path="url(#clip640)" d="M515.796 253.99 L515.796 256.073 L496.213 256.073 Q496.49 260.471 498.852 262.786 Q501.236 265.078 505.472 265.078 Q507.926 265.078 510.217 264.476 Q512.532 263.874 514.801 262.67 L514.801 266.698 Q512.509 267.67 510.102 268.18 Q507.694 268.689 505.217 268.689 Q499.014 268.689 495.379 265.078 Q491.768 261.467 491.768 255.309 Q491.768 248.944 495.194 245.217 Q498.643 241.467 504.477 241.467 Q509.708 241.467 512.74 244.846 Q515.796 248.203 515.796 253.99 M511.537 252.74 Q511.49 249.245 509.569 247.161 Q507.671 245.078 504.523 245.078 Q500.958 245.078 498.805 247.092 Q496.676 249.106 496.352 252.763 L511.537 252.74 Z" fill="#000000" fill-rule="nonzero" fill-opacity="1" /><path clip-path="url(#clip640)" d="M522.787 231.999 L527.046 231.999 L527.046 268.018 L522.787 268.018 L522.787 231.999 Z" fill="#000000" fill-rule="nonzero" fill-opacity="1" /><path clip-path="url(#clip640)" d="M535.958 242.092 L540.217 242.092 L540.217 268.018 L535.958 268.018 L535.958 242.092 M535.958 231.999 L540.217 231.999 L540.217 237.393 L535.958 237.393 L535.958 231.999 Z" fill="#000000" fill-rule="nonzero" fill-opacity="1" /><path clip-path="url(#clip640)" d="M570.68 252.369 L570.68 268.018 L566.421 268.018 L566.421 252.508 Q566.421 248.828 564.985 246.999 Q563.55 245.17 560.68 245.17 Q557.231 245.17 555.24 247.37 Q553.249 249.569 553.249 253.365 L553.249 268.018 L548.967 268.018 L548.967 231.999 L553.249 231.999 L553.249 246.12 Q554.777 243.782 556.837 242.624 Q558.921 241.467 561.629 241.467 Q566.097 241.467 568.388 244.245 Q570.68 246.999 570.68 252.369 Z" fill="#000000" fill-rule="nonzero" fill-opacity="1" /><path clip-path="url(#clip640)" d="M589.221 245.078 Q585.796 245.078 583.805 247.763 Q581.814 250.425 581.814 255.078 Q581.814 259.731 583.782 262.416 Q585.772 265.078 589.221 265.078 Q592.624 265.078 594.615 262.393 Q596.606 259.707 596.606 255.078 Q596.606 250.471 594.615 247.786 Q592.624 245.078 589.221 245.078 M589.221 241.467 Q594.777 241.467 597.948 245.078 Q601.12 248.689 601.12 255.078 Q601.12 261.444 597.948 265.078 Q594.777 268.689 589.221 268.689 Q583.643 268.689 580.472 265.078 Q577.323 261.444 577.323 255.078 Q577.323 248.689 580.472 245.078 Q583.643 241.467 589.221 241.467 Z" fill="#000000" fill-rule="nonzero" fill-opacity="1" /><path clip-path="url(#clip640)" d="M618.226 245.078 Q614.8 245.078 612.809 247.763 Q610.819 250.425 610.819 255.078 Q610.819 259.731 612.786 262.416 Q614.777 265.078 618.226 265.078 Q621.629 265.078 623.619 262.393 Q625.61 259.707 625.61 255.078 Q625.61 250.471 623.619 247.786 Q621.629 245.078 618.226 245.078 M618.226 241.467 Q623.781 241.467 626.953 245.078 Q630.124 248.689 630.124 255.078 Q630.124 261.444 626.953 265.078 Q623.781 268.689 618.226 268.689 Q612.647 268.689 609.476 265.078 Q606.328 261.444 606.328 255.078 Q606.328 248.689 609.476 245.078 Q612.647 241.467 618.226 241.467 Z" fill="#000000" fill-rule="nonzero" fill-opacity="1" /><path clip-path="url(#clip640)" d="M654.244 246.027 L654.244 231.999 L658.503 231.999 L658.503 268.018 L654.244 268.018 L654.244 264.129 Q652.902 266.443 650.841 267.578 Q648.804 268.689 645.934 268.689 Q641.235 268.689 638.272 264.939 Q635.332 261.189 635.332 255.078 Q635.332 248.967 638.272 245.217 Q641.235 241.467 645.934 241.467 Q648.804 241.467 650.841 242.601 Q652.902 243.712 654.244 246.027 M639.73 255.078 Q639.73 259.777 641.652 262.462 Q643.596 265.124 646.976 265.124 Q650.355 265.124 652.3 262.462 Q654.244 259.777 654.244 255.078 Q654.244 250.379 652.3 247.717 Q650.355 245.032 646.976 245.032 Q643.596 245.032 641.652 247.717 Q639.73 250.379 639.73 255.078 Z" fill="#000000" fill-rule="nonzero" fill-opacity="1" /><polyline clip-path="url(#clip640)" style="stroke:#0000ff; stroke-linecap:round; stroke-linejoin:round; stroke-width:4; stroke-opacity:1; fill:none" points="279.217,302.578 407.138,302.578 "/>
<path clip-path="url(#clip640)" d="M433.134 289.14 L433.134 302.126 L439.014 302.126 Q442.278 302.126 444.06 300.436 Q445.843 298.747 445.843 295.622 Q445.843 292.52 444.06 290.83 Q442.278 289.14 439.014 289.14 L433.134 289.14 M428.458 285.298 L439.014 285.298 Q444.824 285.298 447.787 287.936 Q450.773 290.552 450.773 295.622 Q450.773 300.737 447.787 303.353 Q444.824 305.969 439.014 305.969 L433.134 305.969 L433.134 319.858 L428.458 319.858 L428.458 285.298 Z" fill="#000000" fill-rule="nonzero" fill-opacity="1" /><path clip-path="url(#clip640)" d="M471.051 297.913 Q470.333 297.497 469.477 297.311 Q468.643 297.103 467.625 297.103 Q464.014 297.103 462.069 299.464 Q460.148 301.802 460.148 306.2 L460.148 319.858 L455.866 319.858 L455.866 293.932 L460.148 293.932 L460.148 297.96 Q461.491 295.598 463.643 294.464 Q465.796 293.307 468.875 293.307 Q469.315 293.307 469.847 293.376 Q470.38 293.423 471.028 293.538 L471.051 297.913 Z" fill="#000000" fill-rule="nonzero" fill-opacity="1" /><path clip-path="url(#clip640)" d="M475.518 293.932 L479.778 293.932 L479.778 319.858 L475.518 319.858 L475.518 293.932 M475.518 283.839 L479.778 283.839 L479.778 289.233 L475.518 289.233 L475.518 283.839 Z" fill="#000000" fill-rule="nonzero" fill-opacity="1" /><path clip-path="url(#clip640)" d="M498.736 296.918 Q495.31 296.918 493.319 299.603 Q491.328 302.265 491.328 306.918 Q491.328 311.571 493.296 314.256 Q495.287 316.918 498.736 316.918 Q502.139 316.918 504.129 314.233 Q506.12 311.547 506.12 306.918 Q506.12 302.311 504.129 299.626 Q502.139 296.918 498.736 296.918 M498.736 293.307 Q504.291 293.307 507.463 296.918 Q510.634 300.529 510.634 306.918 Q510.634 313.284 507.463 316.918 Q504.291 320.529 498.736 320.529 Q493.157 320.529 489.986 316.918 Q486.838 313.284 486.838 306.918 Q486.838 300.529 489.986 296.918 Q493.157 293.307 498.736 293.307 Z" fill="#000000" fill-rule="nonzero" fill-opacity="1" /><path clip-path="url(#clip640)" d="M532.717 297.913 Q532 297.497 531.143 297.311 Q530.31 297.103 529.291 297.103 Q525.68 297.103 523.736 299.464 Q521.814 301.802 521.814 306.2 L521.814 319.858 L517.532 319.858 L517.532 293.932 L521.814 293.932 L521.814 297.96 Q523.157 295.598 525.31 294.464 Q527.463 293.307 530.541 293.307 Q530.981 293.307 531.513 293.376 Q532.046 293.423 532.694 293.538 L532.717 297.913 Z" fill="#000000" fill-rule="nonzero" fill-opacity="1" /><polyline clip-path="url(#clip640)" style="stroke:#000000; stroke-linecap:round; stroke-linejoin:round; stroke-width:4; stroke-opacity:1; fill:none" points="279.217,354.418 407.138,354.418 "/>
<path clip-path="url(#clip640)" d="M433.134 340.98 L433.134 353.966 L439.014 353.966 Q442.278 353.966 444.06 352.276 Q445.843 350.587 445.843 347.462 Q445.843 344.36 444.06 342.67 Q442.278 340.98 439.014 340.98 L433.134 340.98 M428.458 337.138 L439.014 337.138 Q444.824 337.138 447.787 339.776 Q450.773 342.392 450.773 347.462 Q450.773 352.577 447.787 355.193 Q444.824 357.809 439.014 357.809 L433.134 357.809 L433.134 371.698 L428.458 371.698 L428.458 337.138 Z" fill="#000000" fill-rule="nonzero" fill-opacity="1" /><path clip-path="url(#clip640)" d="M465.217 348.758 Q461.792 348.758 459.801 351.443 Q457.81 354.105 457.81 358.758 Q457.81 363.411 459.778 366.096 Q461.768 368.758 465.217 368.758 Q468.62 368.758 470.611 366.073 Q472.602 363.387 472.602 358.758 Q472.602 354.151 470.611 351.466 Q468.62 348.758 465.217 348.758 M465.217 345.147 Q470.773 345.147 473.944 348.758 Q477.116 352.369 477.116 358.758 Q477.116 365.124 473.944 368.758 Q470.773 372.369 465.217 372.369 Q459.639 372.369 456.468 368.758 Q453.319 365.124 453.319 358.758 Q453.319 352.369 456.468 348.758 Q459.639 345.147 465.217 345.147 Z" fill="#000000" fill-rule="nonzero" fill-opacity="1" /><path clip-path="url(#clip640)" d="M500.703 346.536 L500.703 350.563 Q498.898 349.637 496.953 349.175 Q495.009 348.712 492.926 348.712 Q489.754 348.712 488.157 349.684 Q486.583 350.656 486.583 352.6 Q486.583 354.082 487.717 354.938 Q488.852 355.772 492.278 356.536 L493.736 356.86 Q498.273 357.832 500.171 359.614 Q502.092 361.374 502.092 364.545 Q502.092 368.156 499.222 370.262 Q496.375 372.369 491.375 372.369 Q489.291 372.369 487.023 371.952 Q484.778 371.559 482.278 370.748 L482.278 366.35 Q484.639 367.577 486.93 368.202 Q489.222 368.804 491.467 368.804 Q494.477 368.804 496.097 367.786 Q497.717 366.744 497.717 364.869 Q497.717 363.133 496.537 362.207 Q495.379 361.281 491.421 360.424 L489.94 360.077 Q485.981 359.244 484.222 357.531 Q482.463 355.795 482.463 352.786 Q482.463 349.128 485.055 347.138 Q487.648 345.147 492.416 345.147 Q494.778 345.147 496.861 345.494 Q498.944 345.841 500.703 346.536 Z" fill="#000000" fill-rule="nonzero" fill-opacity="1" /><path clip-path="url(#clip640)" d="M513.088 338.411 L513.088 345.772 L521.861 345.772 L521.861 349.082 L513.088 349.082 L513.088 363.156 Q513.088 366.327 513.944 367.23 Q514.824 368.133 517.486 368.133 L521.861 368.133 L521.861 371.698 L517.486 371.698 Q512.555 371.698 510.68 369.869 Q508.805 368.017 508.805 363.156 L508.805 349.082 L505.68 349.082 L505.68 345.772 L508.805 345.772 L508.805 338.411 L513.088 338.411 Z" fill="#000000" fill-rule="nonzero" fill-opacity="1" /><path clip-path="url(#clip640)" d="M549.638 357.67 L549.638 359.753 L530.055 359.753 Q530.333 364.151 532.694 366.466 Q535.078 368.758 539.314 368.758 Q541.768 368.758 544.06 368.156 Q546.374 367.554 548.643 366.35 L548.643 370.378 Q546.351 371.35 543.944 371.86 Q541.537 372.369 539.06 372.369 Q532.856 372.369 529.222 368.758 Q525.611 365.147 525.611 358.989 Q525.611 352.624 529.037 348.897 Q532.486 345.147 538.319 345.147 Q543.55 345.147 546.583 348.526 Q549.638 351.883 549.638 357.67 M545.379 356.42 Q545.333 352.925 543.412 350.841 Q541.513 348.758 538.365 348.758 Q534.8 348.758 532.648 350.772 Q530.518 352.786 530.194 356.443 L545.379 356.42 Z" fill="#000000" fill-rule="nonzero" fill-opacity="1" /><path clip-path="url(#clip640)" d="M571.652 349.753 Q570.935 349.337 570.078 349.151 Q569.245 348.943 568.226 348.943 Q564.615 348.943 562.671 351.304 Q560.749 353.642 560.749 358.04 L560.749 371.698 L556.467 371.698 L556.467 345.772 L560.749 345.772 L560.749 349.8 Q562.092 347.438 564.245 346.304 Q566.398 345.147 569.476 345.147 Q569.916 345.147 570.448 345.216 Q570.981 345.263 571.629 345.378 L571.652 349.753 Z" fill="#000000" fill-rule="nonzero" fill-opacity="1" /><path clip-path="url(#clip640)" d="M576.12 345.772 L580.379 345.772 L580.379 371.698 L576.12 371.698 L576.12 345.772 M576.12 335.679 L580.379 335.679 L580.379 341.073 L576.12 341.073 L576.12 335.679 Z" fill="#000000" fill-rule="nonzero" fill-opacity="1" /><path clip-path="url(#clip640)" d="M599.337 348.758 Q595.911 348.758 593.921 351.443 Q591.93 354.105 591.93 358.758 Q591.93 363.411 593.897 366.096 Q595.888 368.758 599.337 368.758 Q602.74 368.758 604.731 366.073 Q606.721 363.387 606.721 358.758 Q606.721 354.151 604.731 351.466 Q602.74 348.758 599.337 348.758 M599.337 345.147 Q604.893 345.147 608.064 348.758 Q611.235 352.369 611.235 358.758 Q611.235 365.124 608.064 368.758 Q604.893 372.369 599.337 372.369 Q593.758 372.369 590.587 368.758 Q587.439 365.124 587.439 358.758 Q587.439 352.369 590.587 348.758 Q593.758 345.147 599.337 345.147 Z" fill="#000000" fill-rule="nonzero" fill-opacity="1" /><path clip-path="url(#clip640)" d="M633.318 349.753 Q632.601 349.337 631.744 349.151 Q630.911 348.943 629.893 348.943 Q626.281 348.943 624.337 351.304 Q622.416 353.642 622.416 358.04 L622.416 371.698 L618.133 371.698 L618.133 345.772 L622.416 345.772 L622.416 349.8 Q623.758 347.438 625.911 346.304 Q628.064 345.147 631.143 345.147 Q631.582 345.147 632.115 345.216 Q632.647 345.263 633.295 345.378 L633.318 349.753 Z" fill="#000000" fill-rule="nonzero" fill-opacity="1" /></svg>
